<?xml version="1.0" encoding="UTF-8"?>
<svg width="179px" height="190px" viewBox="0 0 179 190" version="1.1" xmlns="http://www.w3.org/2000/svg" xmlns:xlink="http://www.w3.org/1999/xlink">
    <!-- Generator: Sketch 43.2 (39069) - http://www.bohemiancoding.com/sketch -->
    <title>Page 1</title>
    <desc>Created with Sketch.</desc>
    <defs>
        <polygon id="path-1" points="75.0970976 0.836 0.625414939 0.836 0.625414939 102.630756 75.0970976 102.630756 75.0970976 0.836"></polygon>
    </defs>
    <g id="Page-1" stroke="none" stroke-width="1" fill="none" fill-rule="evenodd">
        <g transform="translate(0.000000, -1.000000)">
            <path d="M116.7157,187.664 C116.7157,187.164 122.8407,174.039 126.2157,152.164" id="Stroke-1" stroke="#0074BB" stroke-width="5" stroke-linecap="round"></path>
            <path d="M90.3407,99.414 C90.4657,99.789 86.3407,157.789 95.0907,184.289" id="Stroke-3" stroke="#0074BB" stroke-width="5" stroke-linecap="round"></path>
            <path d="M49.3954,144.7714 C49.3954,144.7714 53.9514,164.9144 61.6254,182.9144" id="Stroke-5" stroke="#0074BB" stroke-width="5" stroke-linecap="round"></path>
            <g id="Group-9" transform="translate(61.000000, 0.164000)">
                <mask id="mask-2" fill="white">
                    <use xlink:href="#path-1"></use>
                </mask>
                <g id="Clip-8"></g>
                <path d="M34.1327,97.6162 C35.8317,94.1832 39.1127,91.5332 43.2487,90.4772 C58.4657,86.5932 71.3167,71.5332 74.4097,51.9162 C78.3227,27.0942 65.1327,4.3912 44.9477,1.2082 C24.7617,-1.9738 5.2267,15.5692 1.3127,40.3912 C-1.7803,60.0082 5.8147,78.2912 19.0977,86.6692 C22.7077,88.9462 25.0137,92.4782 25.5747,96.2672 L25.8497,96.5262 C24.2297,96.8262 23.1037,97.5162 22.9537,98.4702 C22.6957,100.1062 25.3957,101.8922 28.9837,102.4582 C32.5727,103.0232 35.6907,102.1552 35.9487,100.5192 C36.0987,99.5652 35.2397,98.5622 33.7917,97.7782 L34.1327,97.6162 Z" id="Fill-7" fill="#F6DE81" mask="url(#mask-2)"></path>
            </g>
            <path d="M131.1322,152.0722 C133.2452,148.8782 136.8302,146.6552 141.0652,146.1222 C156.6472,144.1612 171.2722,130.8172 176.7812,111.7372 C183.7522,87.5942 173.4882,63.4272 153.8562,57.7592 C134.2232,52.0902 112.6572,67.0662 105.6862,91.2092 C100.1762,110.2892 105.4382,129.3752 117.5752,139.3402 C120.8742,142.0482 122.7232,145.8402 122.8082,149.6692 L123.0492,149.9612 C121.4042,150.0562 120.2012,150.6012 119.9332,151.5292 C119.4742,153.1212 121.9302,155.2282 125.4212,156.2362 C128.9112,157.2442 132.1132,156.7702 132.5722,155.1782 C132.8402,154.2512 132.1132,153.1492 130.7732,152.1902 L131.1322,152.0722 Z" id="Fill-10" fill="#EECA13"></path>
            <path d="M52.4579,138.4013 C52.8089,134.5883 54.9159,130.9333 58.3949,128.4613 C71.1959,119.3633 77.7709,100.6883 73.5999,81.2723 C68.3219,56.7033 47.8479,40.2653 27.8699,44.5573 C7.8909,48.8483 -4.0271,72.2443 1.2499,96.8123 C5.4209,116.2293 19.0829,130.5563 34.4919,133.5953 C38.6789,134.4223 42.1009,136.8873 43.9869,140.2203 L44.3369,140.3643 C42.9339,141.2263 42.1319,142.2753 42.3339,143.2193 C42.6819,144.8393 45.8439,145.5343 49.3949,144.7713 C52.9469,144.0073 55.5439,142.0763 55.1959,140.4573 C54.9939,139.5123 53.8319,138.8853 52.1979,138.6753 L52.4579,138.4013 Z" id="Fill-12" fill="#EECA13"></path>
            <path d="M166.1674,101.9208 C162.5514,114.7878 149.1894,122.2878 136.3224,118.6728 C123.4544,115.0568 115.9544,101.6938 119.5704,88.8268 C123.1864,75.9598 136.5484,68.4598 149.4164,72.0758 C162.2834,75.6918 169.7834,89.0538 166.1674,101.9208" id="Fill-14" fill="#F6DE81"></path>
            <path d="M166.1674,101.9208 C162.5514,114.7878 149.1894,122.2878 136.3224,118.6728 C123.4544,115.0568 115.9544,101.6938 119.5704,88.8268 C123.1864,75.9598 136.5484,68.4598 149.4164,72.0758 C162.2834,75.6918 169.7834,89.0538 166.1674,101.9208 Z" id="Stroke-16" stroke="#FAF3D2" stroke-width="5" stroke-linecap="round"></path>
            <path d="M149.6483,104.2128 C149.6443,104.5068 149.6253,104.7558 149.5913,104.9598 C149.5573,105.1648 149.5103,105.3288 149.4503,105.4538 C149.3913,105.5798 149.3243,105.6678 149.2503,105.7198 C149.1763,105.7718 149.0923,105.7958 148.9973,105.7948 L136.3713,105.6288 C136.2763,105.6278 136.1923,105.6008 136.1203,105.5468 C136.0473,105.4928 135.9823,105.4028 135.9263,105.2758 C135.8703,105.1498 135.8283,104.9838 135.7993,104.7788 C135.7703,104.5738 135.7583,104.3238 135.7623,104.0298 C135.7663,103.7268 135.7823,103.4718 135.8113,103.2678 C135.8403,103.0638 135.8843,102.8988 135.9433,102.7738 C136.0033,102.6488 136.0723,102.5598 136.1513,102.5088 C136.2313,102.4568 136.3183,102.4318 136.4133,102.4328 L138.0813,102.4548 L138.1553,96.8508 L136.4863,96.8278 C136.3923,96.8268 136.3083,96.8018 136.2353,96.7538 C136.1623,96.7058 136.0983,96.6208 136.0423,96.4998 C135.9853,96.3778 135.9433,96.2178 135.9143,96.0178 C135.8853,95.8168 135.8733,95.5658 135.8773,95.2608 C135.8803,94.9668 135.8973,94.7208 135.9263,94.5218 C135.9553,94.3228 135.9993,94.1628 136.0583,94.0438 C136.1173,93.9228 136.1873,93.8378 136.2663,93.7858 C136.3463,93.7348 136.4333,93.7098 136.5273,93.7108 L138.1963,93.7328 L138.2153,92.2838 C138.2323,91.0038 138.3883,89.9008 138.6843,88.9758 C138.9793,88.0508 139.4043,87.2928 139.9583,86.7008 C140.5113,86.1098 141.1943,85.6808 142.0063,85.4138 C142.8173,85.1458 143.7483,85.0188 144.7983,85.0328 C145.2603,85.0388 145.7033,85.0788 146.1273,85.1528 C146.5513,85.2268 146.9413,85.3258 147.2963,85.4518 C147.6513,85.5768 147.9723,85.7228 148.2593,85.8888 C148.5453,86.0558 148.7533,86.2078 148.8833,86.3458 C149.0123,86.4838 149.1053,86.5988 149.1623,86.6888 C149.2183,86.7778 149.2613,86.8888 149.2913,87.0208 C149.3213,87.1518 149.3423,87.3128 149.3563,87.5018 C149.3693,87.6908 149.3743,87.9218 149.3703,88.1948 C149.3663,88.4888 149.3503,88.7348 149.3213,88.9348 C149.2923,89.1338 149.2513,89.2928 149.1973,89.4128 C149.1433,89.5328 149.0793,89.6188 149.0043,89.6708 C148.9303,89.7218 148.8513,89.7468 148.7673,89.7458 C148.6203,89.7438 148.4563,89.6688 148.2743,89.5188 C148.0923,89.3698 147.8633,89.2068 147.5873,89.0298 C147.3123,88.8528 146.9863,88.6888 146.6103,88.5368 C146.2343,88.3848 145.7843,88.3048 145.2593,88.2978 C144.7343,88.2918 144.2873,88.3718 143.9173,88.5408 C143.5473,88.7088 143.2453,88.9568 143.0103,89.2848 C142.7743,89.6118 142.6013,90.0198 142.4903,90.5058 C142.3783,90.9928 142.3193,91.5508 142.3113,92.1808 L142.2903,93.7868 L146.5243,93.8418 C146.6193,93.8428 146.7053,93.8708 146.7833,93.9238 C146.8613,93.9778 146.9263,94.0658 146.9773,94.1868 C147.0273,94.3078 147.0673,94.4688 147.0963,94.6688 C147.1253,94.8678 147.1383,95.1148 147.1343,95.4088 C147.1303,95.7138 147.1113,95.9648 147.0773,96.1638 C147.0433,96.3628 146.9963,96.5228 146.9373,96.6428 C146.8773,96.7628 146.8113,96.8458 146.7363,96.8918 C146.6623,96.9388 146.5783,96.9608 146.4833,96.9598 L142.2493,96.9038 L142.1753,102.5088 L149.0393,102.5988 C149.1343,102.6008 149.2203,102.6278 149.2983,102.6808 C149.3763,102.7338 149.4403,102.8248 149.4913,102.9508 C149.5423,103.0778 149.5823,103.2438 149.6103,103.4488 C149.6393,103.6538 149.6523,103.9088 149.6483,104.2128" id="Fill-18" fill="#B6A30D"></path>
            <path d="M121.35,48.2269 C116.412,60.6469 102.34,66.7119 89.92,61.7739 C77.5,56.8359 71.434,42.7649 76.373,30.3449 C81.311,17.9239 95.382,11.8589 107.803,16.7969 C120.223,21.7349 126.288,35.8069 121.35,48.2269" id="Fill-20" fill="#F6DE81"></path>
            <path d="M121.35,48.2269 C116.412,60.6469 102.34,66.7119 89.92,61.7739 C77.5,56.8359 71.434,42.7649 76.373,30.3449 C81.311,17.9239 95.382,11.8589 107.803,16.7969 C120.223,21.7349 126.288,35.8069 121.35,48.2269 Z" id="Stroke-22" stroke="#FAF3D2" stroke-width="5" stroke-linecap="round"></path>
            <path d="M104.682,48.7836 C104.647,49.0756 104.602,49.3216 104.547,49.5206 C104.492,49.7206 104.428,49.8796 104.356,49.9976 C104.284,50.1166 104.208,50.1966 104.129,50.2406 C104.05,50.2836 103.964,50.3006 103.87,50.2886 L91.329,48.8066 C91.235,48.7956 91.155,48.7606 91.088,48.6996 C91.021,48.6386 90.967,48.5426 90.924,48.4106 C90.882,48.2786 90.857,48.1096 90.849,47.9026 C90.842,47.6956 90.856,47.4456 90.89,47.1536 C90.926,46.8516 90.969,46.6006 91.019,46.4006 C91.069,46.2006 91.13,46.0406 91.202,45.9226 C91.274,45.8046 91.352,45.7236 91.437,45.6806 C91.521,45.6376 91.61,45.6216 91.704,45.6326 L93.362,45.8286 L94.019,40.2626 L92.362,40.0666 C92.268,40.0546 92.187,40.0216 92.12,39.9666 C92.053,39.9106 91.997,39.8196 91.954,39.6926 C91.911,39.5666 91.886,39.4026 91.878,39.2006 C91.87,38.9986 91.884,38.7466 91.919,38.4446 C91.954,38.1526 91.996,37.9086 92.045,37.7136 C92.095,37.5186 92.155,37.3656 92.227,37.2516 C92.298,37.1386 92.376,37.0606 92.461,37.0176 C92.545,36.9746 92.634,36.9586 92.728,36.9706 L94.385,37.1656 L94.556,35.7276 C94.705,34.4556 94.976,33.3746 95.367,32.4856 C95.757,31.5966 96.258,30.8866 96.87,30.3566 C97.483,29.8266 98.207,29.4706 99.042,29.2896 C99.877,29.1076 100.816,29.0786 101.859,29.2016 C102.317,29.2566 102.754,29.3426 103.168,29.4596 C103.582,29.5776 103.959,29.7176 104.3,29.8786 C104.64,30.0406 104.944,30.2196 105.211,30.4146 C105.479,30.6106 105.67,30.7836 105.784,30.9346 C105.898,31.0856 105.979,31.2086 106.026,31.3036 C106.073,31.3996 106.104,31.5136 106.12,31.6476 C106.136,31.7816 106.14,31.9436 106.134,32.1336 C106.127,32.3226 106.108,32.5526 106.076,32.8236 C106.042,33.1156 106,33.3596 105.95,33.5546 C105.901,33.7486 105.843,33.9036 105.777,34.0166 C105.71,34.1306 105.638,34.2096 105.558,34.2526 C105.479,34.2966 105.398,34.3136 105.315,34.3036 C105.169,34.2856 105.013,34.1936 104.848,34.0266 C104.683,33.8586 104.472,33.6726 104.216,33.4686 C103.96,33.2636 103.654,33.0656 103.295,32.8756 C102.937,32.6856 102.498,32.5596 101.976,32.4976 C101.455,32.4366 101.002,32.4706 100.617,32.5986 C100.232,32.7276 99.905,32.9426 99.637,33.2436 C99.369,33.5456 99.154,33.9316 98.993,34.4046 C98.831,34.8766 98.713,35.4266 98.64,36.0516 L98.451,37.6466 L102.657,38.1436 C102.751,38.1546 102.834,38.1906 102.906,38.2516 C102.978,38.3136 103.033,38.4076 103.071,38.5336 C103.109,38.6586 103.132,38.8236 103.14,39.0246 C103.147,39.2266 103.134,39.4736 103.099,39.7656 C103.064,40.0676 103.019,40.3156 102.964,40.5106 C102.91,40.7046 102.846,40.8586 102.775,40.9716 C102.703,41.0846 102.628,41.1606 102.55,41.1986 C102.471,41.2366 102.385,41.2506 102.291,41.2396 L98.085,40.7426 L97.427,46.3086 L104.245,47.1146 C104.339,47.1256 104.422,47.1616 104.494,47.2236 C104.566,47.2846 104.62,47.3816 104.658,47.5126 C104.695,47.6436 104.717,47.8126 104.724,48.0196 C104.732,48.2266 104.718,48.4816 104.682,48.7836" id="Fill-24" fill="#B6A30D"></path>
            <path d="M61.6254,84.914 C61.6254,98.28 50.7904,109.115 37.4244,109.115 C24.0594,109.115 13.2234,98.28 13.2234,84.914 C13.2234,71.548 24.0594,60.713 37.4244,60.713 C50.7904,60.713 61.6254,71.548 61.6254,84.914" id="Fill-26" fill="#F6DE81"></path>
            <path d="M61.6254,84.914 C61.6254,98.28 50.7904,109.115 37.4244,109.115 C24.0594,109.115 13.2234,98.28 13.2234,84.914 C13.2234,71.548 24.0594,60.713 37.4244,60.713 C50.7904,60.713 61.6254,71.548 61.6254,84.914 Z" id="Stroke-28" stroke="#FAF3D2" stroke-width="5" stroke-linecap="round"></path>
            <path d="M46.3422,91.5897 C46.4182,91.8737 46.4672,92.1187 46.4892,92.3237 C46.5112,92.5297 46.5112,92.7017 46.4882,92.8387 C46.4652,92.9747 46.4242,93.0777 46.3672,93.1477 C46.3092,93.2167 46.2352,93.2637 46.1442,93.2887 L33.9432,96.5447 C33.8512,96.5687 33.7632,96.5657 33.6792,96.5327 C33.5942,96.5017 33.5082,96.4327 33.4202,96.3257 C33.3322,96.2187 33.2462,96.0697 33.1632,95.8807 C33.0792,95.6917 33.0002,95.4537 32.9242,95.1707 C32.8462,94.8767 32.7932,94.6267 32.7652,94.4227 C32.7382,94.2177 32.7362,94.0477 32.7592,93.9107 C32.7822,93.7747 32.8252,93.6707 32.8882,93.5997 C32.9502,93.5277 33.0282,93.4807 33.1182,93.4567 L34.7312,93.0257 L33.2862,87.6107 L31.6732,88.0407 C31.5822,88.0647 31.4952,88.0637 31.4112,88.0367 C31.3282,88.0097 31.2432,87.9457 31.1562,87.8447 C31.0702,87.7427 30.9852,87.5997 30.9042,87.4147 C30.8212,87.2307 30.7412,86.9907 30.6632,86.6967 C30.5872,86.4127 30.5362,86.1717 30.5102,85.9717 C30.4842,85.7727 30.4832,85.6067 30.5082,85.4757 C30.5322,85.3437 30.5762,85.2427 30.6392,85.1717 C30.7012,85.1007 30.7782,85.0527 30.8692,85.0277 L32.4822,84.5977 L32.1092,83.1987 C31.7782,81.9617 31.6302,80.8577 31.6652,79.8867 C31.6992,78.9157 31.9032,78.0707 32.2762,77.3527 C32.6492,76.6327 33.1902,76.0357 33.8992,75.5577 C34.6082,75.0807 35.4702,74.7067 36.4842,74.4367 C36.9302,74.3177 37.3682,74.2357 37.7962,74.1927 C38.2242,74.1487 38.6272,74.1387 39.0032,74.1637 C39.3792,74.1887 39.7272,74.2417 40.0482,74.3247 C40.3682,74.4077 40.6102,74.4977 40.7722,74.5957 C40.9342,74.6937 41.0542,74.7787 41.1332,74.8497 C41.2122,74.9217 41.2832,75.0157 41.3482,75.1347 C41.4122,75.2537 41.4762,75.4027 41.5402,75.5807 C41.6042,75.7587 41.6712,75.9807 41.7412,76.2437 C41.8172,76.5277 41.8682,76.7697 41.8942,76.9687 C41.9202,77.1687 41.9242,77.3337 41.9042,77.4637 C41.8842,77.5937 41.8462,77.6937 41.7882,77.7627 C41.7312,77.8327 41.6622,77.8787 41.5802,77.9007 C41.4392,77.9377 41.2602,77.9097 41.0452,77.8147 C40.8292,77.7207 40.5652,77.6257 40.2512,77.5297 C39.9382,77.4337 39.5802,77.3637 39.1762,77.3187 C38.7742,77.2747 38.3192,77.3197 37.8112,77.4557 C37.3042,77.5907 36.8962,77.7897 36.5852,78.0517 C36.2752,78.3137 36.0512,78.6337 35.9132,79.0137 C35.7752,79.3927 35.7182,79.8317 35.7432,80.3297 C35.7672,80.8287 35.8612,81.3817 36.0232,81.9907 L36.4372,83.5427 L40.5302,82.4497 C40.6212,82.4257 40.7112,82.4287 40.8012,82.4597 C40.8902,82.4897 40.9762,82.5567 41.0582,82.6597 C41.1402,82.7627 41.2222,82.9067 41.3032,83.0907 C41.3852,83.2757 41.4642,83.5097 41.5402,83.7937 C41.6182,84.0887 41.6682,84.3357 41.6892,84.5367 C41.7102,84.7367 41.7092,84.9027 41.6842,85.0347 C41.6592,85.1667 41.6172,85.2647 41.5592,85.3287 C41.5002,85.3937 41.4252,85.4377 41.3342,85.4627 L37.2412,86.5547 L38.6872,91.9707 L45.3202,90.1997 C45.4112,90.1757 45.5012,90.1787 45.5912,90.2097 C45.6802,90.2397 45.7672,90.3087 45.8502,90.4177 C45.9332,90.5257 46.0162,90.6737 46.0992,90.8637 C46.1832,91.0537 46.2632,91.2957 46.3422,91.5897" id="Fill-30" fill="#B6A30D"></path>
            <path d="M86.5849,94.4838 L96.3239,96.2638" id="Stroke-32" stroke="#0074BB" stroke-width="5" stroke-linecap="round"></path>
            <path d="M122.5863,147.9755 L132.3253,150.7555" id="Stroke-34" stroke="#0074BB" stroke-width="5" stroke-linecap="round"></path>
            <path d="M42.9872,138.2206 L52.7292,136.4586" id="Stroke-36" stroke="#0074BB" stroke-width="5" stroke-linecap="round"></path>
        </g>
    </g>
</svg>