<svg id="ca4ffb00-dab4-4084-a53f-98d11d90c463" data-name="Layer 1" xmlns="http://www.w3.org/2000/svg" xmlns:xlink="http://www.w3.org/1999/xlink" viewBox="0 0 178.97 189.16">
  <defs>
    <mask id="cbfaff41-94e7-4209-834f-aea4806f8123" x="61.63" y="0" width="74.47" height="101.8" maskUnits="userSpaceOnUse">
      <g transform="translate(0 0)">
        <g id="fa1a2b7d-9fc9-44eb-a318-ee5174d85ffa" data-name="mask-2">
          <polygon id="98ee7640-05ff-45b9-8d87-dfe3e4c232b8" data-name="path-1" points="136.1 0 61.63 0 61.63 101.8 136.1 101.8 136.1 0" style="fill: #fff"/>
        </g>
      </g>
    </mask>
  </defs>
  <title>balloons</title>
  <g id="a3d605c7-482a-4c32-82fa-deb96aca1834" data-name="Page-1">
    <g>
      <path id="390767ec-1cf8-4dca-8ac1-bd7ceeaec2e4" data-name="Stroke-1" d="M116.72,186.66a161,161,0,0,0,9.5-35.5" transform="translate(0 0)" style="fill: none;stroke: #0074bb;stroke-linecap: round;stroke-width: 5px"/>
      <path id="5225eb11-6d90-4276-844c-df8fa9c7502a" data-name="Stroke-3" d="M90.34,98.41c.13.38-4,58.38,4.75,84.88" transform="translate(0 0)" style="fill: none;stroke: #0074bb;stroke-linecap: round;stroke-width: 5px"/>
      <path id="adec16c3-c7b5-4980-bf13-0064dbb8e02c" data-name="Stroke-5" d="M49.4,143.77a256.36,256.36,0,0,0,12.23,38.14" transform="translate(0 0)" style="fill: none;stroke: #0074bb;stroke-linecap: round;stroke-width: 5px"/>
      <g id="85c60b54-0961-46cd-9192-cd044cec9d05" data-name="Group-9">
        <g style="mask: url(#cbfaff41-94e7-4209-834f-aea4806f8123)">
          <path id="ed0d301e-a4b9-48e7-8ca1-2cc7bcad8aff" data-name="Fill-7" d="M95.13,96.78a13.87,13.87,0,0,1,9.12-7.14c15.22-3.88,28.07-18.94,31.16-38.56,3.91-24.82-9.28-47.52-29.46-50.71S66.23,14.73,62.31,39.56c-3.09,19.62,4.5,37.9,17.79,46.28a13.87,13.87,0,0,1,6.48,9.6l.28.26c-1.62.3-2.75,1-2.9,1.94-.26,1.64,2.44,3.42,6,4s6.71-.3,7-1.94c.15-1-.71-2-2.16-2.74Z" transform="translate(0 0)" style="fill: #f6de81"/>
        </g>
      </g>
      <path id="1a5a1fd3-01c8-471f-b6b3-dae55b980029" data-name="Fill-10" d="M131.13,151.07a13.87,13.87,0,0,1,9.93-6c15.58-2,30.21-15.3,35.72-34.38,7-24.14-3.29-48.31-22.93-54s-41.2,9.31-48.17,33.45c-5.51,19.08-.25,38.17,11.89,48.13a13.87,13.87,0,0,1,5.23,10.33l.24.29c-1.65.1-2.85.64-3.12,1.57-.46,1.59,2,3.7,5.49,4.71s6.69.53,7.15-1.06c.27-.93-.46-2-1.8-3Z" transform="translate(0 0)" style="fill: #eeca13"/>
      <path id="61cef0a3-2500-41d3-bbfc-0cce89991b66" data-name="Fill-12" d="M52.46,137.4a13.87,13.87,0,0,1,5.94-9.94c12.8-9.1,19.38-27.77,15.2-47.19-5.28-24.57-25.75-41-45.73-36.72S-4,71.24,1.25,95.81c4.17,19.42,17.83,33.74,33.24,36.78A13.87,13.87,0,0,1,44,139.22l.35.14c-1.4.86-2.2,1.91-2,2.85.35,1.62,3.51,2.32,7.06,1.55s6.15-2.7,5.8-4.31c-.2-.95-1.36-1.57-3-1.78Z" transform="translate(0 0)" style="fill: #eeca13"/>
      <path id="88d3e818-1da9-462e-a9be-8b88bba5e0d5" data-name="Fill-14" d="M166.17,100.92a24.2,24.2,0,1,1-16.75-29.85,24.2,24.2,0,0,1,16.75,29.85" transform="translate(0 0)" style="fill: #f6de81"/>
      <path id="e470585f-b6be-414a-88e8-43d1bdf533d6" data-name="Stroke-16" d="M166.17,100.92a24.2,24.2,0,1,1-16.75-29.85A24.2,24.2,0,0,1,166.17,100.92Z" transform="translate(0 0)" style="fill: none;stroke: #faf3d2;stroke-linecap: round;stroke-width: 5px"/>
      <path id="1f2cffbf-11c8-412b-ac44-fea35d5fb10f" data-name="Fill-18" d="M149.65,103.21a5.06,5.06,0,0,1-.06.75,1.86,1.86,0,0,1-.14.49.66.66,0,0,1-.2.27.42.42,0,0,1-.25.07l-12.63-.17a.41.41,0,0,1-.25-.08.66.66,0,0,1-.19-.27,1.91,1.91,0,0,1-.13-.5,5,5,0,0,1,0-.75,6.16,6.16,0,0,1,0-.76,1.76,1.76,0,0,1,.13-.49.63.63,0,0,1,.21-.27.46.46,0,0,1,.26-.08l1.67,0,.07-5.6-1.67,0a.46.46,0,0,1-.25-.07.59.59,0,0,1-.19-.25,1.75,1.75,0,0,1-.13-.48,5,5,0,0,1,0-.76,5.63,5.63,0,0,1,0-.74,1.62,1.62,0,0,1,.13-.48.63.63,0,0,1,.21-.26.47.47,0,0,1,.26-.07l1.67,0,0-1.45a11.42,11.42,0,0,1,.47-3.31A5.89,5.89,0,0,1,140,85.7a4.81,4.81,0,0,1,2-1.29A8.53,8.53,0,0,1,144.8,84a8.35,8.35,0,0,1,1.33.12,7.2,7.2,0,0,1,1.17.3,5.7,5.7,0,0,1,1,.44,2.86,2.86,0,0,1,.62.46,2.5,2.5,0,0,1,.28.34,1.07,1.07,0,0,1,.13.33,3.3,3.3,0,0,1,.06.48q0,.28,0,.69a5.84,5.84,0,0,1,0,.74,1.83,1.83,0,0,1-.12.48.61.61,0,0,1-.19.26.4.4,0,0,1-.24.07.83.83,0,0,1-.49-.23,7.43,7.43,0,0,0-.69-.49,5.88,5.88,0,0,0-1-.49,3.73,3.73,0,0,0-1.35-.24,3.13,3.13,0,0,0-1.34.24,2.23,2.23,0,0,0-.91.74,3.33,3.33,0,0,0-.52,1.22,8,8,0,0,0-.18,1.68l0,1.61,4.23.06a.46.46,0,0,1,.26.08.59.59,0,0,1,.19.26,2.07,2.07,0,0,1,.12.48,4.8,4.8,0,0,1,0,.74,5,5,0,0,1-.06.76,1.79,1.79,0,0,1-.14.48.59.59,0,0,1-.2.25.45.45,0,0,1-.25.07l-4.23-.06-.07,5.6,6.86.09a.47.47,0,0,1,.26.08.58.58,0,0,1,.19.27,2.14,2.14,0,0,1,.12.5,5.11,5.11,0,0,1,0,.76" transform="translate(0 0)" style="fill: #b6a30d"/>
      <path id="4c3e578e-1719-4bac-9a9f-0f91f092eb0c" data-name="Fill-20" d="M121.35,47.23A24.2,24.2,0,1,1,107.8,15.8a24.2,24.2,0,0,1,13.55,31.43" transform="translate(0 0)" style="fill: #f6de81"/>
      <path id="a9986c4e-7611-4695-8578-277d11261330" data-name="Stroke-22" d="M121.35,47.23A24.2,24.2,0,1,1,107.8,15.8,24.2,24.2,0,0,1,121.35,47.23Z" transform="translate(0 0)" style="fill: none;stroke: #faf3d2;stroke-linecap: round;stroke-width: 5px"/>
      <path id="26259bbb-0249-42eb-9a78-9a00c103ac51" data-name="Fill-24" d="M104.68,47.78a5.1,5.1,0,0,1-.14.74,1.89,1.89,0,0,1-.19.48.66.66,0,0,1-.23.24.42.42,0,0,1-.26,0L91.33,47.81a.42.42,0,0,1-.24-.11.66.66,0,0,1-.16-.29,2,2,0,0,1-.08-.51,5.14,5.14,0,0,1,0-.75A6.22,6.22,0,0,1,91,45.4a1.74,1.74,0,0,1,.18-.48.62.62,0,0,1,.23-.24.46.46,0,0,1,.27,0l1.66.2L94,39.26l-1.66-.2a.47.47,0,0,1-.24-.1.6.6,0,0,1-.17-.27,1.78,1.78,0,0,1-.08-.49,5,5,0,0,1,0-.76,6,6,0,0,1,.13-.73,1.63,1.63,0,0,1,.18-.46.62.62,0,0,1,.23-.23.45.45,0,0,1,.27,0l1.66.19.17-1.44a11.37,11.37,0,0,1,.81-3.24,5.89,5.89,0,0,1,1.5-2.13A4.82,4.82,0,0,1,99,28.29a9.22,9.22,0,0,1,4.13.17,7.4,7.4,0,0,1,1.13.42,5.7,5.7,0,0,1,.91.54,2.8,2.8,0,0,1,.57.52,2.52,2.52,0,0,1,.24.37,1.07,1.07,0,0,1,.09.34,3.32,3.32,0,0,1,0,.49q0,.28-.06.69a5.64,5.64,0,0,1-.13.73,1.82,1.82,0,0,1-.17.46.6.6,0,0,1-.22.24.39.39,0,0,1-.24.05.84.84,0,0,1-.47-.28,7.09,7.09,0,0,0-.63-.56,5.85,5.85,0,0,0-.92-.59A3.75,3.75,0,0,0,102,31.5a3.14,3.14,0,0,0-1.36.1,2.24,2.24,0,0,0-1,.65A3.35,3.35,0,0,0,99,33.4a7.94,7.94,0,0,0-.35,1.65l-.19,1.59,4.21.5a.46.46,0,0,1,.25.11.58.58,0,0,1,.17.28,2,2,0,0,1,.07.49,6,6,0,0,1-.18,1.49,1.77,1.77,0,0,1-.19.46.6.6,0,0,1-.22.23.46.46,0,0,1-.26,0l-4.21-.5-.66,5.57,6.82.81a.45.45,0,0,1,.25.11.58.58,0,0,1,.16.29,2.19,2.19,0,0,1,.07.51,5,5,0,0,1,0,.76" transform="translate(0 0)" style="fill: #b6a30d"/>
      <path id="1bd5060e-b498-47a0-9d84-e4d710b964a9" data-name="Fill-26" d="M61.63,83.91a24.2,24.2,0,1,1-24.2-24.2,24.2,24.2,0,0,1,24.2,24.2" transform="translate(0 0)" style="fill: #f6de81"/>
      <path id="d58af869-496f-4c1d-99c6-06514b63c743" data-name="Stroke-28" d="M61.63,83.91a24.2,24.2,0,1,1-24.2-24.2A24.2,24.2,0,0,1,61.63,83.91Z" transform="translate(0 0)" style="fill: none;stroke: #faf3d2;stroke-linecap: round;stroke-width: 5px"/>
      <path id="9b89fba3-550e-4fda-ab24-e4ff5591b173" data-name="Fill-30" d="M46.34,90.59a5,5,0,0,1,.15.73,2,2,0,0,1,0,.51.66.66,0,0,1-.12.31.43.43,0,0,1-.22.14l-12.2,3.26a.42.42,0,0,1-.26,0,.64.64,0,0,1-.26-.21,1.93,1.93,0,0,1-.26-.44,5,5,0,0,1-.24-.71,6.4,6.4,0,0,1-.16-.75,1.77,1.77,0,0,1,0-.51.62.62,0,0,1,.13-.31.45.45,0,0,1,.23-.14L34.73,92l-1.44-5.42L31.67,87a.46.46,0,0,1-.26,0,.6.6,0,0,1-.25-.19,1.78,1.78,0,0,1-.25-.43,4.77,4.77,0,0,1-.24-.72,5.75,5.75,0,0,1-.15-.72,1.61,1.61,0,0,1,0-.5.62.62,0,0,1,.13-.3.46.46,0,0,1,.23-.14l1.61-.43-.37-1.4a11.37,11.37,0,0,1-.44-3.31,5.88,5.88,0,0,1,.61-2.53,4.82,4.82,0,0,1,1.62-1.79,8.54,8.54,0,0,1,2.58-1.12,8.32,8.32,0,0,1,1.31-.24,7.18,7.18,0,0,1,1.21,0,5.68,5.68,0,0,1,1,.16,2.83,2.83,0,0,1,.72.27,2.48,2.48,0,0,1,.36.25,1.08,1.08,0,0,1,.22.28,3.35,3.35,0,0,1,.19.45c.06.18.13.4.2.66a5.79,5.79,0,0,1,.15.72,1.82,1.82,0,0,1,0,.5.6.6,0,0,1-.12.3.4.4,0,0,1-.21.14.83.83,0,0,1-.53-.09,7.55,7.55,0,0,0-.79-.28,5.92,5.92,0,0,0-1.08-.21,3.74,3.74,0,0,0-1.37.14,3.12,3.12,0,0,0-1.23.6,2.24,2.24,0,0,0-.67,1,3.34,3.34,0,0,0-.17,1.32A8,8,0,0,0,36,81l.41,1.55,4.09-1.09a.46.46,0,0,1,.27,0,.58.58,0,0,1,.26.2,2,2,0,0,1,.24.43,4.88,4.88,0,0,1,.24.7,5.07,5.07,0,0,1,.15.74,1.76,1.76,0,0,1,0,.5.6.6,0,0,1-.12.29.46.46,0,0,1-.22.13l-4.09,1.09L38.69,91l6.63-1.77a.46.46,0,0,1,.27,0,.57.57,0,0,1,.26.21,2.16,2.16,0,0,1,.25.45,5.14,5.14,0,0,1,.24.73" transform="translate(0 0)" style="fill: #b6a30d"/>
      <path id="1da01f98-567c-4437-abd3-d3eac0ac9034" data-name="Stroke-32" d="M86.58,93.48l9.74,1.78" transform="translate(0 0)" style="fill: none;stroke: #0074bb;stroke-linecap: round;stroke-width: 5px"/>
      <path id="95a3d074-33f2-412f-a56d-6c76f0d4c170" data-name="Stroke-34" d="M122.59,147l9.74,2.78" transform="translate(0 0)" style="fill: none;stroke: #0074bb;stroke-linecap: round;stroke-width: 5px"/>
      <path id="adf4ef73-b300-4756-aa30-ba10706df315" data-name="Stroke-36" d="M43,137.22l9.74-1.76" transform="translate(0 0)" style="fill: none;stroke: #0074bb;stroke-linecap: round;stroke-width: 5px"/>
    </g>
  </g>
</svg>
