<svg id="c43df608-f83b-4ea5-b7b6-b935ebe84ae8" data-name="Layer 1" xmlns="http://www.w3.org/2000/svg" viewBox="0 0 10.35 17.11">
  <title>chevron</title>
  <g id="5927e80c-01fc-49df-afa9-cb9f92b3739a" data-name="Layer 2">
    <g id="d3a8d5ec-6cef-40a5-94d0-8f66a7e3a48d" data-name="Layer 2-2">
      <path d="M.11,1.29,1.29.11a.38.38,0,0,1,.53,0l8.41,8.16a.38.38,0,0,1,0,.54h0L1.82,17a.38.38,0,0,1-.53,0L.11,15.8a.38.38,0,0,1,0-.54h0L6.76,8.81a.38.38,0,0,0,0-.54h0L.12,1.83a.38.38,0,0,1,0-.54Z" transform="translate(0 0)" style="fill: #ed1558"/>
    </g>
  </g>
</svg>
