<svg id="b7d06be9-1d77-4453-8a19-a641e1c1cbf4" data-name="Layer 1" xmlns="http://www.w3.org/2000/svg" xmlns:xlink="http://www.w3.org/1999/xlink" viewBox="0 0 429.5 323">
  <defs>
    <mask id="cd83641f-1a45-4166-95d5-04cd2a5d7453" x="0" y="0" width="429.5" height="213" maskUnits="userSpaceOnUse">
      <g transform="translate(0 0)">
        <g id="ce947a68-4211-4858-bd95-31c9f273fee4" data-name="mask-2">
          <polygon id="78e38a0a-bae2-4ec2-8cfa-4ffed038ac8d" data-name="path-1" points="429.5 213 429.5 0 0 0 0 213 429.5 213" style="fill: #fff"/>
        </g>
      </g>
    </mask>
    <mask id="6913969b-e44c-44a3-807c-20dc6d8b3829" x="0" y="213" width="429.5" height="59" maskUnits="userSpaceOnUse">
      <g transform="translate(0 0)">
        <g id="ae0e8f63-62b7-47d5-9820-8f6d9e684f9a" data-name="mask-4">
          <polygon id="7efd910b-7dbb-4d63-b215-e30373ac6497" data-name="path-3" points="429.5 272 429.5 213 0 213 0 272 429.5 272" style="fill: #fff"/>
        </g>
      </g>
    </mask>
  </defs>
  <title>computer</title>
  <g id="d20457d9-726d-4225-b62a-eebb1ff5cfe1" data-name="Page-1">
    <g id="85cf74e8-b3d8-4514-8c10-1df31805f42c" data-name="computer">
      <polygon id="f42f1017-51fa-4ae8-9e4e-5caee6a38391" data-name="Fill-1" points="239.81 272 214.75 272 189.69 272 174.12 311 214.75 311 255.37 311 239.81 272" style="fill: #6daadd"/>
      <g id="520edc3b-426e-4144-ae25-c1d09a3f651e" data-name="Group-22">
        <g id="a51fe7fc-550f-44d5-83eb-f98b778d52f9" data-name="Group-4">
          <g style="mask: url(#cd83641f-1a45-4166-95d5-04cd2a5d7453)">
            <path id="e79d5936-b798-4ca1-98f4-f7f5016e5928" data-name="Fill-2" d="M429.5,5.59A5.61,5.61,0,0,0,423.91,0H5.59A5.61,5.61,0,0,0,0,5.59V213H429.5Z" transform="translate(0 0)" style="fill: #0574ba"/>
          </g>
        </g>
        <g id="f7e52ca9-cb60-4e50-849d-88748787d921" data-name="Group-7">
          <g style="mask: url(#6913969b-e44c-44a3-807c-20dc6d8b3829)">
            <path id="9cf9d6e0-806b-407d-ac4a-379c06e3170f" data-name="Fill-5" d="M0,213v54.73A4.28,4.28,0,0,0,4.27,272h421a4.28,4.28,0,0,0,4.27-4.27V213Z" transform="translate(0 0)" style="fill: #82b5e2"/>
          </g>
        </g>
        <path id="b776b9a3-af13-4d19-a812-4a267d4bf09f" data-name="Fill-8" d="M266.75,323h-104a2,2,0,0,1-2-2v-8a2,2,0,0,1,2-2h104a2,2,0,0,1,2,2v8a2,2,0,0,1-2,2" transform="translate(0 0)" style="fill: #82b5e2"/>
        <path id="42cc7237-07db-49fc-a595-123cfb67d137" data-name="Fill-10" d="M207,99.72a20.12,20.12,0,1,0-35.12,0,25,25,0,0,0-7.51,17.88v32.91c0,2.23,11.22,4,25.07,4s25.07-1.8,25.07-4V117.61A25,25,0,0,0,207,99.72" transform="translate(0 0)" style="fill: #82b5e2"/>
        <path id="a05fcad1-35e2-4744-9c86-ddf0b493b68f" data-name="Fill-12" d="M255,95.48a27,27,0,1,0-47.09,0,33.51,33.51,0,0,0-10.07,24v44.13c0,3,15.05,5.41,33.61,5.41s33.61-2.42,33.61-5.41V119.46a33.51,33.51,0,0,0-10.07-24" transform="translate(0 0)" style="fill: #3eb6a8"/>
        <path id="6ced0847-15f9-4745-9ca0-7e206d30aeed" data-name="Fill-14" d="M283.14,156.31a26.25,26.25,0,1,1-26.25-26.25,26.25,26.25,0,0,1,26.25,26.25" transform="translate(0 0)" style="fill: #edc913"/>
        <path id="c5287345-3be1-4a68-9da9-09b7e6485d01" data-name="Fill-16" d="M269.22,153.53h-9.54V144a2.78,2.78,0,0,0-5.57,0v9.54h-9.54a2.78,2.78,0,0,0,0,5.57h9.54v9.54a2.78,2.78,0,0,0,5.57,0v-9.54h9.54a2.78,2.78,0,0,0,0-5.57" transform="translate(0 0)" style="fill: #fefefe"/>
        <path id="8a07d171-1e7b-4e24-97a1-15547fcb9d5c" data-name="Fill-18" d="M300.34,193.82h0a5.37,5.37,0,0,0-5.37,5.37,5.37,5.37,0,1,0-10.74,0,5.37,5.37,0,0,0-10.74,0v-28a5.45,5.45,0,0,0-5.17-5.49,5.37,5.37,0,0,0-5.56,5.36V206.9a3.12,3.12,0,0,1-5.33,2.21L254,205.65a5.45,5.45,0,0,0-7.54-.23,5.37,5.37,0,0,0-.14,7.73l16.47,16.47v3.17h43v-33.6a5.37,5.37,0,0,0-5.37-5.37" transform="translate(0 0)" style="fill: #fefefe"/>
        <path id="04304b44-a3ba-4596-a898-46bafe813791" data-name="Fill-20" d="M298.48,242.5H270a7.23,7.23,0,0,1-7.23-7.23v-2.48h43v2.48a7.23,7.23,0,0,1-7.23,7.23" transform="translate(0 0)" style="fill: #edc913"/>
      </g>
    </g>
  </g>
</svg>
