<svg id="43df2fbb-689f-4302-b82d-b928b4cd79b8" data-name="Layer 1" xmlns="http://www.w3.org/2000/svg" viewBox="0 0 466.83 352">
  <title>dials</title>
  <g id="8ae2ae81-36f1-4099-aebb-17e24a2db419" data-name="Page-1">
    <g id="10a2797f-1fa7-4c84-b2c3-a1aa48057983" data-name="dials">
      <path id="327f7299-35a0-4290-a314-4556693e51e9" data-name="Stroke-1" d="M25,8V344" style="fill: none;stroke: #0067a6;stroke-linecap: round;stroke-width: 16px"/>
      <path id="2e730cab-9e88-49cf-a550-385ec10564a1" data-name="Stroke-3" d="M133,8V344" style="fill: none;stroke: #0067a6;stroke-linecap: round;stroke-width: 16px"/>
      <path id="f9fb6641-61fb-42df-9689-98beb2ddea13" data-name="Stroke-5" d="M241,8V344" style="fill: none;stroke: #0067a6;stroke-linecap: round;stroke-width: 16px"/>
      <path id="2b634530-e163-4443-8824-fe757dcfeefb" data-name="Fill-7" d="M38,130.33H12a12,12,0,0,1-12-12V51.67a12,12,0,0,1,12-12H38a12,12,0,0,1,12,12v66.67a12,12,0,0,1-12,12" style="fill: #3eb6a8"/>
      <path id="ebd90c72-09ea-4178-89a1-72c64dc54b4f" data-name="Fill-9" d="M40.5,68.5H9.5a3,3,0,0,1,0-6h31a3,3,0,0,1,0,6" style="fill: #246eb6"/>
      <path id="a032afca-54ca-44aa-aa1b-d6ae4b3f92c2" data-name="Fill-11" d="M40.5,88H9.5a3,3,0,0,1,0-6h31a3,3,0,0,1,0,6" style="fill: #246eb6"/>
      <path id="6eb3730c-2087-445a-8210-95637415c073" data-name="Fill-13" d="M40.5,107.5H9.5a3,3,0,0,1,0-6h31a3,3,0,0,1,0,6" style="fill: #246eb6"/>
      <path id="d7516e81-c199-4902-96bd-2367b7ae9780" data-name="Fill-15" d="M146,252.83H120a12,12,0,0,1-12-12V174.17a12,12,0,0,1,12-12h26a12,12,0,0,1,12,12v66.67a12,12,0,0,1-12,12" style="fill: #3eb6a8"/>
      <path id="0e377ace-7c22-41f8-9997-3c12fe9163cf" data-name="Fill-17" d="M148.5,191h-31a3,3,0,0,1,0-6h31a3,3,0,0,1,0,6" style="fill: #246eb6"/>
      <path id="77b1318e-7f77-43e8-a6ae-e51c835ce6da" data-name="Fill-19" d="M148.5,210.5h-31a3,3,0,0,1,0-6h31a3,3,0,0,1,0,6" style="fill: #246eb6"/>
      <path id="f22d8a50-6583-45bc-952f-ede9ec3fdbd3" data-name="Fill-21" d="M148.5,230h-31a3,3,0,0,1,0-6h31a3,3,0,0,1,0,6" style="fill: #246eb6"/>
      <path id="3c65d84b-1fc0-486e-a1bd-42742ac18d74" data-name="Fill-23" d="M254,275.33H228a12,12,0,0,1-12-12V196.67a12,12,0,0,1,12-12h26a12,12,0,0,1,12,12v66.67a12,12,0,0,1-12,12" style="fill: #3eb6a8"/>
      <path id="2a364f73-02b3-4d35-90c2-32be0e61ff0d" data-name="Fill-25" d="M256.5,213.5h-31a3,3,0,0,1,0-6h31a3,3,0,0,1,0,6" style="fill: #246eb6"/>
      <path id="d9e1fd80-8323-436a-9008-744e5bab3060" data-name="Fill-27" d="M256.5,233h-31a3,3,0,0,1,0-6h31a3,3,0,0,1,0,6" style="fill: #246eb6"/>
      <path id="e25e3ce9-d965-4245-9d3f-b2490113268b" data-name="Fill-29" d="M256.5,252.5h-31a3,3,0,0,1,0-6h31a3,3,0,0,1,0,6" style="fill: #246eb6"/>
      <path id="a54b8c5c-951e-4b03-8b4f-ecd80cc81d25" data-name="Fill-31" d="M466.83,81.33A67.83,67.83,0,1,1,399,13.5a67.83,67.83,0,0,1,67.83,67.83" style="fill: #3eb6a8"/>
      <path id="4cf38eef-2ef8-4e8d-a886-7febd022f7f8" data-name="Fill-33" d="M447,81.33a48,48,0,1,1-48-48,48,48,0,0,1,48,48" style="fill: #246eb6"/>
      <path id="174d888d-8a15-4225-8ac5-0ce814cb91b0" data-name="Fill-35" d="M440.14,81.33A41.14,41.14,0,1,1,399,40.19a41.14,41.14,0,0,1,41.14,41.14" style="fill: #82b5e2"/>
      <path id="9daed0fe-869f-4f6a-96c1-22456f70ac79" data-name="Stroke-37" d="M457,81.33a58,58,0,1,1-58-58A58,58,0,0,1,457,81.33Z" style="fill: none;stroke: #0067a6;stroke-linecap: round;stroke-width: 6px;stroke-dasharray: 0,20.240999221801758"/>
      <path id="698a42ee-e0e4-402d-8fb3-3db8808108e9" data-name="Fill-39" d="M396,72.5v-20a3,3,0,0,1,6,0v20a3,3,0,0,1-6,0" style="fill: #246eb6"/>
      <path id="21ee9f91-9435-44bf-9927-d53aba18bcee" data-name="Fill-41" d="M466.83,270.67A67.83,67.83,0,1,1,399,202.83a67.83,67.83,0,0,1,67.83,67.83" style="fill: #3eb6a8"/>
      <path id="c4008148-2f12-4648-8311-93d65f51ce60" data-name="Fill-43" d="M447,270.67a48,48,0,1,1-48-48,48,48,0,0,1,48,48" style="fill: #246eb6"/>
      <path id="06f6f801-e959-44b2-8a56-e58600ce92c5" data-name="Fill-45" d="M358.27,276.45a41.14,41.14,0,1,1,46.51,35,41.14,41.14,0,0,1-46.51-35" style="fill: #82b5e2"/>
      <path id="68710cb1-9951-455c-b959-eeccb0fe5f21" data-name="Stroke-47" d="M457,270.67a58,58,0,1,1-58-58A58,58,0,0,1,457,270.67Z" style="fill: none;stroke: #0067a6;stroke-linecap: round;stroke-width: 6px;stroke-dasharray: 0,20.240999221801758"/>
      <path id="7d473bfb-0418-4206-91fa-2cf61944a6fe" data-name="Fill-49" d="M403.21,279l2.81,19.8a3,3,0,0,1-5.94.84l-2.81-19.8a3,3,0,1,1,5.94-.84" style="fill: #246eb6"/>
    </g>
  </g>
</svg>
