<svg id="910c407e-c1ab-47b7-9d7e-53fa9d18405b" data-name="Layer 1" xmlns="http://www.w3.org/2000/svg" xmlns:xlink="http://www.w3.org/1999/xlink" viewBox="0 0 71.18 35.39">
  <defs>
    <mask id="e275cf67-7123-4e07-9e4c-3b119d3dbf5f" x="0" y="0" width="71.18" height="35.39" maskUnits="userSpaceOnUse">
      <g transform="translate(0 0)">
        <g id="08e8bf57-addb-4daa-807e-d5cab4e58bef" data-name="mask-2">
          <polygon id="7f24246c-2634-4d45-912b-1c99addd48fb" data-name="path-1" points="0 17.69 0 35.39 71.18 35.39 71.18 17.69 71.18 0 0 0 0 17.69" style="fill: #fff"/>
        </g>
      </g>
    </mask>
  </defs>
  <title>fsc-scheme</title>
  <g id="46d1345b-af66-408b-97c8-9272d7aad43d" data-name="Page-1">
    <g style="mask: url(#e275cf67-7123-4e07-9e4c-3b119d3dbf5f)">
      <path id="1f1d28f5-7fe7-414b-b7f5-de7c98176544" data-name="Fill-1" d="M33.59,4.68a7.67,7.67,0,0,0-2.87-.78c-3.14,0-5.82,2.54-7.93,7.61h6.46l-1.75,3.43h-6l-3.69,9Q12.7,35.39,3.51,35.39A6.84,6.84,0,0,1,0,34.6l1.89-3.89a7.71,7.71,0,0,0,2.88.78q4.7,0,7.87-7.6L13.85,21H.41l1.77-3.41h13l1.1-2.61H5L6.73,11.5H17.66Q22.77,0,32,0a9,9,0,0,1,4,1l-2.43,3.7m7.46,7.48a4.46,4.46,0,0,0-3.17-1.39,3.54,3.54,0,0,0-2,.59,2,2,0,0,0-.93,1.56,1.61,1.61,0,0,0,.41,1.22,6.12,6.12,0,0,0,1.59,1.14L39,16.46a3.41,3.41,0,0,1,1.42,1.39,3.47,3.47,0,0,1,.39,1.85,5.42,5.42,0,0,1-2.16,4.19,7.93,7.93,0,0,1-5,1.54,8.27,8.27,0,0,1-4.6-1.3l1.69-2.78a5.34,5.34,0,0,0,1.67,1.1,4.73,4.73,0,0,0,1.9.5,3.63,3.63,0,0,0,2.31-.74,2.62,2.62,0,0,0,1-2,1.58,1.58,0,0,0-.41-1.15,6.51,6.51,0,0,0-1.56-1.17l-2.11-1.2a3.62,3.62,0,0,1-1.42-1.44,3.51,3.51,0,0,1-.4-1.86,4.73,4.73,0,0,1,2-3.69,7.26,7.26,0,0,1,4.47-1.4,10.58,10.58,0,0,1,4.28,1.14l-1.47,2.72m15.73-.53a4.56,4.56,0,0,0-2.94-.86A5.92,5.92,0,0,0,49.12,13,9.13,9.13,0,0,0,47,18.53a4.23,4.23,0,0,0,1,3.2,3.28,3.28,0,0,0,2.52,1.19,8,8,0,0,0,4.38-1.38l-.5,3a11.22,11.22,0,0,1-4.48.89,5.8,5.8,0,0,1-4.59-1.75A6.23,6.23,0,0,1,44,19a12,12,0,0,1,3-7.72,8.84,8.84,0,0,1,6.77-3,7,7,0,0,1,3.69.82l-.67,2.5m12.93.53a4.47,4.47,0,0,0-3.18-1.39,3.52,3.52,0,0,0-2,.59,2,2,0,0,0-.93,1.56A1.61,1.61,0,0,0,64,14.15a6.24,6.24,0,0,0,1.59,1.14l2.1,1.17a3.43,3.43,0,0,1,1.42,1.39,3.46,3.46,0,0,1,.39,1.85,5.41,5.41,0,0,1-2.16,4.19,7.92,7.92,0,0,1-5,1.54,8.27,8.27,0,0,1-4.6-1.3l1.68-2.78a5.33,5.33,0,0,0,1.67,1.1A4.74,4.74,0,0,0,63,23a3.61,3.61,0,0,0,2.31-.74,2.62,2.62,0,0,0,1-2,1.56,1.56,0,0,0-.41-1.15,6.59,6.59,0,0,0-1.56-1.17l-2.11-1.2a3.61,3.61,0,0,1-1.42-1.44,3.53,3.53,0,0,1-.4-1.86,4.73,4.73,0,0,1,2-3.69,7.26,7.26,0,0,1,4.47-1.4,10.58,10.58,0,0,1,4.28,1.14l-1.46,2.72" transform="translate(0 0)" style="fill: #692772"/>
    </g>
  </g>
</svg>
