<svg id="651b30e0-856d-4146-815e-a17ec693be65" data-name="Layer 1" xmlns="http://www.w3.org/2000/svg" xmlns:xlink="http://www.w3.org/1999/xlink" viewBox="0 0 989.74 148.87">
  <defs>
    <mask id="841ddaf6-129a-458d-a1b8-f0baacdfbc97" x="0" y="15" width="103.84" height="133.87" maskUnits="userSpaceOnUse">
      <g transform="translate(-0.74 -0.16)">
        <g id="b8bbd515-6694-48b8-b08c-aff39256c198" data-name="mask-2">
          <polygon id="553ba365-98be-448d-b0bf-eaaa39359d29" data-name="path-1" points="0.74 149.02 104.58 149.02 104.58 15.16 0.74 15.16 0.74 149.02" style="fill: #fff"/>
        </g>
      </g>
    </mask>
    <mask id="eaad4344-51ca-4566-970a-ab089e87edb7" x="187.93" y="84" width="39.33" height="39.33" maskUnits="userSpaceOnUse">
      <g transform="translate(-0.74 -0.16)">
        <g id="71ca5af1-e957-49d2-b7c5-94fd74f1c670" data-name="mask-24">
          <polygon id="a17eca26-1463-4084-aa9b-f371b67dc8a2" data-name="path-23" points="208.33 84.16 228 84.16 228 123.49 188.66 123.49 188.66 84.16 208.33 84.16" style="fill: #fff"/>
        </g>
      </g>
    </mask>
    <mask id="1041ebd0-70fe-4992-b436-1bdeb5deaa88" x="908.61" y="84" width="39.33" height="39.33" maskUnits="userSpaceOnUse">
      <g transform="translate(-0.74 -0.16)">
        <g id="50356299-ab8b-40f9-a207-627e57505667" data-name="mask-26">
          <polygon id="bcea7bbf-a974-4b21-b081-4aff2dd2e384" data-name="path-25" points="929.01 84.16 948.68 84.16 948.68 123.49 909.34 123.49 909.34 84.16 929.01 84.16" style="fill: #fff"/>
        </g>
      </g>
    </mask>
    <mask id="0d2f05e0-3469-4c83-8fe0-2ee953211134" x="961.82" y="102.71" width="27.92" height="27.92" maskUnits="userSpaceOnUse">
      <g transform="translate(-0.74 -0.16)">
        <g id="57e4d839-2b6a-4f48-a20b-1d788e80631d" data-name="mask-28">
          <polygon id="eca36e0d-d4f2-4f2d-a0fa-e5f662171dc5" data-name="path-27" points="976.52 102.87 990.48 102.87 990.48 130.79 962.56 130.79 962.56 102.87 976.52 102.87" style="fill: #fff"/>
        </g>
      </g>
    </mask>
    <mask id="5a5b5c7d-c868-46c6-b853-0a911a8b8b83" x="321.28" y="106.94" width="17.65" height="21.74" maskUnits="userSpaceOnUse">
      <g transform="translate(-0.74 -0.16)">
        <g id="dd13c37a-beca-4a67-ad76-0367d6142990" data-name="mask-32">
          <polygon id="cda2cc14-fc41-4f3b-999b-f25a9a7832e8" data-name="path-31" points="322.02 128.84 322.02 107.1 339.67 107.1 339.67 128.84 322.02 128.84" style="fill: #fff"/>
        </g>
      </g>
    </mask>
    <mask id="fd81f750-c5b6-4240-b4e5-29d46765661b" x="327.43" y="97" width="18.83" height="23.2" maskUnits="userSpaceOnUse">
      <g transform="translate(-0.74 -0.16)">
        <g id="0c26f8bd-a49c-4ff8-a0d0-9fab2608e71b" data-name="mask-34">
          <polygon id="841e9284-56e3-4b03-be79-fc5f1e9d0d90" data-name="path-33" points="328.17 97.16 347 97.16 347 120.35 328.17 120.35 328.17 97.16" style="fill: #fff"/>
        </g>
      </g>
    </mask>
    <mask id="7b2f18e0-561b-45c6-b8da-c0e966ad57fc" x="412.94" y="125.83" width="47" height="12.66" maskUnits="userSpaceOnUse">
      <g transform="translate(-0.74 -0.16)">
        <g id="c48a7584-3d4e-41a3-9929-4a6530215c4f" data-name="mask-36">
          <polygon id="4a8084e0-faaa-4a5f-86dc-cb8dfb32ef51" data-name="path-35" points="413.68 125.99 413.68 138.65 460.68 138.65 460.68 125.99 413.68 125.99" style="fill: #fff"/>
        </g>
      </g>
    </mask>
    <mask id="09422c2a-5c29-4322-b71e-bb911db31a1a" x="412.94" y="122.33" width="47" height="7" maskUnits="userSpaceOnUse">
      <g transform="translate(-0.74 -0.16)">
        <g id="a1476c65-b433-4b80-8800-5812c2ae8847" data-name="mask-38">
          <polygon id="021c3312-f794-4a76-a96d-13b02e978f4b" data-name="path-37" points="413.68 129.49 413.68 122.49 460.68 122.49 460.68 129.49 413.68 129.49" style="fill: #fff"/>
        </g>
      </g>
    </mask>
    <mask id="0dd360e6-e7c5-4eab-bd45-66ae95970364" x="647.59" y="0" width="83.63" height="148.49" maskUnits="userSpaceOnUse">
      <g transform="translate(-0.74 -0.16)">
        <g id="91888711-1aa3-43b7-bab6-cf73bbf5b4e0" data-name="mask-40">
          <polygon id="7ddfa808-e321-4295-8b8e-c51c6c65828d" data-name="path-39" points="648.32 148.65 731.95 148.65 731.95 0.16 648.32 0.16 648.32 148.65" style="fill: #fff"/>
        </g>
      </g>
    </mask>
    <mask id="687d34a2-1fe9-4e8c-9927-0fac40c9de5d" x="756.35" y="15" width="103.84" height="133.87" maskUnits="userSpaceOnUse">
      <g transform="translate(-0.74 -0.16)">
        <g id="086cbb55-726b-4a42-8f40-20af62bf8637" data-name="mask-70">
          <polygon id="a49cc4bd-0151-4c74-a5d3-a9efefbebfa8" data-name="path-69" points="757.09 149.02 860.93 149.02 860.93 15.16 757.09 15.16 757.09 149.02" style="fill: #fff"/>
        </g>
      </g>
    </mask>
  </defs>
  <title>hero-houses</title>
  <g id="ac61bed1-80b3-444c-a345-efb9f2f54ef9" data-name="Page-1">
    <g id="7f16153a-db51-412c-ad2e-1d8b0fabf1cb" data-name="hero-houses">
      <g id="79711e20-1073-45a8-9ec7-15b8626c3300" data-name="Page-1">
        <polygon id="bc1d4f05-64df-45af-b41f-dacb2f912a71" data-name="Fill-1" points="51.92 20.87 9.67 57.87 9.67 78 56.44 37.03 94.17 70.07 94.17 57.87 51.92 20.87" style="fill: #106fae"/>
        <polygon id="5158e08a-4819-488c-9977-100aebc75c20" data-name="Fill-2" points="9.67 78 9.67 148.87 94.17 148.87 94.17 70.07 56.44 37.03 9.67 78" style="fill: #08aca6"/>
        <g id="bedb87ab-9cd1-4628-b467-8d5bb4b1aa69" data-name="Group-17">
          <path id="bdfde791-4055-48e4-8455-510268957449" data-name="Fill-3" d="M5.13,66.56A2.05,2.05,0,0,0,8,66.75L52.66,27.67,97.29,66.75a2.05,2.05,0,0,0,2.89-.19l3.89-4.44a2.05,2.05,0,0,0-.19-2.9L54.22,15.74a2.37,2.37,0,0,0-3.12,0L1.44,59.23a2.05,2.05,0,0,0-.19,2.9Z" transform="translate(-0.74 -0.16)" style="fill: #d30b50"/>
          <g id="73dd359f-b90f-499f-a2b8-a39d72d3a370" data-name="Fill-5-Clipped">
            <g style="mask: url(#841ddaf6-129a-458d-a1b8-f0baacdfbc97)">
              <polygon id="11e0072f-f64b-434f-8283-7132033441fc" data-name="Fill-5" points="39.31 148.87 64.53 148.87 64.53 104.37 39.31 104.37 39.31 148.87" style="fill: #106fae"/>
            </g>
          </g>
          <g id="192a0694-1174-4107-bce7-fb01467028b4" data-name="Fill-7-Clipped">
            <g style="mask: url(#841ddaf6-129a-458d-a1b8-f0baacdfbc97)">
              <path id="a0a9f41b-37a2-4613-a289-e086147ed3b1" data-name="Fill-7" d="M52.66,110.59a6.19,6.19,0,1,0,6.19,6.19,6.19,6.19,0,0,0-6.19-6.19" transform="translate(-0.74 -0.16)" style="fill: #fff"/>
            </g>
          </g>
          <g id="849e19e4-b00f-4325-8fe7-9e689176a1bb" data-name="Stroke-8-Clipped">
            <g style="mask: url(#841ddaf6-129a-458d-a1b8-f0baacdfbc97)">
              <path id="b5c15a95-803b-4bd4-8c08-d3653a216ec9" data-name="Stroke-8" d="M34,82.74a6.19,6.19,0,1,0,6.19,6.19A6.19,6.19,0,0,0,34,82.74Z" transform="translate(-0.74 -0.16)" style="fill: none;stroke: #106fae;stroke-width: 3px"/>
            </g>
          </g>
          <g id="a5f51ced-7564-4080-9f71-d415f9a8f9f9" data-name="Stroke-9-Clipped">
            <g style="mask: url(#841ddaf6-129a-458d-a1b8-f0baacdfbc97)">
              <path id="434ca4cf-a276-42c9-a129-9731b4546188" data-name="Stroke-9" d="M71.32,82.74a6.19,6.19,0,1,0,6.19,6.19A6.19,6.19,0,0,0,71.32,82.74Z" transform="translate(-0.74 -0.16)" style="fill: none;stroke: #106fae;stroke-width: 3px"/>
            </g>
          </g>
          <g id="b4efb0fa-5268-40c9-a4ce-558a213aba62" data-name="Stroke-10-Clipped">
            <g style="mask: url(#841ddaf6-129a-458d-a1b8-f0baacdfbc97)">
              <path id="3284a586-b52e-4bb3-8def-9c568412a806" data-name="Stroke-10" d="M52.66,59.89a6.19,6.19,0,1,0,6.19,6.19A6.19,6.19,0,0,0,52.66,59.89Z" transform="translate(-0.74 -0.16)" style="fill: none;stroke: #106fae;stroke-width: 3px"/>
            </g>
          </g>
          <g id="1d886d32-630e-4ff4-9126-a5537688792b" data-name="Stroke-11-Clipped">
            <g style="mask: url(#841ddaf6-129a-458d-a1b8-f0baacdfbc97)">
              <path id="30b9d287-9adb-40fa-8b9a-c10c29a5eed4" data-name="Stroke-11" d="M52.66,59.89V72.26" transform="translate(-0.74 -0.16)" style="fill: none;stroke: #106fae;stroke-width: 3px"/>
            </g>
          </g>
          <g id="e7b29d67-90e3-476b-b72b-3c5e046cc499" data-name="Stroke-12-Clipped">
            <g style="mask: url(#841ddaf6-129a-458d-a1b8-f0baacdfbc97)">
              <path id="fdd704be-66b8-466f-889f-250e19e870a2" data-name="Stroke-12" d="M58.84,66.08H46.47" transform="translate(-0.74 -0.16)" style="fill: none;stroke: #106fae;stroke-width: 3px"/>
            </g>
          </g>
          <g id="09b17c09-c532-4f98-9564-cda44d52fc3a" data-name="Stroke-13-Clipped">
            <g style="mask: url(#841ddaf6-129a-458d-a1b8-f0baacdfbc97)">
              <path id="9c1289f7-6a26-4058-a610-de63c679881f" data-name="Stroke-13" d="M34,82.74V95.11" transform="translate(-0.74 -0.16)" style="fill: none;stroke: #106fae;stroke-width: 3px"/>
            </g>
          </g>
          <g id="f4e4485c-b007-4da2-ae87-a23e4e352669" data-name="Stroke-14-Clipped">
            <g style="mask: url(#841ddaf6-129a-458d-a1b8-f0baacdfbc97)">
              <path id="39a6b37c-a1ac-4592-8adc-07260124b0ce" data-name="Stroke-14" d="M40.18,88.92H27.8" transform="translate(-0.74 -0.16)" style="fill: none;stroke: #106fae;stroke-width: 3px"/>
            </g>
          </g>
          <g id="6b382297-c9d1-4d20-983a-75addce58905" data-name="Stroke-15-Clipped">
            <g style="mask: url(#841ddaf6-129a-458d-a1b8-f0baacdfbc97)">
              <path id="578f2896-5b0e-4aed-9158-12335ea0675c" data-name="Stroke-15" d="M71.32,82.74V95.11" transform="translate(-0.74 -0.16)" style="fill: none;stroke: #106fae;stroke-width: 3px"/>
            </g>
          </g>
          <g id="cf4855ac-71fc-4445-acf6-235d6b6bdd0b" data-name="Stroke-16-Clipped">
            <g style="mask: url(#841ddaf6-129a-458d-a1b8-f0baacdfbc97)">
              <path id="717c2f59-bf82-47bf-9fdd-d95b27ea5b37" data-name="Stroke-16" d="M77.51,88.92H65.14" transform="translate(-0.74 -0.16)" style="fill: none;stroke: #106fae;stroke-width: 3px"/>
            </g>
          </g>
        </g>
      </g>
      <g id="2d3b5d8b-ca05-45c3-b195-549af1332174" data-name="Page-1">
        <path id="a5cc0662-40fa-4a1d-bbe7-b5a1e7c1e009" data-name="Fill-1" d="M210.75,148.57h-4.84a1.25,1.25,0,0,1-1.24-1.25V114.91H212v32.42a1.25,1.25,0,0,1-1.25,1.25" transform="translate(-0.74 -0.16)" style="fill: #e3db7c"/>
        <g id="36d7c389-9bdf-42e5-bf71-f4d228ed4c78" data-name="Group-5">
          <g id="404361c5-03d4-48f0-ab91-3a14b308cb3d" data-name="Fill-3-Clipped">
            <g style="mask: url(#eaad4344-51ca-4566-970a-ab089e87edb7)">
              <path id="4052a3d0-46c5-41c9-b7fb-8d0c5a457def" data-name="Fill-3" d="M228,103.82a19.67,19.67,0,1,1-19.67-19.67A19.67,19.67,0,0,1,228,103.82" transform="translate(-0.74 -0.16)" style="fill: #106fae"/>
            </g>
          </g>
        </g>
        <path id="5112482b-d871-49da-a597-c8bf28ff7888" data-name="Fill-6" d="M198.08,99.74A1.75,1.75,0,1,1,196.33,98a1.75,1.75,0,0,1,1.75,1.75" transform="translate(-0.74 -0.16)" style="fill: #e3db7c"/>
        <path id="f9d07a82-ff2b-4ba1-a90b-29b96ff6855a" data-name="Fill-8" d="M203.75,91A1.75,1.75,0,1,1,202,89.24,1.75,1.75,0,0,1,203.75,91" transform="translate(-0.74 -0.16)" style="fill: #e3db7c"/>
        <path id="ea9bb95c-a9f3-4395-af3d-3ecde53c1168" data-name="Fill-10" d="M213.75,106.91a1.75,1.75,0,1,1-1.75-1.75,1.75,1.75,0,0,1,1.75,1.75" transform="translate(-0.74 -0.16)" style="fill: #e3db7c"/>
        <path id="a36aa533-45ee-4210-98ea-56692fb6f104" data-name="Fill-12" d="M215.5,91.55a1.75,1.75,0,1,1-1.75-1.75,1.75,1.75,0,0,1,1.75,1.75" transform="translate(-0.74 -0.16)" style="fill: #e3db7c"/>
        <path id="e0044eb4-1d2e-4a09-a975-d1142e2905a6" data-name="Fill-14" d="M221,101.3a1.55,1.55,0,1,1-1.55-1.55A1.55,1.55,0,0,1,221,101.3" transform="translate(-0.74 -0.16)" style="fill: #e3db7c"/>
        <path id="a77cee32-3137-4ff8-a3b0-48b83fa9cf14" data-name="Fill-16" d="M219.48,115.41a1.55,1.55,0,1,1-1.55-1.55,1.55,1.55,0,0,1,1.55,1.55" transform="translate(-0.74 -0.16)" style="fill: #e3db7c"/>
        <path id="06e8bfac-7f37-4067-9da9-91c0c133822a" data-name="Fill-18" d="M202.75,107.13a1.75,1.75,0,1,1-1.75-1.75,1.75,1.75,0,0,1,1.75,1.75" transform="translate(-0.74 -0.16)" style="fill: #e3db7c"/>
        <path id="81c2bef0-6a3e-4e92-8221-eba2fc62f969" data-name="Fill-20" d="M204.3,117a1.55,1.55,0,1,1-1.55-1.55A1.55,1.55,0,0,1,204.3,117" transform="translate(-0.74 -0.16)" style="fill: #e3db7c"/>
      </g>
      <g id="d372287e-8a55-4117-a9f4-2141c0d69574" data-name="Page-1">
        <path id="5ace78e0-4e5f-43db-bd2a-a68386fa470c" data-name="Fill-1" d="M931.43,148.57h-4.84a1.25,1.25,0,0,1-1.24-1.25V114.91h7.33v32.42a1.25,1.25,0,0,1-1.25,1.25" transform="translate(-0.74 -0.16)" style="fill: #e3db7c"/>
        <g id="5d5461eb-8597-4e55-9ed3-4fce41b5b9e1" data-name="Group-5">
          <g id="40b8e03e-9658-4675-8a5b-9760a25d806d" data-name="Fill-3-Clipped">
            <g style="mask: url(#1041ebd0-70fe-4992-b436-1bdeb5deaa88)">
              <path id="c5d321ec-7b18-4153-8e0b-8e7e67bc3b8c" data-name="Fill-3" d="M948.68,103.82A19.67,19.67,0,1,1,929,84.16a19.67,19.67,0,0,1,19.67,19.67" transform="translate(-0.74 -0.16)" style="fill: #106fae"/>
            </g>
          </g>
        </g>
        <path id="48c52d3a-cc46-4997-aa76-3c5b5fa415aa" data-name="Fill-6" d="M918.76,99.74A1.75,1.75,0,1,1,917,98a1.75,1.75,0,0,1,1.75,1.75" transform="translate(-0.74 -0.16)" style="fill: #e3db7c"/>
        <path id="8e40a37a-f4d7-44b3-96cc-33e49e0429b9" data-name="Fill-8" d="M924.43,91a1.75,1.75,0,1,1-1.75-1.75A1.75,1.75,0,0,1,924.43,91" transform="translate(-0.74 -0.16)" style="fill: #e3db7c"/>
        <path id="f33aa430-ceef-4332-bd73-269a8d5122dc" data-name="Fill-10" d="M934.43,106.91a1.75,1.75,0,1,1-1.75-1.75,1.75,1.75,0,0,1,1.75,1.75" transform="translate(-0.74 -0.16)" style="fill: #e3db7c"/>
        <path id="f3eb2c1e-cdfb-4201-ba04-b1f5c6484b47" data-name="Fill-12" d="M936.18,91.55a1.75,1.75,0,1,1-1.75-1.75,1.75,1.75,0,0,1,1.75,1.75" transform="translate(-0.74 -0.16)" style="fill: #e3db7c"/>
        <path id="35044e50-89e4-4f09-9472-bf239fc87658" data-name="Fill-14" d="M941.71,101.3a1.55,1.55,0,1,1-1.55-1.55,1.55,1.55,0,0,1,1.55,1.55" transform="translate(-0.74 -0.16)" style="fill: #e3db7c"/>
        <path id="7f9c652b-5a7b-4b36-abac-c4df1a2db498" data-name="Fill-16" d="M940.16,115.41a1.55,1.55,0,1,1-1.55-1.55,1.55,1.55,0,0,1,1.55,1.55" transform="translate(-0.74 -0.16)" style="fill: #e3db7c"/>
        <path id="b521999e-39ac-44c0-8cc1-fa3a3bd6cd68" data-name="Fill-18" d="M923.43,107.13a1.75,1.75,0,1,1-1.75-1.75,1.75,1.75,0,0,1,1.75,1.75" transform="translate(-0.74 -0.16)" style="fill: #e3db7c"/>
        <path id="0107bd78-361e-479c-b876-31e1bcf375d6" data-name="Fill-20" d="M925,117a1.55,1.55,0,1,1-1.55-1.55A1.55,1.55,0,0,1,925,117" transform="translate(-0.74 -0.16)" style="fill: #e3db7c"/>
      </g>
      <g id="5b7d1664-6bf8-4c41-8e14-77388b29641e" data-name="Page-1">
        <path id="8be42d41-1362-4d27-9199-ee880e907498" data-name="Fill-1" d="M978.24,148.59H974.8a.88.88,0,0,1-.88-.88v-23h5.21v23a.88.88,0,0,1-.88.88" transform="translate(-0.74 -0.16)" style="fill: #e3db7c"/>
        <g id="ab5fa873-3bae-4c94-b696-6ab6ff5c0b7e" data-name="Group-5">
          <g id="3fb55cd7-f5a0-480e-8b70-995fa8a3b43d" data-name="Fill-3-Clipped">
            <g style="mask: url(#0d2f05e0-3469-4c83-8fe0-2ee953211134)">
              <path id="e48c0a7b-ae61-4054-8432-3683c9d1ab17" data-name="Fill-3" d="M990.48,116.83a14,14,0,1,1-14-14,14,14,0,0,1,14,14" transform="translate(-0.74 -0.16)" style="fill: #106fae"/>
            </g>
          </g>
        </g>
        <path id="9b3280d0-0808-44fa-8a46-056c0d8260e5" data-name="Fill-6" d="M969.24,113.93a1.24,1.24,0,1,1-1.24-1.24,1.24,1.24,0,0,1,1.24,1.24" transform="translate(-0.74 -0.16)" style="fill: #e3db7c"/>
        <path id="00a4b501-3a76-4b7a-a475-9b9bfc1fba70" data-name="Fill-8" d="M973.27,107.72a1.24,1.24,0,1,1-1.24-1.24,1.24,1.24,0,0,1,1.24,1.24" transform="translate(-0.74 -0.16)" style="fill: #e3db7c"/>
        <path id="bf17260d-023c-423d-b721-7dd608c91b67" data-name="Fill-10" d="M980.36,119a1.24,1.24,0,1,1-1.24-1.24,1.24,1.24,0,0,1,1.24,1.24" transform="translate(-0.74 -0.16)" style="fill: #e3db7c"/>
        <path id="c0d0096f-ac4e-4b78-9e64-6826c203c3fb" data-name="Fill-12" d="M981.61,108.11a1.24,1.24,0,1,1-1.24-1.24,1.24,1.24,0,0,1,1.24,1.24" transform="translate(-0.74 -0.16)" style="fill: #e3db7c"/>
        <path id="a5c67ad0-df17-48ec-9030-bc2ffdd31469" data-name="Fill-14" d="M985.53,115a1.1,1.1,0,1,1-1.1-1.1,1.1,1.1,0,0,1,1.1,1.1" transform="translate(-0.74 -0.16)" style="fill: #e3db7c"/>
        <path id="cb9de82f-4264-4964-b423-3ad4edbc0bcc" data-name="Fill-16" d="M984.43,125a1.1,1.1,0,1,1-1.1-1.1,1.1,1.1,0,0,1,1.1,1.1" transform="translate(-0.74 -0.16)" style="fill: #e3db7c"/>
        <path id="9566e28d-1671-4723-9edf-6704c74c7c45" data-name="Fill-18" d="M972.56,119.17a1.24,1.24,0,1,1-1.24-1.24,1.24,1.24,0,0,1,1.24,1.24" transform="translate(-0.74 -0.16)" style="fill: #e3db7c"/>
        <path id="9c0ace3e-71a0-4db4-a8ba-222d73e35ec3" data-name="Fill-20" d="M973.66,126.15a1.1,1.1,0,1,1-1.1-1.1,1.1,1.1,0,0,1,1.1,1.1" transform="translate(-0.74 -0.16)" style="fill: #e3db7c"/>
      </g>
      <g id="3f79bc94-19ed-41c7-afe3-711844c0a380" data-name="Page-1">
        <path id="ae1614fd-0282-4a1e-93b3-94afbdb852fe" data-name="Fill-1" d="M210.75,148.57h-4.84a1.25,1.25,0,0,1-1.24-1.25V114.91H212v32.42a1.25,1.25,0,0,1-1.25,1.25" transform="translate(-0.74 -0.16)" style="fill: #e3db7c"/>
        <g id="36b1c0b4-7d3d-46ab-af36-f8ac077f6ea5" data-name="Group-5">
          <g id="5c3dc9f3-ad07-46da-a5cf-949059666221" data-name="Fill-3-Clipped">
            <g style="mask: url(#eaad4344-51ca-4566-970a-ab089e87edb7)">
              <path id="83026c52-2713-4749-8025-31302dc50257" data-name="Fill-3" d="M228,103.82a19.67,19.67,0,1,1-19.67-19.67A19.67,19.67,0,0,1,228,103.82" transform="translate(-0.74 -0.16)" style="fill: #106fae"/>
            </g>
          </g>
        </g>
        <path id="123e9ff0-4c12-4e75-a276-9e6fc43150b4" data-name="Fill-6" d="M198.08,99.74A1.75,1.75,0,1,1,196.33,98a1.75,1.75,0,0,1,1.75,1.75" transform="translate(-0.74 -0.16)" style="fill: #e3db7c"/>
        <path id="e6a19089-844c-4cd5-b76f-6f9302367e42" data-name="Fill-8" d="M203.75,91A1.75,1.75,0,1,1,202,89.24,1.75,1.75,0,0,1,203.75,91" transform="translate(-0.74 -0.16)" style="fill: #e3db7c"/>
        <path id="323d2b8a-b974-4d05-890d-fd9b363224d7" data-name="Fill-10" d="M213.75,106.91a1.75,1.75,0,1,1-1.75-1.75,1.75,1.75,0,0,1,1.75,1.75" transform="translate(-0.74 -0.16)" style="fill: #e3db7c"/>
        <path id="e5a18624-91e8-494c-9fef-3ace16f421d0" data-name="Fill-12" d="M215.5,91.55a1.75,1.75,0,1,1-1.75-1.75,1.75,1.75,0,0,1,1.75,1.75" transform="translate(-0.74 -0.16)" style="fill: #e3db7c"/>
        <path id="6c6b9cc7-8e17-450e-b143-382d22675c18" data-name="Fill-14" d="M221,101.3a1.55,1.55,0,1,1-1.55-1.55A1.55,1.55,0,0,1,221,101.3" transform="translate(-0.74 -0.16)" style="fill: #e3db7c"/>
        <path id="95263e6f-aead-4e2f-8704-9dc02fa7b9dd" data-name="Fill-16" d="M219.48,115.41a1.55,1.55,0,1,1-1.55-1.55,1.55,1.55,0,0,1,1.55,1.55" transform="translate(-0.74 -0.16)" style="fill: #e3db7c"/>
        <path id="bfb2a089-a1ed-40f8-8111-5dd89585a4d3" data-name="Fill-18" d="M202.75,107.13a1.75,1.75,0,1,1-1.75-1.75,1.75,1.75,0,0,1,1.75,1.75" transform="translate(-0.74 -0.16)" style="fill: #e3db7c"/>
        <path id="b18df7ec-086d-481b-8a59-65aa5828796d" data-name="Fill-20" d="M204.3,117a1.55,1.55,0,1,1-1.55-1.55A1.55,1.55,0,0,1,204.3,117" transform="translate(-0.74 -0.16)" style="fill: #e3db7c"/>
      </g>
      <g id="fccfd539-7d3d-462f-aa21-afe2b18bb81e" data-name="Page-1">
        <path id="c58773c8-e60b-41fd-bdb6-e10a78c868fd" data-name="Fill-1" d="M338.51,148.76h-5a1.16,1.16,0,0,1-1.16-1.16V115.09h7.33V147.6a1.16,1.16,0,0,1-1.16,1.16" transform="translate(-0.74 -0.16)" style="fill: #106fae"/>
        <path id="0aa80090-0ce6-4b8c-afb8-3ebc4309413c" data-name="Fill-3" d="M351,121.06c0,6-4,10.87-8.82,10.87s-8.83-4.87-8.83-10.87,4-10.87,8.83-10.87,8.82,4.87,8.82,10.87" transform="translate(-0.74 -0.16)" style="fill: #ed1458"/>
        <g id="30368d1b-ca1d-45dd-815f-8a03d65ca6ba" data-name="Group-7">
          <g id="02d2c55d-8b4e-437e-8c29-cfe494536be2" data-name="Fill-5-Clipped">
            <g style="mask: url(#5a5b5c7d-c868-46c6-b853-0a911a8b8b83)">
              <path id="06f6cefc-da56-41bf-9b80-ee46bb80f41f" data-name="Fill-5" d="M339.67,118c0,6-4,10.87-8.82,10.87S322,124,322,118s4-10.87,8.82-10.87,8.82,4.87,8.82,10.87" transform="translate(-0.74 -0.16)" style="fill: #ed1458"/>
            </g>
          </g>
        </g>
        <g id="a4bb6ac7-f23a-44d4-9fa2-f5258b2a49f9" data-name="Group-10">
          <g id="c7c203a2-29d3-410d-9d1e-16c2715fd5c9" data-name="Fill-8-Clipped">
            <g style="mask: url(#fd81f750-c5b6-4240-b4e5-29d46765661b)">
              <path id="8a974202-0751-48da-bb55-089915aa88fb" data-name="Fill-8" d="M347,108.75c0,6.41-4.22,11.6-9.42,11.6s-9.42-5.19-9.42-11.6,4.22-11.6,9.42-11.6,9.42,5.19,9.42,11.6" transform="translate(-0.74 -0.16)" style="fill: #ed1458"/>
            </g>
          </g>
        </g>
        <path id="b9f6e1dc-3727-4dcc-bd5b-564997e2166f" data-name="Fill-11" d="M338.39,105.76a1.55,1.55,0,1,1-1.55-1.55,1.55,1.55,0,0,1,1.55,1.55" transform="translate(-0.74 -0.16)" style="fill: #630f33"/>
        <path id="3eeed688-d133-4c61-8b92-b64b592dcef8" data-name="Fill-13" d="M329.36,111.49a1.55,1.55,0,1,1,1,1.93,1.55,1.55,0,0,1-1-1.93" transform="translate(-0.74 -0.16)" style="fill: #630f33"/>
        <path id="0c880b93-7e85-4854-a616-3d68cdde0f4f" data-name="Fill-15" d="M340.67,116.7a1.55,1.55,0,1,1,1,1.93,1.55,1.55,0,0,1-1-1.93" transform="translate(-0.74 -0.16)" style="fill: #630f33"/>
        <path id="ff3f23af-df8e-411a-b5cf-7888aef1a7df" data-name="Fill-17" d="M336.06,120a1.55,1.55,0,1,1,.57-2.12,1.55,1.55,0,0,1-.57,2.12" transform="translate(-0.74 -0.16)" style="fill: #630f33"/>
        <path id="0fed8290-45f0-4c1a-ab5a-85c571e01a5e" data-name="Fill-19" d="M342,128.63a1.55,1.55,0,1,1,.57-2.12,1.55,1.55,0,0,1-.57,2.12" transform="translate(-0.74 -0.16)" style="fill: #630f33"/>
      </g>
      <g id="934dcb71-138c-420a-9bea-945c22d2f2b0" data-name="Page-1">
        <path id="cb17e5b5-3022-4762-851c-33857320340c" data-name="Fill-1" d="M416.18,135.82V145c0,1.93,10.52,3.5,23.5,3.5s23.5-1.57,23.5-3.5v-9.16Z" transform="translate(-0.74 -0.16)" style="fill: #e3db7c"/>
        <path id="23dcb911-b0dd-448f-9935-d873f6651540" data-name="Fill-3" d="M463.18,135.82c0,1.93-10.52,3.5-23.5,3.5s-23.5-1.57-23.5-3.5,10.52-3.5,23.5-3.5,23.5,1.57,23.5,3.5" transform="translate(-0.74 -0.16)" style="fill: #f2f0c8"/>
        <g id="4325f6b2-7ec7-4f80-8849-b8d044310c96" data-name="Group-7">
          <g id="699c9be1-5c97-4ddb-b69f-62fafe0bde35" data-name="Fill-5-Clipped">
            <g style="mask: url(#7b2f18e0-561b-45c6-b8da-c0e966ad57fc)">
              <path id="e1cbe4f0-4412-43db-910f-f85030df2312" data-name="Fill-5" d="M413.68,126v9.16c0,1.93,10.52,3.5,23.5,3.5s23.5-1.57,23.5-3.5V126Z" transform="translate(-0.74 -0.16)" style="fill: #e3db7c"/>
            </g>
          </g>
        </g>
        <g id="da6da47f-69bc-4360-a570-a8412ff353e8" data-name="Group-10">
          <g id="0b7d88c5-743f-4d9d-a27a-a37936126aba" data-name="Fill-8-Clipped">
            <g style="mask: url(#09422c2a-5c29-4322-b71e-bb911db31a1a)">
              <path id="e7d8af19-d341-41d9-bb6c-f43bc3f607fc" data-name="Fill-8" d="M460.68,126c0,1.93-10.52,3.5-23.5,3.5s-23.5-1.57-23.5-3.5,10.52-3.5,23.5-3.5,23.5,1.57,23.5,3.5" transform="translate(-0.74 -0.16)" style="fill: #f2f0c8"/>
            </g>
          </g>
        </g>
        <path id="4d59210b-2373-44b4-bfec-587f595db9c1" data-name="Fill-11" d="M420.34,115.66v9.16c0,1.93,10.52,3.5,23.5,3.5s23.5-1.57,23.5-3.5v-9.16Z" transform="translate(-0.74 -0.16)" style="fill: #e3db7c"/>
        <path id="d953c02a-802a-495f-94e7-4d6347208319" data-name="Fill-13" d="M467.34,115.66c0,1.93-10.52,3.5-23.5,3.5s-23.5-1.57-23.5-3.5,10.52-3.5,23.5-3.5,23.5,1.57,23.5,3.5" transform="translate(-0.74 -0.16)" style="fill: #f2f0c8"/>
      </g>
      <g id="2dc0f1ee-a361-4cce-83f0-5b3810e255c4" data-name="Page-1">
        <polygon id="67767fff-05dc-429e-8947-f267111888be" data-name="Fill-1" points="599.09 125.88 599.09 116.2 556.84 102.98 514.59 116.2 514.59 129.67 562.89 114.55 599.09 125.88" style="fill: #0074bb"/>
        <polygon id="d39915e3-1e5c-43d9-91c3-9172b98e4473" data-name="Fill-2" points="514.59 129.67 514.59 148.73 599.09 148.73 599.09 125.88 562.89 114.55 514.59 129.67" style="fill: #82b5e1"/>
        <g id="d35ef2c1-978d-4d7a-9260-b5dbc62315f2" data-name="Group-16">
          <g id="1a424de5-1888-4eba-a5eb-18cd20bc016f" data-name="Group-5">
            <path id="f7211bc8-0a6d-46a2-9c92-d52bfb0e4eb5" data-name="Fill-3" d="M509.15,121.95a1.51,1.51,0,0,0,1.89,1l46.53-14.57,46.53,14.57a1.51,1.51,0,0,0,1.9-1l2.08-6.66a1.51,1.51,0,0,0-1-1.89l-47.88-15a5.48,5.48,0,0,0-3.27,0l-47.88,15a1.51,1.51,0,0,0-1,1.89Z" transform="translate(-0.74 -0.16)" style="fill: #e3db7c"/>
          </g>
          <path id="13b81f4a-fa63-4acc-94d2-8193db08259d" data-name="Fill-6" d="M550.53,148.88h14.1V131.06a7,7,0,0,0-14.1,0Z" transform="translate(-0.74 -0.16)" style="fill: #106fae"/>
          <path id="87893b7c-1976-4d50-aac5-57c8902a6ddc" data-name="Fill-8" d="M557.58,127.4a3.46,3.46,0,1,0,3.46,3.46,3.46,3.46,0,0,0-3.46-3.46" transform="translate(-0.74 -0.16)" style="fill: #f2f0c8"/>
          <path id="340d2cf4-cf4d-4bc5-aa91-ae7c88dba359" data-name="Stroke-10" d="M536.08,127.4a3.46,3.46,0,1,0,3.46,3.46A3.46,3.46,0,0,0,536.08,127.4Z" transform="translate(-0.74 -0.16)" style="fill: none;stroke: #106fae;stroke-width: 2px"/>
          <path id="3ff46ac8-14a3-4282-85bf-f10b02dd8948" data-name="Stroke-12" d="M579.08,127.4a3.46,3.46,0,1,0,3.46,3.46A3.46,3.46,0,0,0,579.08,127.4Z" transform="translate(-0.74 -0.16)" style="fill: none;stroke: #106fae;stroke-width: 2px"/>
          <path id="01cbd2fd-e1f1-417d-963d-8829c0c05d80" data-name="Fill-14" d="M590.83,112.05h-5.08a1,1,0,0,1-1-1v-9a1,1,0,0,1,1-1h5.08a1,1,0,0,1,1,1v9a1,1,0,0,1-1,1" transform="translate(-0.74 -0.16)" style="fill: #e3db7c"/>
        </g>
      </g>
      <g id="5db5f3a4-5eb0-4c81-be14-d9081fbc523a" data-name="Page-1">
        <polygon id="6991b78d-80de-4b23-935a-392cc48b8610" data-name="Fill-1" points="723.02 47.94 723.02 36.09 689.4 6.65 655.78 36.09 655.78 55.61 693.78 22.33 723.02 47.94" style="fill: #0074bb"/>
        <polygon id="9be6a719-87a8-4995-a183-39022493bf35" data-name="Fill-2" points="655.78 55.61 655.78 148.49 723.02 148.49 723.02 47.93 693.78 22.33 655.78 55.61" style="fill: #e3db7c"/>
        <g id="e6c02b82-1b68-4311-99a0-70aff96b2ea1" data-name="Group-22">
          <g id="8212ebe3-3881-48af-8f19-eb8b357ffb5f" data-name="Group-5">
            <path id="482ba3f9-7ab2-43e3-ac99-c09b14487dd2" data-name="Fill-3" d="M690.14,13.45l34.53,30.24a2,2,0,0,0,2.88-.19l3.9-4.45a2,2,0,0,0-.19-2.88L690.14.16,649,36.17a2,2,0,0,0-.19,2.88l3.9,4.45a2,2,0,0,0,2.88.19Z" transform="translate(-0.74 -0.16)" style="fill: #01b5aa"/>
          </g>
          <g id="2ba034ab-58a8-4c22-afd9-dd3b1de4fe90" data-name="Fill-6-Clipped">
            <g style="mask: url(#0dd360e6-e7c5-4eab-bd45-66ae95970364)">
              <polygon id="a4a81d0b-56b5-480b-9ac3-e062b4fabdbe" data-name="Fill-6" points="679.37 148.49 699.43 148.49 699.43 113.08 679.37 113.08 679.37 148.49" style="fill: #ed1458"/>
            </g>
          </g>
          <g id="2bb6f705-b9c3-47cc-90b1-2c0233a41218" data-name="Fill-8-Clipped">
            <g style="mask: url(#0dd360e6-e7c5-4eab-bd45-66ae95970364)">
              <path id="f82c9743-dc1a-4ba2-97a8-8b305424bbf0" data-name="Fill-8" d="M690.28,119a4.24,4.24,0,1,0,4.24,4.24,4.24,4.24,0,0,0-4.24-4.24" transform="translate(-0.74 -0.16)" style="fill: #fff"/>
            </g>
          </g>
          <g id="90a24239-e021-4551-81e4-e6d65331ac5d" data-name="Fill-9-Clipped">
            <g style="mask: url(#0dd360e6-e7c5-4eab-bd45-66ae95970364)">
              <path id="b5d48b16-9bd9-417e-bbe4-17e63f44c506" data-name="Fill-9" d="M692.52,131.87H688a2,2,0,0,1-2-2V123.4h8.48v6.48a2,2,0,0,1-2,2" transform="translate(-0.74 -0.16)" style="fill: #fff"/>
            </g>
          </g>
          <g id="52becdf6-9f1e-4395-a5e0-b4fa120ac4af" data-name="Fill-10-Clipped">
            <g style="mask: url(#0dd360e6-e7c5-4eab-bd45-66ae95970364)">
              <path id="87f460d2-f362-4f45-acc4-b6a48610502f" data-name="Fill-10" d="M672.16,53.13H667.5a3,3,0,0,0-3,3v14a3,3,0,0,0,3,3h4.67a3,3,0,0,0,3-3v-14a3,3,0,0,0-3-3m0,2a1,1,0,0,1,1,1v14a1,1,0,0,1-1,1H667.5a1,1,0,0,1-1-1v-14a1,1,0,0,1,1-1h4.67" transform="translate(-0.74 -0.16)" style="fill: #ed1458"/>
            </g>
          </g>
          <g id="b5ab0cc8-3ef9-4a5c-b04a-f94b4679d8cf" data-name="Fill-11-Clipped">
            <g style="mask: url(#0dd360e6-e7c5-4eab-bd45-66ae95970364)">
              <path id="b1e8defa-b100-4b85-846e-af1c359eb7ec" data-name="Fill-11" d="M692.65,53.13H688a3,3,0,0,0-3,3v14a3,3,0,0,0,3,3h4.67a3,3,0,0,0,3-3v-14a3,3,0,0,0-3-3m0,2a1,1,0,0,1,1,1v14a1,1,0,0,1-1,1H688a1,1,0,0,1-1-1v-14a1,1,0,0,1,1-1h4.67" transform="translate(-0.74 -0.16)" style="fill: #ed1458"/>
            </g>
          </g>
          <g id="b7ad8668-4148-4c4b-a901-f2d57a980408" data-name="Fill-12-Clipped">
            <g style="mask: url(#0dd360e6-e7c5-4eab-bd45-66ae95970364)">
              <path id="b868db25-613d-48e0-807f-05b587d06f8b" data-name="Fill-12" d="M713.14,53.13h-4.67a3,3,0,0,0-3,3v14a3,3,0,0,0,3,3h4.67a3,3,0,0,0,3-3v-14a3,3,0,0,0-3-3m0,2a1,1,0,0,1,1,1v14a1,1,0,0,1-1,1h-4.67a1,1,0,0,1-1-1v-14a1,1,0,0,1,1-1h4.67" transform="translate(-0.74 -0.16)" style="fill: #ed1458"/>
            </g>
          </g>
          <g id="9bc4dbef-2a93-45be-b8c8-ccdb0576d006" data-name="Stroke-13-Clipped">
            <g style="mask: url(#0dd360e6-e7c5-4eab-bd45-66ae95970364)">
              <path id="4cfa557b-5be2-4bbe-88be-8c03cd0f6d62" data-name="Stroke-13" d="M665.5,67h8.58" transform="translate(-0.74 -0.16)" style="fill: none;stroke: #ed1458;stroke-width: 2px"/>
            </g>
          </g>
          <g id="22ba1ac3-4e5a-4d7c-912d-abb053ce59bf" data-name="Stroke-14-Clipped">
            <g style="mask: url(#0dd360e6-e7c5-4eab-bd45-66ae95970364)">
              <path id="8f400ccf-28c9-4e95-8515-c530987d2e11" data-name="Stroke-14" d="M685.85,67h8.58" transform="translate(-0.74 -0.16)" style="fill: none;stroke: #ed1458;stroke-width: 2px"/>
            </g>
          </g>
          <g id="ec38737d-d520-4236-93ae-399445b56a8f" data-name="Stroke-15-Clipped">
            <g style="mask: url(#0dd360e6-e7c5-4eab-bd45-66ae95970364)">
              <path id="1a9a71f9-4c27-4256-80b9-fc18331bf89e" data-name="Stroke-15" d="M706.1,67h8.58" transform="translate(-0.74 -0.16)" style="fill: none;stroke: #ed1458;stroke-width: 2px"/>
            </g>
          </g>
          <g id="0f2b6a7b-6918-4486-8a43-15971cfffdd4" data-name="Fill-16-Clipped">
            <g style="mask: url(#0dd360e6-e7c5-4eab-bd45-66ae95970364)">
              <path id="bc3d76ca-3518-4724-8294-8171c26c45e8" data-name="Fill-16" d="M672.16,84.46H667.5a3,3,0,0,0-3,3v14a3,3,0,0,0,3,3h4.67a3,3,0,0,0,3-3v-14a3,3,0,0,0-3-3m0,2a1,1,0,0,1,1,1v14a1,1,0,0,1-1,1H667.5a1,1,0,0,1-1-1v-14a1,1,0,0,1,1-1h4.67" transform="translate(-0.74 -0.16)" style="fill: #ed1458"/>
            </g>
          </g>
          <g id="73557775-27e3-4051-9d19-976179801e00" data-name="Fill-17-Clipped">
            <g style="mask: url(#0dd360e6-e7c5-4eab-bd45-66ae95970364)">
              <path id="09bbe77b-fac6-477a-94e4-ce09f6b6550e" data-name="Fill-17" d="M692.65,84.46H688a3,3,0,0,0-3,3v14a3,3,0,0,0,3,3h4.67a3,3,0,0,0,3-3v-14a3,3,0,0,0-3-3m0,2a1,1,0,0,1,1,1v14a1,1,0,0,1-1,1H688a1,1,0,0,1-1-1v-14a1,1,0,0,1,1-1h4.67" transform="translate(-0.74 -0.16)" style="fill: #ed1458"/>
            </g>
          </g>
          <g id="1f4c6a5e-9ca7-4834-a37e-186e3e801851" data-name="Fill-18-Clipped">
            <g style="mask: url(#0dd360e6-e7c5-4eab-bd45-66ae95970364)">
              <path id="a2c471bf-ca50-41aa-9cc4-e05f810f4557" data-name="Fill-18" d="M713.14,84.46h-4.67a3,3,0,0,0-3,3v14a3,3,0,0,0,3,3h4.67a3,3,0,0,0,3-3v-14a3,3,0,0,0-3-3m0,2a1,1,0,0,1,1,1v14a1,1,0,0,1-1,1h-4.67a1,1,0,0,1-1-1v-14a1,1,0,0,1,1-1h4.67" transform="translate(-0.74 -0.16)" style="fill: #ed1458"/>
            </g>
          </g>
          <g id="04776bd4-5121-4191-a952-dea140663889" data-name="Stroke-19-Clipped">
            <g style="mask: url(#0dd360e6-e7c5-4eab-bd45-66ae95970364)">
              <path id="5637c2dc-0cf3-4d0d-97df-52efb2aa951a" data-name="Stroke-19" d="M665.5,98.31h8.58" transform="translate(-0.74 -0.16)" style="fill: none;stroke: #ed1458;stroke-width: 2px"/>
            </g>
          </g>
          <g id="5d661da1-f1f7-4a3c-8dbf-a3b6dce7ae5b" data-name="Stroke-20-Clipped">
            <g style="mask: url(#0dd360e6-e7c5-4eab-bd45-66ae95970364)">
              <path id="113f327f-0d24-4184-81df-ef37bf5c7dd2" data-name="Stroke-20" d="M685.85,98.31h8.58" transform="translate(-0.74 -0.16)" style="fill: none;stroke: #ed1458;stroke-width: 2px"/>
            </g>
          </g>
          <g id="bf055f58-07a6-4682-bc6a-0fec2ab67c6c" data-name="Stroke-21-Clipped">
            <g style="mask: url(#0dd360e6-e7c5-4eab-bd45-66ae95970364)">
              <path id="5a50cd5c-3a99-4643-a1cc-af3d966194e7" data-name="Stroke-21" d="M706.1,98.31h8.58" transform="translate(-0.74 -0.16)" style="fill: none;stroke: #ed1458;stroke-width: 2px"/>
            </g>
          </g>
        </g>
      </g>
      <g id="5e13b175-d8f9-4a5a-997f-1000b160d1fb" data-name="Page-1">
        <polygon id="b4522b62-a72c-4993-8338-753b17038242" data-name="Fill-1" points="808.27 20.87 766.02 57.87 766.02 78 812.79 37.03 850.52 70.07 850.52 57.87 808.27 20.87" style="fill: #106fae"/>
        <polygon id="9aeebab6-7681-4506-ac74-8e34715a8e2c" data-name="Fill-2" points="766.02 78 766.02 148.87 850.52 148.87 850.52 70.07 812.79 37.03 766.02 78" style="fill: #08aca6"/>
        <g id="2db224c3-de04-4883-aab4-176d77734de0" data-name="Group-17">
          <path id="efe20845-5dc6-4f4b-84b5-fb0c1d031c8a" data-name="Fill-3" d="M761.48,66.56a2.05,2.05,0,0,0,2.89.19L809,27.67l44.63,39.09a2.05,2.05,0,0,0,2.89-.19l3.89-4.44a2.05,2.05,0,0,0-.19-2.9L810.57,15.74a2.37,2.37,0,0,0-3.12,0L757.79,59.23a2.05,2.05,0,0,0-.19,2.9Z" transform="translate(-0.74 -0.16)" style="fill: #d30b50"/>
          <g id="924c1494-a422-494a-9b42-3474f2b2d5c3" data-name="Fill-5-Clipped">
            <g style="mask: url(#687d34a2-1fe9-4e8c-9927-0fac40c9de5d)">
              <polygon id="0e734f7e-1c31-49a4-b920-c37d781f0642" data-name="Fill-5" points="795.66 148.87 820.88 148.87 820.88 104.37 795.66 104.37 795.66 148.87" style="fill: #106fae"/>
            </g>
          </g>
          <g id="9c842757-0d34-4e49-86f9-e4648a74a94a" data-name="Fill-7-Clipped">
            <g style="mask: url(#687d34a2-1fe9-4e8c-9927-0fac40c9de5d)">
              <path id="7a2b2b2f-275f-4029-baa9-4f7a86cb4a05" data-name="Fill-7" d="M809,110.59a6.19,6.19,0,1,0,6.19,6.19,6.19,6.19,0,0,0-6.19-6.19" transform="translate(-0.74 -0.16)" style="fill: #fff"/>
            </g>
          </g>
          <g id="2cb4be85-5ca3-45cf-b30f-d63c814c8e57" data-name="Stroke-8-Clipped">
            <g style="mask: url(#687d34a2-1fe9-4e8c-9927-0fac40c9de5d)">
              <path id="221babc5-f373-4fb4-a35f-ddfb8ac6aeb6" data-name="Stroke-8" d="M790.34,82.74a6.19,6.19,0,1,0,6.19,6.19A6.19,6.19,0,0,0,790.34,82.74Z" transform="translate(-0.74 -0.16)" style="fill: none;stroke: #106fae;stroke-width: 3px"/>
            </g>
          </g>
          <g id="facd208c-42d5-444d-9042-f1168279d4cc" data-name="Stroke-9-Clipped">
            <g style="mask: url(#687d34a2-1fe9-4e8c-9927-0fac40c9de5d)">
              <path id="3f13942f-4b8d-4469-9ac1-776e2359187f" data-name="Stroke-9" d="M827.68,82.74a6.19,6.19,0,1,0,6.19,6.19A6.19,6.19,0,0,0,827.68,82.74Z" transform="translate(-0.74 -0.16)" style="fill: none;stroke: #106fae;stroke-width: 3px"/>
            </g>
          </g>
          <g id="64fc4017-017b-471e-b878-0fa1244085ca" data-name="Stroke-10-Clipped">
            <g style="mask: url(#687d34a2-1fe9-4e8c-9927-0fac40c9de5d)">
              <path id="cf1d8b3d-8fb7-4202-9ece-c76e6c3ebc07" data-name="Stroke-10" d="M809,59.89a6.19,6.19,0,1,0,6.19,6.19A6.19,6.19,0,0,0,809,59.89Z" transform="translate(-0.74 -0.16)" style="fill: none;stroke: #106fae;stroke-width: 3px"/>
            </g>
          </g>
          <g id="4f54435e-0d23-48be-a90f-02696ad1a11c" data-name="Stroke-11-Clipped">
            <g style="mask: url(#687d34a2-1fe9-4e8c-9927-0fac40c9de5d)">
              <path id="d53a1380-183d-4618-9d78-96f57646e3c2" data-name="Stroke-11" d="M809,59.89V72.26" transform="translate(-0.74 -0.16)" style="fill: none;stroke: #106fae;stroke-width: 3px"/>
            </g>
          </g>
          <g id="b1253169-c91b-4d64-9c72-f4585a082422" data-name="Stroke-12-Clipped">
            <g style="mask: url(#687d34a2-1fe9-4e8c-9927-0fac40c9de5d)">
              <path id="a582606f-8086-461b-82e1-3971c65da6d2" data-name="Stroke-12" d="M815.2,66.08H802.82" transform="translate(-0.74 -0.16)" style="fill: none;stroke: #106fae;stroke-width: 3px"/>
            </g>
          </g>
          <g id="7422f5fb-ae9a-48e5-9a33-f92e011c6011" data-name="Stroke-13-Clipped">
            <g style="mask: url(#687d34a2-1fe9-4e8c-9927-0fac40c9de5d)">
              <path id="60e3ae18-40a9-4f5b-a5c7-10b879932e16" data-name="Stroke-13" d="M790.34,82.74V95.11" transform="translate(-0.74 -0.16)" style="fill: none;stroke: #106fae;stroke-width: 3px"/>
            </g>
          </g>
          <g id="eba843a8-c6bf-4549-9e88-e79555de2453" data-name="Stroke-14-Clipped">
            <g style="mask: url(#687d34a2-1fe9-4e8c-9927-0fac40c9de5d)">
              <path id="e7f1d22e-ec4c-46ea-8479-7adc5eecefca" data-name="Stroke-14" d="M796.53,88.92H784.15" transform="translate(-0.74 -0.16)" style="fill: none;stroke: #106fae;stroke-width: 3px"/>
            </g>
          </g>
          <g id="a8d9be1d-9e13-4976-82ba-10ef651036e3" data-name="Stroke-15-Clipped">
            <g style="mask: url(#687d34a2-1fe9-4e8c-9927-0fac40c9de5d)">
              <path id="323ba00e-ffe1-4698-ad00-8a08ce34fea3" data-name="Stroke-15" d="M827.68,82.74V95.11" transform="translate(-0.74 -0.16)" style="fill: none;stroke: #106fae;stroke-width: 3px"/>
            </g>
          </g>
          <g id="60472111-a8d0-4d06-9b3e-a0d319f9b9f7" data-name="Stroke-16-Clipped">
            <g style="mask: url(#687d34a2-1fe9-4e8c-9927-0fac40c9de5d)">
              <path id="80badc64-6383-4193-8194-0dbe4f3cbaf9" data-name="Stroke-16" d="M833.86,88.92H821.49" transform="translate(-0.74 -0.16)" style="fill: none;stroke: #106fae;stroke-width: 3px"/>
            </g>
          </g>
        </g>
      </g>
    </g>
  </g>
</svg>
