<?xml version="1.0" encoding="UTF-8"?>
<svg width="991px" height="150px" viewBox="0 0 991 150" version="1.1" xmlns="http://www.w3.org/2000/svg" xmlns:xlink="http://www.w3.org/1999/xlink">
    <!-- Generator: Sketch 43.2 (39069) - http://www.bohemiancoding.com/sketch -->
    <title>Group</title>
    <desc>Created with Sketch.</desc>
    <defs>
        <polygon id="path-1" points="0 134 103.838 134 103.838 0.133 0 0.133"></polygon>
        <polygon id="path-3" points="19.66665 0.583 39.333 0.583 39.333 39.917 0.0003 39.917 0.0003 0.583 19.66665 0.583"></polygon>
        <polygon id="path-5" points="19.66665 0.583 39.333 0.583 39.333 39.917 0.0003 39.917 0.0003 0.583 19.66665 0.583"></polygon>
        <polygon id="path-7" points="13.9606327 0.413850293 27.9210524 0.413850293 27.9210524 28.3356126 0.000212958984 28.3356126 0.000212958984 0.413850293 13.9606327 0.413850293"></polygon>
        <polygon id="path-9" points="19.66665 0.583 39.333 0.583 39.333 39.917 0.0003 39.917 0.0003 0.583 19.66665 0.583"></polygon>
        <polygon id="path-11" points="5.54840462e-17 22.078 5.54840462e-17 0.338 17.6498 0.338 17.6498 22.078 0 22.078"></polygon>
        <polygon id="path-13" points="0.1503 0.397 18.9833 0.397 18.9833 23.5941 0.1503 23.5941 0.1503 0.397"></polygon>
        <polygon id="path-15" points="0 0.5155 0 13.1715 46.9998 13.1715 46.9998 0.5155 1.35525272e-20 0.5155"></polygon>
        <polygon id="path-17" points="0 7.0155 0 0.0155 46.9998 0.0155 46.9998 7.0155 5.55138617e-16 7.0155"></polygon>
        <polygon id="path-19" points="0 149 83.629 149 83.629 0.511 0 0.511"></polygon>
        <polygon id="path-21" points="0 134 103.838 134 103.838 0.133 0 0.133"></polygon>
    </defs>
    <g id="Page-1" stroke="none" stroke-width="1" fill="none" fill-rule="evenodd">
        <g id="Group" transform="translate(0.000000, -1.000000)">
            <g id="Page-1" transform="translate(0.738281, 15.156250)">
                <polygon id="Fill-1" fill="#106FAE" points="51.9189 6.867 9.6689 43.867 9.6689 63.996 56.4439 23.034 94.1689 56.071 94.1689 43.867"></polygon>
                <polygon id="Fill-2" fill="#08ACA6" points="9.6687 63.9956 9.6687 134.8666 94.1687 134.8666 94.1687 56.0716 56.4437 23.0336"></polygon>
                <g id="Group-17" transform="translate(0.000000, 0.867000)">
                    <path d="M4.393,51.5396 C5.14,52.3926 6.435,52.4776 7.288,51.7316 L51.919,12.6466 L96.55,51.7316 C97.402,52.4776 98.698,52.3926 99.445,51.5396 L103.33,47.1026 C104.076,46.2506 103.99,44.9546 103.138,44.2076 L53.478,0.7196 C52.586,-0.0624 51.252,-0.0624 50.359,0.7196 L0.7,44.2076 C-0.152,44.9546 -0.238,46.2506 0.508,47.1026 L4.393,51.5396 Z" id="Fill-3" fill="#D30B50"></path>
                    <mask id="mask-2" fill="white">
                        <use xlink:href="#path-1"></use>
                    </mask>
                    <g id="Clip-6"></g>
                    <polygon id="Fill-5" fill="#106FAE" mask="url(#mask-2)" points="39.311 134 64.528 134 64.528 89.5 39.311 89.5"></polygon>
                    <path d="M51.9189,95.5625 C48.5019,95.5625 45.7319,98.3335 45.7319,101.7495 C45.7319,105.1665 48.5019,107.9375 51.9189,107.9375 C55.3359,107.9375 58.1059,105.1665 58.1059,101.7495 C58.1059,98.3335 55.3359,95.5625 51.9189,95.5625" id="Fill-7" fill="#FFFFFF" mask="url(#mask-2)"></path>
                    <path d="M33.2524,67.7134 C29.8354,67.7134 27.0654,70.4834 27.0654,73.9014 C27.0654,77.3184 29.8354,80.0884 33.2524,80.0884 C36.6694,80.0884 39.4394,77.3184 39.4394,73.9014 C39.4394,70.4834 36.6694,67.7134 33.2524,67.7134 Z" id="Stroke-8" stroke="#106FAE" stroke-width="3" mask="url(#mask-2)"></path>
                    <path d="M70.5854,67.7134 C67.1684,67.7134 64.3984,70.4834 64.3984,73.9014 C64.3984,77.3184 67.1684,80.0884 70.5854,80.0884 C74.0024,80.0884 76.7724,77.3184 76.7724,73.9014 C76.7724,70.4834 74.0024,67.7134 70.5854,67.7134 Z" id="Stroke-9" stroke="#106FAE" stroke-width="3" mask="url(#mask-2)"></path>
                    <path d="M51.9189,44.8647 C48.5019,44.8647 45.7319,47.6347 45.7319,51.0517 C45.7319,54.4687 48.5019,57.2397 51.9189,57.2397 C55.3359,57.2397 58.1059,54.4687 58.1059,51.0517 C58.1059,47.6347 55.3359,44.8647 51.9189,44.8647 Z" id="Stroke-10" stroke="#106FAE" stroke-width="3" mask="url(#mask-2)"></path>
                    <path d="M51.9189,44.8647 L51.9189,57.2397" id="Stroke-11" stroke="#106FAE" stroke-width="3" mask="url(#mask-2)"></path>
                    <path d="M58.1064,51.0522 L45.7314,51.0522" id="Stroke-12" stroke="#106FAE" stroke-width="3" mask="url(#mask-2)"></path>
                    <path d="M33.2524,67.7134 L33.2524,80.0884" id="Stroke-13" stroke="#106FAE" stroke-width="3" mask="url(#mask-2)"></path>
                    <path d="M39.4399,73.9014 L27.0649,73.9014" id="Stroke-14" stroke="#106FAE" stroke-width="3" mask="url(#mask-2)"></path>
                    <path d="M70.5854,67.7134 L70.5854,80.0884" id="Stroke-15" stroke="#106FAE" stroke-width="3" mask="url(#mask-2)"></path>
                    <path d="M76.7729,73.9014 L64.3979,73.9014" id="Stroke-16" stroke="#106FAE" stroke-width="3" mask="url(#mask-2)"></path>
                </g>
            </g>
            <g id="Page-1" transform="translate(188.664062, 84.156250)">
                <path d="M22.0887,65.4167 L17.2447,65.4167 C16.5577,65.4167 15.9997,64.8587 15.9997,64.1717 L15.9997,31.7497 L23.3337,31.7497 L23.3337,64.1717 C23.3337,64.8587 22.7757,65.4167 22.0887,65.4167" id="Fill-1" fill="#E3DB7C"></path>
                <g id="Group-5" transform="translate(0.000000, 0.416700)">
                    <mask id="mask-4" fill="white">
                        <use xlink:href="#path-3"></use>
                    </mask>
                    <g id="Clip-4"></g>
                    <path d="M39.3333,20.25 C39.3333,31.111 30.5283,39.917 19.6663,39.917 C8.8053,39.917 0.0003,31.111 0.0003,20.25 C0.0003,9.388 8.8053,0.583 19.6663,0.583 C30.5283,0.583 39.3333,9.388 39.3333,20.25" id="Fill-3" fill="#106FAE" mask="url(#mask-4)"></path>
                </g>
                <path d="M9.4168,16.5871 C9.4168,17.5531 8.6328,18.3371 7.6668,18.3371 C6.6998,18.3371 5.9168,17.5531 5.9168,16.5871 C5.9168,15.6201 6.6998,14.8371 7.6668,14.8371 C8.6328,14.8371 9.4168,15.6201 9.4168,16.5871" id="Fill-6" fill="#E3DB7C"></path>
                <path d="M15.0833,7.8332 C15.0833,8.8002 14.2993,9.5832 13.3333,9.5832 C12.3673,9.5832 11.5833,8.8002 11.5833,7.8332 C11.5833,6.8672 12.3673,6.0832 13.3333,6.0832 C14.2993,6.0832 15.0833,6.8672 15.0833,7.8332" id="Fill-8" fill="#E3DB7C"></path>
                <path d="M25.0833,23.7546 C25.0833,24.7216 24.2993,25.5046 23.3333,25.5046 C22.3673,25.5046 21.5833,24.7216 21.5833,23.7546 C21.5833,22.7876 22.3673,22.0046 23.3333,22.0046 C24.2993,22.0046 25.0833,22.7876 25.0833,23.7546" id="Fill-10" fill="#E3DB7C"></path>
                <path d="M26.8333,8.3894 C26.8333,9.3564 26.0493,10.1394 25.0833,10.1394 C24.1173,10.1394 23.3333,9.3564 23.3333,8.3894 C23.3333,7.4234 24.1173,6.6394 25.0833,6.6394 C26.0493,6.6394 26.8333,7.4234 26.8333,8.3894" id="Fill-12" fill="#E3DB7C"></path>
                <path d="M32.3656,18.1394 C32.3656,18.9964 31.6706,19.6924 30.8126,19.6924 C29.9556,19.6924 29.2606,18.9964 29.2606,18.1394 C29.2606,17.2824 29.9556,16.5874 30.8126,16.5874 C31.6706,16.5874 32.3656,17.2824 32.3656,18.1394" id="Fill-14" fill="#E3DB7C"></path>
                <path d="M30.8128,32.2497 C30.8128,33.1067 30.1178,33.8027 29.2598,33.8027 C28.4028,33.8027 27.7078,33.1067 27.7078,32.2497 C27.7078,31.3927 28.4028,30.6967 29.2598,30.6967 C30.1178,30.6967 30.8128,31.3927 30.8128,32.2497" id="Fill-16" fill="#E3DB7C"></path>
                <path d="M14.0833,23.9694 C14.0833,24.9364 13.2993,25.7194 12.3333,25.7194 C11.3673,25.7194 10.5833,24.9364 10.5833,23.9694 C10.5833,23.0024 11.3673,22.2194 12.3333,22.2194 C13.2993,22.2194 14.0833,23.0024 14.0833,23.9694" id="Fill-18" fill="#E3DB7C"></path>
                <path d="M15.6361,33.8024 C15.6361,34.6594 14.9411,35.3544 14.0831,35.3544 C13.2261,35.3544 12.5311,34.6594 12.5311,33.8024 C12.5311,32.9454 13.2261,32.2494 14.0831,32.2494 C14.9411,32.2494 15.6361,32.9454 15.6361,33.8024" id="Fill-20" fill="#E3DB7C"></path>
            </g>
            <g id="Page-1" transform="translate(909.343750, 84.156250)">
                <path d="M22.0887,65.4167 L17.2447,65.4167 C16.5577,65.4167 15.9997,64.8587 15.9997,64.1717 L15.9997,31.7497 L23.3337,31.7497 L23.3337,64.1717 C23.3337,64.8587 22.7757,65.4167 22.0887,65.4167" id="Fill-1" fill="#E3DB7C"></path>
                <g id="Group-5" transform="translate(0.000000, 0.416700)">
                    <mask id="mask-6" fill="white">
                        <use xlink:href="#path-5"></use>
                    </mask>
                    <g id="Clip-4"></g>
                    <path d="M39.3333,20.25 C39.3333,31.111 30.5283,39.917 19.6663,39.917 C8.8053,39.917 0.0003,31.111 0.0003,20.25 C0.0003,9.388 8.8053,0.583 19.6663,0.583 C30.5283,0.583 39.3333,9.388 39.3333,20.25" id="Fill-3" fill="#106FAE" mask="url(#mask-6)"></path>
                </g>
                <path d="M9.4168,16.5871 C9.4168,17.5531 8.6328,18.3371 7.6668,18.3371 C6.6998,18.3371 5.9168,17.5531 5.9168,16.5871 C5.9168,15.6201 6.6998,14.8371 7.6668,14.8371 C8.6328,14.8371 9.4168,15.6201 9.4168,16.5871" id="Fill-6" fill="#E3DB7C"></path>
                <path d="M15.0833,7.8332 C15.0833,8.8002 14.2993,9.5832 13.3333,9.5832 C12.3673,9.5832 11.5833,8.8002 11.5833,7.8332 C11.5833,6.8672 12.3673,6.0832 13.3333,6.0832 C14.2993,6.0832 15.0833,6.8672 15.0833,7.8332" id="Fill-8" fill="#E3DB7C"></path>
                <path d="M25.0833,23.7546 C25.0833,24.7216 24.2993,25.5046 23.3333,25.5046 C22.3673,25.5046 21.5833,24.7216 21.5833,23.7546 C21.5833,22.7876 22.3673,22.0046 23.3333,22.0046 C24.2993,22.0046 25.0833,22.7876 25.0833,23.7546" id="Fill-10" fill="#E3DB7C"></path>
                <path d="M26.8333,8.3894 C26.8333,9.3564 26.0493,10.1394 25.0833,10.1394 C24.1173,10.1394 23.3333,9.3564 23.3333,8.3894 C23.3333,7.4234 24.1173,6.6394 25.0833,6.6394 C26.0493,6.6394 26.8333,7.4234 26.8333,8.3894" id="Fill-12" fill="#E3DB7C"></path>
                <path d="M32.3656,18.1394 C32.3656,18.9964 31.6706,19.6924 30.8126,19.6924 C29.9556,19.6924 29.2606,18.9964 29.2606,18.1394 C29.2606,17.2824 29.9556,16.5874 30.8126,16.5874 C31.6706,16.5874 32.3656,17.2824 32.3656,18.1394" id="Fill-14" fill="#E3DB7C"></path>
                <path d="M30.8128,32.2497 C30.8128,33.1067 30.1178,33.8027 29.2598,33.8027 C28.4028,33.8027 27.7078,33.1067 27.7078,32.2497 C27.7078,31.3927 28.4028,30.6967 29.2598,30.6967 C30.1178,30.6967 30.8128,31.3927 30.8128,32.2497" id="Fill-16" fill="#E3DB7C"></path>
                <path d="M14.0833,23.9694 C14.0833,24.9364 13.2993,25.7194 12.3333,25.7194 C11.3673,25.7194 10.5833,24.9364 10.5833,23.9694 C10.5833,23.0024 11.3673,22.2194 12.3333,22.2194 C13.2993,22.2194 14.0833,23.0024 14.0833,23.9694" id="Fill-18" fill="#E3DB7C"></path>
                <path d="M15.6361,33.8024 C15.6361,34.6594 14.9411,35.3544 14.0831,35.3544 C13.2261,35.3544 12.5311,34.6594 12.5311,33.8024 C12.5311,32.9454 13.2261,32.2494 14.0831,32.2494 C14.9411,32.2494 15.6361,32.9454 15.6361,33.8024" id="Fill-20" fill="#E3DB7C"></path>
            </g>
            <g id="Page-1" transform="translate(962.558594, 103.156250)">
                <path d="M15.6799571,46.4369133 L12.2413793,46.4369133 C11.7537033,46.4369133 11.3575995,46.0408096 11.3575995,45.5531335 L11.3575995,22.5379462 L16.5637368,22.5379462 L16.5637368,45.5531335 C16.5637368,46.0408096 16.1676331,46.4369133 15.6799571,46.4369133" id="Fill-1" fill="#E3DB7C"></path>
                <g id="Group-5" transform="translate(0.000000, 0.295800)">
                    <mask id="mask-8" fill="white">
                        <use xlink:href="#path-7"></use>
                    </mask>
                    <g id="Clip-4"></g>
                    <path d="M27.9212654,14.3747314 C27.9212654,22.0845565 21.6709192,28.3356126 13.9603842,28.3356126 C6.25055915,28.3356126 0.000212958984,22.0845565 0.000212958984,14.3747314 C0.000212958984,6.66419648 6.25055915,0.413850293 13.9603842,0.413850293 C21.6709192,0.413850293 27.9212654,6.66419648 27.9212654,14.3747314" id="Fill-3" fill="#106FAE" mask="url(#mask-8)"></path>
                </g>
                <path d="M6.68464055,11.7745732 C6.68464055,12.4603012 6.12810773,13.016834 5.4423798,13.016834 C4.75594201,13.016834 4.20011906,12.4603012 4.20011906,11.7745732 C4.20011906,11.0881354 4.75594201,10.5323125 5.4423798,10.5323125 C6.12810773,10.5323125 6.68464055,11.0881354 6.68464055,11.7745732" id="Fill-6" fill="#E3DB7C"></path>
                <path d="M10.7070808,5.56050105 C10.7070808,6.24693885 10.150548,6.8027618 9.46482009,6.8027618 C8.77909216,6.8027618 8.22255935,6.24693885 8.22255935,5.56050105 C8.22255935,4.87477312 8.77909216,4.31824031 9.46482009,4.31824031 C10.150548,4.31824031 10.7070808,4.87477312 10.7070808,5.56050105" id="Fill-8" fill="#E3DB7C"></path>
                <path d="M17.8057136,16.8625183 C17.8057136,17.5489561 17.2491808,18.104779 16.5634529,18.104779 C15.877725,18.104779 15.3211922,17.5489561 15.3211922,16.8625183 C15.3211922,16.1760805 15.877725,15.6202576 16.5634529,15.6202576 C17.2491808,15.6202576 17.8057136,16.1760805 17.8057136,16.8625183" id="Fill-10" fill="#E3DB7C"></path>
                <path d="M19.0479744,5.95532701 C19.0479744,6.6417648 18.4914416,7.19758775 17.8057136,7.19758775 C17.1199857,7.19758775 16.5634529,6.6417648 16.5634529,5.95532701 C16.5634529,5.26959908 17.1199857,4.71306627 17.8057136,4.71306627 C18.4914416,4.71306627 19.0479744,5.26959908 19.0479744,5.95532701" id="Fill-12" fill="#E3DB7C"></path>
                <path d="M22.975151,12.876494 C22.975151,13.4848468 22.481796,13.9789117 21.8727333,13.9789117 C21.2643805,13.9789117 20.7710255,13.4848468 20.7710255,12.876494 C20.7710255,12.2681412 21.2643805,11.7747862 21.8727333,11.7747862 C22.481796,11.7747862 22.975151,12.2681412 22.975151,12.876494" id="Fill-14" fill="#E3DB7C"></path>
                <path d="M21.8728753,22.8928779 C21.8728753,23.5012307 21.3795203,23.9952955 20.7704576,23.9952955 C20.1621048,23.9952955 19.6687498,23.5012307 19.6687498,22.8928779 C19.6687498,22.284525 20.1621048,21.7904602 20.7704576,21.7904602 C21.3795203,21.7904602 21.8728753,22.284525 21.8728753,22.8928779" id="Fill-16" fill="#E3DB7C"></path>
                <path d="M9.99721755,17.0149969 C9.99721755,17.7014347 9.44068474,18.2572577 8.75495681,18.2572577 C8.06922888,18.2572577 7.51269606,17.7014347 7.51269606,17.0149969 C7.51269606,16.3285591 8.06922888,15.7727362 8.75495681,15.7727362 C9.44068474,15.7727362 9.99721755,16.3285591 9.99721755,17.0149969" id="Fill-18" fill="#E3DB7C"></path>
                <path d="M11.0994933,23.9950826 C11.0994933,24.6034354 10.6061383,25.0967904 9.99707558,25.0967904 C9.38872274,25.0967904 8.89536776,24.6034354 8.89536776,23.9950826 C8.89536776,23.3867297 9.38872274,22.8926649 9.99707558,22.8926649 C10.6061383,22.8926649 11.0994933,23.3867297 11.0994933,23.9950826" id="Fill-20" fill="#E3DB7C"></path>
            </g>
            <g id="Page-1" transform="translate(188.664062, 84.156250)">
                <path d="M22.0887,65.4167 L17.2447,65.4167 C16.5577,65.4167 15.9997,64.8587 15.9997,64.1717 L15.9997,31.7497 L23.3337,31.7497 L23.3337,64.1717 C23.3337,64.8587 22.7757,65.4167 22.0887,65.4167" id="Fill-1" fill="#E3DB7C"></path>
                <g id="Group-5" transform="translate(0.000000, 0.416700)">
                    <mask id="mask-10" fill="white">
                        <use xlink:href="#path-9"></use>
                    </mask>
                    <g id="Clip-4"></g>
                    <path d="M39.3333,20.25 C39.3333,31.111 30.5283,39.917 19.6663,39.917 C8.8053,39.917 0.0003,31.111 0.0003,20.25 C0.0003,9.388 8.8053,0.583 19.6663,0.583 C30.5283,0.583 39.3333,9.388 39.3333,20.25" id="Fill-3" fill="#106FAE" mask="url(#mask-10)"></path>
                </g>
                <path d="M9.4168,16.5871 C9.4168,17.5531 8.6328,18.3371 7.6668,18.3371 C6.6998,18.3371 5.9168,17.5531 5.9168,16.5871 C5.9168,15.6201 6.6998,14.8371 7.6668,14.8371 C8.6328,14.8371 9.4168,15.6201 9.4168,16.5871" id="Fill-6" fill="#E3DB7C"></path>
                <path d="M15.0833,7.8332 C15.0833,8.8002 14.2993,9.5832 13.3333,9.5832 C12.3673,9.5832 11.5833,8.8002 11.5833,7.8332 C11.5833,6.8672 12.3673,6.0832 13.3333,6.0832 C14.2993,6.0832 15.0833,6.8672 15.0833,7.8332" id="Fill-8" fill="#E3DB7C"></path>
                <path d="M25.0833,23.7546 C25.0833,24.7216 24.2993,25.5046 23.3333,25.5046 C22.3673,25.5046 21.5833,24.7216 21.5833,23.7546 C21.5833,22.7876 22.3673,22.0046 23.3333,22.0046 C24.2993,22.0046 25.0833,22.7876 25.0833,23.7546" id="Fill-10" fill="#E3DB7C"></path>
                <path d="M26.8333,8.3894 C26.8333,9.3564 26.0493,10.1394 25.0833,10.1394 C24.1173,10.1394 23.3333,9.3564 23.3333,8.3894 C23.3333,7.4234 24.1173,6.6394 25.0833,6.6394 C26.0493,6.6394 26.8333,7.4234 26.8333,8.3894" id="Fill-12" fill="#E3DB7C"></path>
                <path d="M32.3656,18.1394 C32.3656,18.9964 31.6706,19.6924 30.8126,19.6924 C29.9556,19.6924 29.2606,18.9964 29.2606,18.1394 C29.2606,17.2824 29.9556,16.5874 30.8126,16.5874 C31.6706,16.5874 32.3656,17.2824 32.3656,18.1394" id="Fill-14" fill="#E3DB7C"></path>
                <path d="M30.8128,32.2497 C30.8128,33.1067 30.1178,33.8027 29.2598,33.8027 C28.4028,33.8027 27.7078,33.1067 27.7078,32.2497 C27.7078,31.3927 28.4028,30.6967 29.2598,30.6967 C30.1178,30.6967 30.8128,31.3927 30.8128,32.2497" id="Fill-16" fill="#E3DB7C"></path>
                <path d="M14.0833,23.9694 C14.0833,24.9364 13.2993,25.7194 12.3333,25.7194 C11.3673,25.7194 10.5833,24.9364 10.5833,23.9694 C10.5833,23.0024 11.3673,22.2194 12.3333,22.2194 C13.2993,22.2194 14.0833,23.0024 14.0833,23.9694" id="Fill-18" fill="#E3DB7C"></path>
                <path d="M15.6361,33.8024 C15.6361,34.6594 14.9411,35.3544 14.0831,35.3544 C13.2261,35.3544 12.5311,34.6594 12.5311,33.8024 C12.5311,32.9454 13.2261,32.2494 14.0831,32.2494 C14.9411,32.2494 15.6361,32.9454 15.6361,33.8024" id="Fill-20" fill="#E3DB7C"></path>
            </g>
            <g id="Page-1" transform="translate(322.019531, 97.156250)">
                <path d="M16.4887,52.6034 L11.4777,52.6034 C10.8367,52.6034 10.3167,52.0834 10.3167,51.4424 L10.3167,18.9364 L17.6497,18.9364 L17.6497,51.4424 C17.6497,52.0834 17.1297,52.6034 16.4887,52.6034" id="Fill-1" fill="#106FAE"></path>
                <path d="M28.9667,24.9003 C28.9667,30.9033 25.0157,35.7703 20.1417,35.7703 C15.2677,35.7703 11.3167,30.9033 11.3167,24.9003 C11.3167,18.8973 15.2677,14.0303 20.1417,14.0303 C25.0157,14.0303 28.9667,18.8973 28.9667,24.9003" id="Fill-3" fill="#ED1458"></path>
                <g id="Group-7" transform="translate(0.000000, 10.603400)">
                    <mask id="mask-12" fill="white">
                        <use xlink:href="#path-11"></use>
                    </mask>
                    <g id="Clip-6"></g>
                    <path d="M17.6498,11.208 C17.6498,17.211 13.6988,22.078 8.8248,22.078 C3.9508,22.078 -0.0002,17.211 -0.0002,11.208 C-0.0002,5.205 3.9508,0.338 8.8248,0.338 C13.6988,0.338 17.6498,5.205 17.6498,11.208" id="Fill-5" fill="#ED1458" mask="url(#mask-12)"></path>
                </g>
                <g id="Group-10" transform="translate(6.000000, 0.603400)">
                    <mask id="mask-14" fill="white">
                        <use xlink:href="#path-13"></use>
                    </mask>
                    <g id="Clip-9"></g>
                    <path d="M18.9833,11.9951 C18.9833,18.4001 14.7673,23.5941 9.5663,23.5941 C4.3663,23.5941 0.1503,18.4001 0.1503,11.9951 C0.1503,5.5901 4.3663,0.3961 9.5663,0.3961 C14.7673,0.3961 18.9833,5.5901 18.9833,11.9951" id="Fill-8" fill="#ED1458" mask="url(#mask-14)"></path>
                </g>
                <path d="M16.369,9.6034 C16.369,10.4604 15.674,11.1564 14.817,11.1564 C13.959,11.1564 13.264,10.4604 13.264,9.6034 C13.264,8.7464 13.959,8.0504 14.817,8.0504 C15.674,8.0504 16.369,8.7464 16.369,9.6034" id="Fill-11" fill="#630F33"></path>
                <path d="M7.3383,15.3339 C7.5853,14.5129 8.4513,14.0469 9.2723,14.2939 C10.0933,14.5409 10.5583,15.4059 10.3123,16.2279 C10.0653,17.0489 9.1993,17.5149 8.3783,17.2679 C7.5573,17.0209 7.0913,16.1539 7.3383,15.3339" id="Fill-13" fill="#630F33"></path>
                <path d="M18.6547,20.5419 C18.9017,19.7209 19.7677,19.2549 20.5887,19.5019 C21.4097,19.7489 21.8757,20.6149 21.6287,21.4359 C21.3817,22.2569 20.5157,22.7229 19.6947,22.4759 C18.8737,22.2289 18.4077,21.3629 18.6547,20.5419" id="Fill-15" fill="#630F33"></path>
                <path d="M14.0404,23.8866 C13.2974,24.3156 12.3484,24.0606 11.9194,23.3186 C11.4904,22.5746 11.7454,21.6256 12.4874,21.1976 C13.2304,20.7686 14.1804,21.0236 14.6084,21.7656 C15.0374,22.5076 14.7834,23.4576 14.0404,23.8866" id="Fill-17" fill="#630F33"></path>
                <path d="M19.9789,32.4725 C19.2369,32.9015 18.2869,32.6475 17.8579,31.9045 C17.4299,31.1615 17.6839,30.2125 18.4269,29.7845 C19.1689,29.3555 20.1189,29.6095 20.5469,30.3525 C20.9759,31.0945 20.7219,32.0435 19.9789,32.4725" id="Fill-19" fill="#630F33"></path>
            </g>
            <g id="Page-1" transform="translate(413.675781, 113.156250)">
                <path d="M2.4998,23.6615 L2.4998,32.8175 C2.4998,34.7515 13.0208,36.3175 25.9998,36.3175 C38.9788,36.3175 49.4998,34.7515 49.4998,32.8175 L49.4998,23.6615 L2.4998,23.6615 Z" id="Fill-1" fill="#E3DB7C"></path>
                <path d="M49.4998,23.6615 C49.4998,25.5945 38.9788,27.1615 25.9998,27.1615 C13.0208,27.1615 2.4998,25.5945 2.4998,23.6615 C2.4998,21.7285 13.0208,20.1615 25.9998,20.1615 C38.9788,20.1615 49.4998,21.7285 49.4998,23.6615" id="Fill-3" fill="#F2F0C8"></path>
                <g id="Group-7" transform="translate(0.000000, 13.317800)">
                    <mask id="mask-16" fill="white">
                        <use xlink:href="#path-15"></use>
                    </mask>
                    <g id="Clip-6"></g>
                    <path d="M-0.0002,0.5155 L-0.0002,9.6715 C-0.0002,11.6055 10.5208,13.1715 23.4998,13.1715 C36.4788,13.1715 46.9998,11.6055 46.9998,9.6715 L46.9998,0.5155 L-0.0002,0.5155 Z" id="Fill-5" fill="#E3DB7C" mask="url(#mask-16)"></path>
                </g>
                <g id="Group-10" transform="translate(0.000000, 10.317800)">
                    <mask id="mask-18" fill="white">
                        <use xlink:href="#path-17"></use>
                    </mask>
                    <g id="Clip-9"></g>
                    <path d="M46.9998,3.5155 C46.9998,5.4485 36.4788,7.0155 23.4998,7.0155 C10.5208,7.0155 -0.0002,5.4485 -0.0002,3.5155 C-0.0002,1.5825 10.5208,0.0155 23.4998,0.0155 C36.4788,0.0155 46.9998,1.5825 46.9998,3.5155" id="Fill-8" fill="#F2F0C8" mask="url(#mask-18)"></path>
                </g>
                <path d="M6.6668,3.5003 L6.6668,12.6563 C6.6668,14.5893 17.1878,16.1563 30.1668,16.1563 C43.1458,16.1563 53.6668,14.5893 53.6668,12.6563 L53.6668,3.5003 L6.6668,3.5003 Z" id="Fill-11" fill="#E3DB7C"></path>
                <path d="M53.6668,3.5003 C53.6668,5.4333 43.1458,7.0003 30.1668,7.0003 C17.1878,7.0003 6.6668,5.4333 6.6668,3.5003 C6.6668,1.5663 17.1878,0.0003 30.1668,0.0003 C43.1458,0.0003 53.6668,1.5663 53.6668,3.5003" id="Fill-13" fill="#F2F0C8"></path>
            </g>
            <g id="Page-1" transform="translate(507.000000, 98.156250)">
                <polygon id="Fill-1" fill="#0074BB" points="92.83 28.8825 92.83 19.2015 50.58 5.9775 8.33 19.2015 8.33 32.6665 56.625 17.5505"></polygon>
                <polygon id="Fill-2" fill="#82B5E1" points="8.3304 32.667 8.3304 51.727 92.8294 51.727 92.8294 28.882 56.6254 17.551"></polygon>
                <g id="Group-16" transform="translate(0.000000, 0.727200)">
                    <g id="Group-5" fill="#E3DB7C">
                        <path d="M2.1533,24.0625 C2.4033,24.8595 3.2513,25.3035 4.0483,25.0545 L50.5803,10.4895 L97.1113,25.0545 C97.9083,25.3035 98.7573,24.8595 99.0063,24.0625 L101.0903,17.4065 C101.3403,16.6095 100.8963,15.7605 100.0993,15.5115 L52.2163,0.5225 C51.1513,0.1895 50.0093,0.1895 48.9443,0.5225 L1.0603,15.5115 C0.2633,15.7605 -0.1797,16.6095 0.0693,17.4065 L2.1533,24.0625 Z" id="Fill-3"></path>
                    </g>
                    <path d="M43.5317,51 L57.6287,51 L57.6287,33.172 C57.6287,29.279 54.4727,26.124 50.5797,26.124 C46.6877,26.124 43.5317,29.279 43.5317,33.172 L43.5317,51 Z" id="Fill-6" fill="#106FAE"></path>
                    <path d="M50.58,29.5127 C48.669,29.5127 47.121,31.0617 47.121,32.9717 C47.121,34.8817 48.669,36.4307 50.58,36.4307 C52.49,36.4307 54.039,34.8817 54.039,32.9717 C54.039,31.0617 52.49,29.5127 50.58,29.5127" id="Fill-8" fill="#F2F0C8"></path>
                    <path d="M29.0751,29.5127 C27.1651,29.5127 25.6161,31.0617 25.6161,32.9717 C25.6161,34.8817 27.1651,36.4307 29.0751,36.4307 C30.9861,36.4307 32.5341,34.8817 32.5341,32.9717 C32.5341,31.0617 30.9861,29.5127 29.0751,29.5127 Z" id="Stroke-10" stroke="#106FAE" stroke-width="2"></path>
                    <path d="M72.0844,29.5127 C70.1744,29.5127 68.6254,31.0617 68.6254,32.9717 C68.6254,34.8817 70.1744,36.4307 72.0844,36.4307 C73.9944,36.4307 75.5434,34.8817 75.5434,32.9717 C75.5434,31.0617 73.9944,29.5127 72.0844,29.5127 Z" id="Stroke-12" stroke="#106FAE" stroke-width="2"></path>
                    <path d="M83.8261,14.167 L78.7431,14.167 C78.1931,14.167 77.7431,13.717 77.7431,13.167 L77.7431,4.167 C77.7431,3.616 78.1931,3.167 78.7431,3.167 L83.8261,3.167 C84.3761,3.167 84.8261,3.616 84.8261,4.167 L84.8261,13.167 C84.8261,13.717 84.3761,14.167 83.8261,14.167" id="Fill-14" fill="#E3DB7C"></path>
                </g>
            </g>
            <g id="Page-1" transform="translate(648.324219, 0.156250)">
                <polygon id="Fill-1" fill="#0074BB" points="75.4304 48.9348 75.4304 37.0858 41.8144 7.6468 8.1984 37.0858 8.1984 56.6058 46.1944 23.3318"></polygon>
                <polygon id="Fill-2" fill="#E3DB7C" points="8.1981 56.6063 8.1981 149.4893 75.4311 149.4893 75.4311 48.9343 46.1941 23.3313"></polygon>
                <g id="Group-22" transform="translate(0.000000, 0.489000)">
                    <g id="Group-5" fill="#01B5AA">
                        <path d="M41.8142,13.8042 L76.3452,44.0432 C77.1922,44.7862 78.4812,44.7002 79.2232,43.8532 L83.1242,39.3992 C83.8662,38.5512 83.7802,37.2622 82.9332,36.5202 L41.8142,0.5112 L0.6962,36.5202 C-0.1518,37.2622 -0.2368,38.5512 0.5052,39.3992 L4.4052,43.8522 C5.1472,44.7002 6.4362,44.7862 7.2842,44.0432 L41.8142,13.8042 Z" id="Fill-3"></path>
                    </g>
                    <mask id="mask-20" fill="white">
                        <use xlink:href="#path-19"></use>
                    </mask>
                    <g id="Clip-7"></g>
                    <polygon id="Fill-6" fill="#ED1458" mask="url(#mask-20)" points="31.783 149 51.846 149 51.846 113.594 31.783 113.594"></polygon>
                    <path d="M41.9548,119.3701 C39.6138,119.3701 37.7158,121.2671 37.7158,123.6091 C37.7158,125.9511 39.6138,127.8491 41.9548,127.8491 C44.2958,127.8491 46.1948,125.9511 46.1948,123.6091 C46.1948,121.2671 44.2958,119.3701 41.9548,119.3701" id="Fill-8" fill="#FFFFFF" mask="url(#mask-20)"></path>
                    <path d="M44.1946,132.2295 L39.7156,132.2295 C38.6106,132.2295 37.7156,131.3335 37.7156,130.2295 L37.7156,123.7505 L46.1946,123.7505 L46.1946,130.2295 C46.1946,131.3335 45.2986,132.2295 44.1946,132.2295" id="Fill-9" fill="#FFFFFF" mask="url(#mask-20)"></path>
                    <path d="M23.8401,53.4829 L19.1731,53.4829 C17.5241,53.4829 16.1731,54.8329 16.1731,56.4829 L16.1731,70.4829 C16.1731,72.1329 17.5241,73.4829 19.1731,73.4829 L23.8401,73.4829 C25.4901,73.4829 26.8401,72.1329 26.8401,70.4829 L26.8401,56.4829 C26.8401,54.8329 25.4901,53.4829 23.8401,53.4829 M23.8401,55.4829 C24.3821,55.4829 24.8401,55.9409 24.8401,56.4829 L24.8401,70.4829 C24.8401,71.0249 24.3821,71.4829 23.8401,71.4829 L19.1731,71.4829 C18.6321,71.4829 18.1731,71.0249 18.1731,70.4829 L18.1731,56.4829 C18.1731,55.9409 18.6321,55.4829 19.1731,55.4829 L23.8401,55.4829" id="Fill-10" fill="#ED1458" mask="url(#mask-20)"></path>
                    <path d="M44.3274,53.4829 L39.6604,53.4829 C38.0104,53.4829 36.6604,54.8329 36.6604,56.4829 L36.6604,70.4829 C36.6604,72.1329 38.0104,73.4829 39.6604,73.4829 L44.3274,73.4829 C45.9774,73.4829 47.3274,72.1329 47.3274,70.4829 L47.3274,56.4829 C47.3274,54.8329 45.9774,53.4829 44.3274,53.4829 M44.3274,55.4829 C44.8694,55.4829 45.3274,55.9409 45.3274,56.4829 L45.3274,70.4829 C45.3274,71.0249 44.8694,71.4829 44.3274,71.4829 L39.6604,71.4829 C39.1184,71.4829 38.6604,71.0249 38.6604,70.4829 L38.6604,56.4829 C38.6604,55.9409 39.1184,55.4829 39.6604,55.4829 L44.3274,55.4829" id="Fill-11" fill="#ED1458" mask="url(#mask-20)"></path>
                    <path d="M64.8142,53.4829 L60.1472,53.4829 C58.4982,53.4829 57.1472,54.8329 57.1472,56.4829 L57.1472,70.4829 C57.1472,72.1329 58.4982,73.4829 60.1472,73.4829 L64.8142,73.4829 C66.4642,73.4829 67.8142,72.1329 67.8142,70.4829 L67.8142,56.4829 C67.8142,54.8329 66.4642,53.4829 64.8142,53.4829 M64.8142,55.4829 C65.3562,55.4829 65.8142,55.9409 65.8142,56.4829 L65.8142,70.4829 C65.8142,71.0249 65.3562,71.4829 64.8142,71.4829 L60.1472,71.4829 C59.6062,71.4829 59.1472,71.0249 59.1472,70.4829 L59.1472,56.4829 C59.1472,55.9409 59.6062,55.4829 60.1472,55.4829 L64.8142,55.4829" id="Fill-12" fill="#ED1458" mask="url(#mask-20)"></path>
                    <path d="M17.1736,67.3335 L25.7566,67.3335" id="Stroke-13" stroke="#ED1458" stroke-width="2" mask="url(#mask-20)"></path>
                    <path d="M37.5227,67.3335 L46.1057,67.3335" id="Stroke-14" stroke="#ED1458" stroke-width="2" mask="url(#mask-20)"></path>
                    <path d="M57.7727,67.3335 L66.3557,67.3335" id="Stroke-15" stroke="#ED1458" stroke-width="2" mask="url(#mask-20)"></path>
                    <path d="M23.8401,84.8164 L19.1731,84.8164 C17.5241,84.8164 16.1731,86.1664 16.1731,87.8164 L16.1731,101.8164 C16.1731,103.4664 17.5241,104.8164 19.1731,104.8164 L23.8401,104.8164 C25.4901,104.8164 26.8401,103.4664 26.8401,101.8164 L26.8401,87.8164 C26.8401,86.1664 25.4901,84.8164 23.8401,84.8164 M23.8401,86.8164 C24.3821,86.8164 24.8401,87.2744 24.8401,87.8164 L24.8401,101.8164 C24.8401,102.3584 24.3821,102.8164 23.8401,102.8164 L19.1731,102.8164 C18.6321,102.8164 18.1731,102.3584 18.1731,101.8164 L18.1731,87.8164 C18.1731,87.2744 18.6321,86.8164 19.1731,86.8164 L23.8401,86.8164" id="Fill-16" fill="#ED1458" mask="url(#mask-20)"></path>
                    <path d="M44.3274,84.8164 L39.6604,84.8164 C38.0104,84.8164 36.6604,86.1664 36.6604,87.8164 L36.6604,101.8164 C36.6604,103.4664 38.0104,104.8164 39.6604,104.8164 L44.3274,104.8164 C45.9774,104.8164 47.3274,103.4664 47.3274,101.8164 L47.3274,87.8164 C47.3274,86.1664 45.9774,84.8164 44.3274,84.8164 M44.3274,86.8164 C44.8694,86.8164 45.3274,87.2744 45.3274,87.8164 L45.3274,101.8164 C45.3274,102.3584 44.8694,102.8164 44.3274,102.8164 L39.6604,102.8164 C39.1184,102.8164 38.6604,102.3584 38.6604,101.8164 L38.6604,87.8164 C38.6604,87.2744 39.1184,86.8164 39.6604,86.8164 L44.3274,86.8164" id="Fill-17" fill="#ED1458" mask="url(#mask-20)"></path>
                    <path d="M64.8142,84.8164 L60.1472,84.8164 C58.4982,84.8164 57.1472,86.1664 57.1472,87.8164 L57.1472,101.8164 C57.1472,103.4664 58.4982,104.8164 60.1472,104.8164 L64.8142,104.8164 C66.4642,104.8164 67.8142,103.4664 67.8142,101.8164 L67.8142,87.8164 C67.8142,86.1664 66.4642,84.8164 64.8142,84.8164 M64.8142,86.8164 C65.3562,86.8164 65.8142,87.2744 65.8142,87.8164 L65.8142,101.8164 C65.8142,102.3584 65.3562,102.8164 64.8142,102.8164 L60.1472,102.8164 C59.6062,102.8164 59.1472,102.3584 59.1472,101.8164 L59.1472,87.8164 C59.1472,87.2744 59.6062,86.8164 60.1472,86.8164 L64.8142,86.8164" id="Fill-18" fill="#ED1458" mask="url(#mask-20)"></path>
                    <path d="M17.1736,98.667 L25.7566,98.667" id="Stroke-19" stroke="#ED1458" stroke-width="2" mask="url(#mask-20)"></path>
                    <path d="M37.5227,98.667 L46.1057,98.667" id="Stroke-20" stroke="#ED1458" stroke-width="2" mask="url(#mask-20)"></path>
                    <path d="M57.7727,98.667 L66.3557,98.667" id="Stroke-21" stroke="#ED1458" stroke-width="2" mask="url(#mask-20)"></path>
                </g>
            </g>
            <g id="Page-1" transform="translate(757.089844, 15.156250)">
                <polygon id="Fill-1" fill="#106FAE" points="51.9189 6.867 9.6689 43.867 9.6689 63.996 56.4439 23.034 94.1689 56.071 94.1689 43.867"></polygon>
                <polygon id="Fill-2" fill="#08ACA6" points="9.6687 63.9956 9.6687 134.8666 94.1687 134.8666 94.1687 56.0716 56.4437 23.0336"></polygon>
                <g id="Group-17" transform="translate(0.000000, 0.867000)">
                    <path d="M4.393,51.5396 C5.14,52.3926 6.435,52.4776 7.288,51.7316 L51.919,12.6466 L96.55,51.7316 C97.402,52.4776 98.698,52.3926 99.445,51.5396 L103.33,47.1026 C104.076,46.2506 103.99,44.9546 103.138,44.2076 L53.478,0.7196 C52.586,-0.0624 51.252,-0.0624 50.359,0.7196 L0.7,44.2076 C-0.152,44.9546 -0.238,46.2506 0.508,47.1026 L4.393,51.5396 Z" id="Fill-3" fill="#D30B50"></path>
                    <mask id="mask-22" fill="white">
                        <use xlink:href="#path-21"></use>
                    </mask>
                    <g id="Clip-6"></g>
                    <polygon id="Fill-5" fill="#106FAE" mask="url(#mask-22)" points="39.311 134 64.528 134 64.528 89.5 39.311 89.5"></polygon>
                    <path d="M51.9189,95.5625 C48.5019,95.5625 45.7319,98.3335 45.7319,101.7495 C45.7319,105.1665 48.5019,107.9375 51.9189,107.9375 C55.3359,107.9375 58.1059,105.1665 58.1059,101.7495 C58.1059,98.3335 55.3359,95.5625 51.9189,95.5625" id="Fill-7" fill="#FFFFFF" mask="url(#mask-22)"></path>
                    <path d="M33.2524,67.7134 C29.8354,67.7134 27.0654,70.4834 27.0654,73.9014 C27.0654,77.3184 29.8354,80.0884 33.2524,80.0884 C36.6694,80.0884 39.4394,77.3184 39.4394,73.9014 C39.4394,70.4834 36.6694,67.7134 33.2524,67.7134 Z" id="Stroke-8" stroke="#106FAE" stroke-width="3" mask="url(#mask-22)"></path>
                    <path d="M70.5854,67.7134 C67.1684,67.7134 64.3984,70.4834 64.3984,73.9014 C64.3984,77.3184 67.1684,80.0884 70.5854,80.0884 C74.0024,80.0884 76.7724,77.3184 76.7724,73.9014 C76.7724,70.4834 74.0024,67.7134 70.5854,67.7134 Z" id="Stroke-9" stroke="#106FAE" stroke-width="3" mask="url(#mask-22)"></path>
                    <path d="M51.9189,44.8647 C48.5019,44.8647 45.7319,47.6347 45.7319,51.0517 C45.7319,54.4687 48.5019,57.2397 51.9189,57.2397 C55.3359,57.2397 58.1059,54.4687 58.1059,51.0517 C58.1059,47.6347 55.3359,44.8647 51.9189,44.8647 Z" id="Stroke-10" stroke="#106FAE" stroke-width="3" mask="url(#mask-22)"></path>
                    <path d="M51.9189,44.8647 L51.9189,57.2397" id="Stroke-11" stroke="#106FAE" stroke-width="3" mask="url(#mask-22)"></path>
                    <path d="M58.1064,51.0522 L45.7314,51.0522" id="Stroke-12" stroke="#106FAE" stroke-width="3" mask="url(#mask-22)"></path>
                    <path d="M33.2524,67.7134 L33.2524,80.0884" id="Stroke-13" stroke="#106FAE" stroke-width="3" mask="url(#mask-22)"></path>
                    <path d="M39.4399,73.9014 L27.0649,73.9014" id="Stroke-14" stroke="#106FAE" stroke-width="3" mask="url(#mask-22)"></path>
                    <path d="M70.5854,67.7134 L70.5854,80.0884" id="Stroke-15" stroke="#106FAE" stroke-width="3" mask="url(#mask-22)"></path>
                    <path d="M76.7729,73.9014 L64.3979,73.9014" id="Stroke-16" stroke="#106FAE" stroke-width="3" mask="url(#mask-22)"></path>
                </g>
            </g>
        </g>
    </g>
</svg>