<svg id="d77aa276-63ba-4af3-aa0f-9c7d32d96f85" data-name="Layer 1" xmlns="http://www.w3.org/2000/svg" xmlns:xlink="http://www.w3.org/1999/xlink" viewBox="0 0 193.17 133.87">
  <defs>
    <mask id="e8c9aa31-27dd-46a3-8389-45f266462cdc" x="164" y="99.22" width="26.18" height="34.65" maskUnits="userSpaceOnUse">
      <g transform="translate(0 0)">
        <g id="578e2697-feb8-4180-bb19-6e0a9f496ca1" data-name="mask-2">
          <polygon id="3671ed55-43eb-457d-9bbc-f2eae1320ded" data-name="path-1" points="164 133.87 190.17 133.87 190.17 99.22 164 99.22 164 133.87" style="fill: #fff"/>
        </g>
      </g>
    </mask>
    <mask id="f7e8af3b-6c86-4613-93e0-eda2a399e24b" x="0" y="0" width="193.17" height="133.87" maskUnits="userSpaceOnUse">
      <g transform="translate(0 0)">
        <g id="3b56efd3-8b12-4e8b-aed9-50c726198af3" data-name="mask-4">
          <polygon id="7ef336c8-9435-44f1-b5ff-5f556b3454bb" data-name="path-3" points="0 133.87 193.17 133.87 193.17 0 0 0 0 133.87" style="fill: #fff"/>
        </g>
      </g>
    </mask>
  </defs>
  <title>houses</title>
  <g id="c3f4a673-685b-4200-8f18-1f185fc15197" data-name="Page-1">
    <g id="7855fe81-c6ea-4f4e-a8f4-85ba58787069" data-name="houses">
      <g id="787d51a0-7dad-468d-a02a-d2622fa820e3" data-name="Group-3">
        <path id="050459a0-e199-418a-8703-6095fe833abf" data-name="Fill-1" d="M96.25,11.84,54,49.51a129.89,129.89,0,0,0,9,35.08c7.75,19,7.75,49.28,7.75,49.28h51s0-30.28,7.75-49.28a129.89,129.89,0,0,0,9-35.08Z" transform="translate(0 0)" style="fill: #08aca6"/>
      </g>
      <polygon id="32e0a3f9-b1d9-4089-9670-52fc0c988d2b" data-name="Fill-4" points="177.09 94.21 164 105.67 164 111.91 178.49 99.22 190.17 109.46 190.17 105.67 177.09 94.21" style="fill: #106fae"/>
      <g id="6f5e1920-240e-480f-88e6-724e2899ba4d" data-name="Group-8">
        <g id="f935b0ad-d859-4308-93fd-5f0f989653d4" data-name="Fill-6-Clipped">
          <g style="mask: url(#e8c9aa31-27dd-46a3-8389-45f266462cdc)">
            <polygon id="d4329cb5-eee4-48de-b045-3264396485c0" data-name="Fill-6" points="164 111.91 164 133.87 190.17 133.87 190.17 109.45 178.49 99.22 164 111.91" style="fill: #08aca6"/>
          </g>
        </g>
      </g>
      <path id="93d1a458-c7e5-4642-ba50-3ceb9bf611e8" data-name="Fill-9" d="M162.36,108.32a.64.64,0,0,0,.9.06l13.83-12.11,13.83,12.11a.64.64,0,0,0,.9-.06l1.2-1.37a.63.63,0,0,0-.06-.9L177.57,92.58a.73.73,0,0,0-1,0L161.22,106a.63.63,0,0,0-.06.9Z" transform="translate(0 0)" style="fill: #d30b50"/>
      <g id="f719a894-97e1-49cf-a34d-dafb24e40e16" data-name="Fill-11-Clipped">
        <g style="mask: url(#f7e8af3b-6c86-4613-93e0-eda2a399e24b)">
          <polygon id="50a593ce-1894-4a4e-9668-2fc70ccf8921" data-name="Fill-11" points="173.18 133.87 180.99 133.87 180.99 120.08 173.18 120.08 173.18 133.87" style="fill: #106fae"/>
        </g>
      </g>
      <g id="6e9375e9-18e8-4a15-8bb8-51b120275205" data-name="Fill-13-Clipped">
        <g style="mask: url(#f7e8af3b-6c86-4613-93e0-eda2a399e24b)">
          <path id="a73c54b2-548a-4a0d-bf51-6992b7b4074e" data-name="Fill-13" d="M177.08,122a1.92,1.92,0,1,0,1.92,1.92,1.92,1.92,0,0,0-1.92-1.92" transform="translate(0 0)" style="fill: #f2f0c8"/>
        </g>
      </g>
      <g id="2a1d1896-2cde-4e4f-b082-a1d1291cfa35" data-name="Fill-14-Clipped">
        <g style="mask: url(#f7e8af3b-6c86-4613-93e0-eda2a399e24b)">
          <polygon id="28128a92-2d16-4155-bc19-bfed16627c5f" data-name="Fill-14" points="144.09 94.21 131 105.67 131 111.91 145.49 99.22 157.17 109.46 157.17 105.67 144.09 94.21" style="fill: #106fae"/>
        </g>
      </g>
      <g id="a828e5e6-644e-4325-bee1-211e82616359" data-name="Fill-15-Clipped">
        <g style="mask: url(#f7e8af3b-6c86-4613-93e0-eda2a399e24b)">
          <polygon id="103b33b8-f82e-46a8-ac3a-bf194eac22f9" data-name="Fill-15" points="131 111.91 131 133.87 157.17 133.87 157.17 109.45 145.49 99.22 131 111.91" style="fill: #08aca6"/>
        </g>
      </g>
      <g id="6c427cf1-0685-4832-8093-ae48f0676359" data-name="Fill-16-Clipped">
        <g style="mask: url(#f7e8af3b-6c86-4613-93e0-eda2a399e24b)">
          <path id="6703be0f-cd13-49b4-8797-cf62d19d4617" data-name="Fill-16" d="M129.36,108.32a.64.64,0,0,0,.9.06l13.83-12.11,13.83,12.11a.64.64,0,0,0,.9-.06l1.2-1.37a.63.63,0,0,0-.06-.9L144.57,92.58a.73.73,0,0,0-1,0L128.22,106a.63.63,0,0,0-.06.9Z" transform="translate(0 0)" style="fill: #d30b50"/>
        </g>
      </g>
      <g id="eedc0d54-5434-49bd-9d4a-d388742a737b" data-name="Fill-17-Clipped">
        <g style="mask: url(#f7e8af3b-6c86-4613-93e0-eda2a399e24b)">
          <polygon id="52701000-8d15-40ba-b2c2-7e015c89adfb" data-name="Fill-17" points="140.18 133.87 147.99 133.87 147.99 120.08 140.18 120.08 140.18 133.87" style="fill: #106fae"/>
        </g>
      </g>
      <g id="8b8fe8df-e0b5-4bea-a215-552ded16682b" data-name="Fill-18-Clipped">
        <g style="mask: url(#f7e8af3b-6c86-4613-93e0-eda2a399e24b)">
          <path id="5ef690c5-d384-4b14-92c9-abb4b055d2dd" data-name="Fill-18" d="M144.08,122a1.92,1.92,0,1,0,1.92,1.92,1.92,1.92,0,0,0-1.92-1.92" transform="translate(0 0)" style="fill: #f2f0c8"/>
        </g>
      </g>
      <g id="2608335a-46c2-4f2c-bd32-cc8ff43c5793" data-name="Fill-19-Clipped">
        <g style="mask: url(#f7e8af3b-6c86-4613-93e0-eda2a399e24b)">
          <polygon id="cbe7178f-fd23-4c61-a561-d67a1ad8bf14" data-name="Fill-19" points="49.09 94.21 36 105.67 36 111.91 50.49 99.22 62.17 109.46 62.17 105.67 49.09 94.21" style="fill: #106fae"/>
        </g>
      </g>
      <g id="d871b445-1cbb-490e-9526-3dbf193bf3a3" data-name="Fill-20-Clipped">
        <g style="mask: url(#f7e8af3b-6c86-4613-93e0-eda2a399e24b)">
          <polygon id="4cf97197-533a-499c-98fe-a6412a0a3aea" data-name="Fill-20" points="36 111.91 36 133.87 62.17 133.87 62.17 109.45 50.49 99.22 36 111.91" style="fill: #08aca6"/>
        </g>
      </g>
      <g id="68122704-6b2d-4ba5-83c1-9b41ff5f8995" data-name="Fill-21-Clipped">
        <g style="mask: url(#f7e8af3b-6c86-4613-93e0-eda2a399e24b)">
          <path id="ab1c05ee-b69b-46c7-ab33-b27bed329998" data-name="Fill-21" d="M34.36,108.32a.64.64,0,0,0,.9.06L49.08,96.27l13.83,12.11a.64.64,0,0,0,.9-.06l1.2-1.37A.63.63,0,0,0,65,106L49.57,92.58a.73.73,0,0,0-1,0L33.22,106a.63.63,0,0,0-.06.9Z" transform="translate(0 0)" style="fill: #d30b50"/>
        </g>
      </g>
      <g id="dfb8aab2-9598-4e13-8873-2a875b5f2327" data-name="Fill-22-Clipped">
        <g style="mask: url(#f7e8af3b-6c86-4613-93e0-eda2a399e24b)">
          <polygon id="466f3f7e-dd50-488a-9114-5e6dd6597512" data-name="Fill-22" points="45.18 133.87 52.99 133.87 52.99 120.08 45.18 120.08 45.18 133.87" style="fill: #106fae"/>
        </g>
      </g>
      <g id="6a29d79f-b986-4813-840d-f6079455cdd9" data-name="Fill-23-Clipped">
        <g style="mask: url(#f7e8af3b-6c86-4613-93e0-eda2a399e24b)">
          <path id="1b991401-3592-434b-bf34-8ac71837f3f2" data-name="Fill-23" d="M49.08,122A1.92,1.92,0,1,0,51,123.88,1.92,1.92,0,0,0,49.08,122" transform="translate(0 0)" style="fill: #f2f0c8"/>
        </g>
      </g>
      <g id="d2c06389-f36f-4e0a-bfdf-50e802d82cb1" data-name="Fill-24-Clipped">
        <g style="mask: url(#f7e8af3b-6c86-4613-93e0-eda2a399e24b)">
          <polygon id="3fb6e24d-0942-4e82-afc7-46a8b12dc20a" data-name="Fill-24" points="16.09 94.21 3 105.67 3 111.91 17.49 99.22 29.17 109.46 29.17 105.67 16.09 94.21" style="fill: #106fae"/>
        </g>
      </g>
      <g id="084a9824-dc7b-4cf0-90c0-89062167cf1e" data-name="Fill-25-Clipped">
        <g style="mask: url(#f7e8af3b-6c86-4613-93e0-eda2a399e24b)">
          <polygon id="e223e145-05d7-4a3c-9302-1c4e8d6953f2" data-name="Fill-25" points="3 111.91 3 133.87 29.17 133.87 29.17 109.45 17.49 99.22 3 111.91" style="fill: #08aca6"/>
        </g>
      </g>
      <g id="83aa7739-74cd-477e-90c8-6ca592648a2b" data-name="Fill-26-Clipped">
        <g style="mask: url(#f7e8af3b-6c86-4613-93e0-eda2a399e24b)">
          <path id="e1ccae27-dbe8-47b6-95a7-eb810ab5b0e7" data-name="Fill-26" d="M1.36,108.32a.64.64,0,0,0,.9.06L16.08,96.27l13.83,12.11a.64.64,0,0,0,.9-.06l1.2-1.37A.63.63,0,0,0,32,106L16.57,92.58a.73.73,0,0,0-1,0L.22,106a.63.63,0,0,0-.06.9Z" transform="translate(0 0)" style="fill: #d30b50"/>
        </g>
      </g>
      <g id="4aacb7a8-c210-4aaa-87af-3fe6738cc003" data-name="Fill-27-Clipped">
        <g style="mask: url(#f7e8af3b-6c86-4613-93e0-eda2a399e24b)">
          <polygon id="d581790a-5652-49d6-81e0-9086d2e42d87" data-name="Fill-27" points="12.18 133.87 19.99 133.87 19.99 120.08 12.18 120.08 12.18 133.87" style="fill: #106fae"/>
        </g>
      </g>
      <g id="a19f8431-e73c-4e70-b3e8-1084540628b1" data-name="Fill-28-Clipped">
        <g style="mask: url(#f7e8af3b-6c86-4613-93e0-eda2a399e24b)">
          <path id="cd4434b8-e613-4cf7-a9b2-a637b86cba1e" data-name="Fill-28" d="M16.08,122A1.92,1.92,0,1,0,18,123.88,1.92,1.92,0,0,0,16.08,122" transform="translate(0 0)" style="fill: #f2f0c8"/>
        </g>
      </g>
      <g id="cbcd6fbf-0559-4cf8-99eb-a23c861759f3" data-name="Fill-29-Clipped">
        <g style="mask: url(#f7e8af3b-6c86-4613-93e0-eda2a399e24b)">
          <path id="50098433-4770-474f-a2fe-0aa8ce61653b" data-name="Fill-29" d="M54,49.51a101.43,101.43,0,0,0,1.89,11.83L100.78,22l37.09,32.48c.49-3.16.63-5,.63-5L96.25,11.84Z" transform="translate(0 0)" style="fill: #106fae"/>
        </g>
      </g>
      <g id="2bd2035f-71bb-436e-989c-276feaf9e706" data-name="Fill-30-Clipped">
        <g style="mask: url(#f7e8af3b-6c86-4613-93e0-eda2a399e24b)">
          <path id="b9c7596d-724e-40f2-b297-1f699a7137d1" data-name="Fill-30" d="M48.72,51.41a2.05,2.05,0,0,0,2.9.19L96.25,12.51,140.88,51.6a2.05,2.05,0,0,0,2.9-.19L147.66,47a2.05,2.05,0,0,0-.19-2.9L97.81.59a2.37,2.37,0,0,0-3.12,0L45,44.07a2.05,2.05,0,0,0-.19,2.9Z" transform="translate(0 0)" style="fill: #d30b50"/>
        </g>
      </g>
      <g id="fc1f6fcf-69b1-417e-a581-cc25b9ad3bf5" data-name="Fill-31-Clipped">
        <g style="mask: url(#f7e8af3b-6c86-4613-93e0-eda2a399e24b)">
          <polygon id="2dfa330d-3857-4967-9c7a-9aa2bab248fe" data-name="Fill-31" points="83.64 133.87 108.86 133.87 108.86 89.37 83.64 89.37 83.64 133.87" style="fill: #106fae"/>
        </g>
      </g>
      <g id="a7b9cfe6-15f4-4479-92cd-edcf45478e73" data-name="Fill-32-Clipped">
        <g style="mask: url(#f7e8af3b-6c86-4613-93e0-eda2a399e24b)">
          <path id="b6ea04be-d50d-483c-add6-483bdf10cc51" data-name="Fill-32" d="M96.25,95.43a6.19,6.19,0,1,0,6.19,6.19,6.19,6.19,0,0,0-6.19-6.19" transform="translate(0 0)" style="fill: #f2f0c8"/>
        </g>
      </g>
    </g>
  </g>
</svg>
