<?xml version="1.0" encoding="UTF-8"?>
<svg width="194px" height="134px" viewBox="0 0 194 134" version="1.1" xmlns="http://www.w3.org/2000/svg" xmlns:xlink="http://www.w3.org/1999/xlink">
    <!-- Generator: Sketch 43.2 (39069) - http://www.bohemiancoding.com/sketch -->
    <title>Page 1</title>
    <desc>Created with Sketch.</desc>
    <defs>
        <polygon id="path-1" points="54.0001 134 193.169 134 193.169 0.133 0 0.133 0 134 54.0001 134 138.5001 134.0001 138.5001 11.9751 54.0001 11.9751"></polygon>
        <polygon id="path-3" points="0.9957 35 27.1737 35 27.1737 0.3544 0.9957 0.3544"></polygon>
        <polygon id="path-5" points="0 134.867 193.169 134.867 193.169 1 0 1"></polygon>
    </defs>
    <g id="Page-1" stroke="none" stroke-width="1" fill="none" fill-rule="evenodd">
        <g transform="translate(0.000000, -1.000000)">
            <g id="Group-3" transform="translate(0.000000, 0.867000)">
                <mask id="mask-2" fill="white">
                    <use xlink:href="#path-1"></use>
                </mask>
                <g id="Clip-2"></g>
                <path d="M96.2501,11.9751 L54.0001,49.6461 C54.0001,49.6461 55.2501,65.7251 63.0001,84.7251 C70.7501,103.7251 70.7501,134.0001 70.7501,134.0001 L96.2501,134.0001 L121.7501,134.0001 C121.7501,134.0001 121.7501,103.7251 129.5001,84.7251 C137.2501,65.7251 138.5001,49.6461 138.5001,49.6461 L96.2501,11.9751 Z" id="Fill-1" fill="#08ACA6"></path>
            </g>
            <polygon id="Fill-4" fill="#106FAE" points="177.0845 95.2127 163.9955 106.6747 163.9955 112.9117 178.4865 100.2207 190.1735 110.4557 190.1735 106.6747"></polygon>
            <g id="Group-8" transform="translate(163.000000, 99.867000)">
                <mask id="mask-4" fill="white">
                    <use xlink:href="#path-3"></use>
                </mask>
                <g id="Clip-7"></g>
                <polygon id="Fill-6" fill="#08ACA6" mask="url(#mask-4)" points="0.9957 13.0444 0.9957 35.0004 27.1737 35.0004 27.1737 10.5884 15.4867 0.3544"></polygon>
            </g>
            <path d="M162.3609,109.3206 C162.5919,109.5846 162.9939,109.6116 163.2579,109.3806 L177.0849,97.2716 L190.9109,109.3806 C191.1749,109.6116 191.5769,109.5846 191.8079,109.3206 L193.0119,107.9456 C193.2429,107.6826 193.2159,107.2806 192.9519,107.0496 L177.5679,93.5766 C177.2909,93.3346 176.8779,93.3346 176.6009,93.5766 L161.2169,107.0496 C160.9529,107.2806 160.9259,107.6826 161.1569,107.9456 L162.3609,109.3206 Z" id="Fill-9" fill="#D30B50"></path>
            <mask id="mask-6" fill="white">
                <use xlink:href="#path-5"></use>
            </mask>
            <g id="Clip-12"></g>
            <polygon id="Fill-11" fill="#106FAE" mask="url(#mask-6)" points="173.178 134.867 180.99 134.867 180.99 121.081 173.178 121.081"></polygon>
            <path d="M177.0845,122.9593 C176.0255,122.9593 175.1675,123.8173 175.1675,124.8763 C175.1675,125.9343 176.0255,126.7923 177.0845,126.7923 C178.1435,126.7923 179.0015,125.9343 179.0015,124.8763 C179.0015,123.8173 178.1435,122.9593 177.0845,122.9593" id="Fill-13" fill="#F2F0C8" mask="url(#mask-6)"></path>
            <polygon id="Fill-14" fill="#106FAE" mask="url(#mask-6)" points="144.0845 95.2127 130.9955 106.6747 130.9955 112.9117 145.4865 100.2207 157.1735 110.4557 157.1735 106.6747"></polygon>
            <polygon id="Fill-15" fill="#08ACA6" mask="url(#mask-6)" points="130.9957 112.9114 130.9957 134.8674 157.1737 134.8674 157.1737 110.4554 145.4867 100.2214"></polygon>
            <path d="M129.3609,109.3206 C129.5919,109.5846 129.9939,109.6116 130.2579,109.3806 L144.0849,97.2716 L157.9109,109.3806 C158.1749,109.6116 158.5769,109.5846 158.8079,109.3206 L160.0119,107.9456 C160.2429,107.6826 160.2159,107.2806 159.9519,107.0496 L144.5679,93.5766 C144.2909,93.3346 143.8779,93.3346 143.6009,93.5766 L128.2169,107.0496 C127.9529,107.2806 127.9259,107.6826 128.1569,107.9456 L129.3609,109.3206 Z" id="Fill-16" fill="#D30B50" mask="url(#mask-6)"></path>
            <polygon id="Fill-17" fill="#106FAE" mask="url(#mask-6)" points="140.178 134.867 147.99 134.867 147.99 121.081 140.178 121.081"></polygon>
            <path d="M144.0845,122.9593 C143.0255,122.9593 142.1675,123.8173 142.1675,124.8763 C142.1675,125.9343 143.0255,126.7923 144.0845,126.7923 C145.1435,126.7923 146.0015,125.9343 146.0015,124.8763 C146.0015,123.8173 145.1435,122.9593 144.0845,122.9593" id="Fill-18" fill="#F2F0C8" mask="url(#mask-6)"></path>
            <polygon id="Fill-19" fill="#106FAE" mask="url(#mask-6)" points="49.0845 95.2127 35.9955 106.6747 35.9955 112.9117 50.4865 100.2207 62.1735 110.4557 62.1735 106.6747"></polygon>
            <polygon id="Fill-20" fill="#08ACA6" mask="url(#mask-6)" points="35.9957 112.9114 35.9957 134.8674 62.1737 134.8674 62.1737 110.4554 50.4867 100.2214"></polygon>
            <path d="M34.3609,109.3206 C34.5919,109.5846 34.9939,109.6116 35.2579,109.3806 L49.0849,97.2716 L62.9109,109.3806 C63.1749,109.6116 63.5769,109.5846 63.8079,109.3206 L65.0119,107.9456 C65.2429,107.6826 65.2159,107.2806 64.9519,107.0496 L49.5679,93.5766 C49.2909,93.3346 48.8779,93.3346 48.6009,93.5766 L33.2169,107.0496 C32.9529,107.2806 32.9259,107.6826 33.1569,107.9456 L34.3609,109.3206 Z" id="Fill-21" fill="#D30B50" mask="url(#mask-6)"></path>
            <polygon id="Fill-22" fill="#106FAE" mask="url(#mask-6)" points="45.178 134.867 52.99 134.867 52.99 121.081 45.178 121.081"></polygon>
            <path d="M49.0845,122.9593 C48.0255,122.9593 47.1675,123.8173 47.1675,124.8763 C47.1675,125.9343 48.0255,126.7923 49.0845,126.7923 C50.1435,126.7923 51.0015,125.9343 51.0015,124.8763 C51.0015,123.8173 50.1435,122.9593 49.0845,122.9593" id="Fill-23" fill="#F2F0C8" mask="url(#mask-6)"></path>
            <polygon id="Fill-24" fill="#106FAE" mask="url(#mask-6)" points="16.0845 95.2127 2.9955 106.6747 2.9955 112.9117 17.4865 100.2207 29.1735 110.4557 29.1735 106.6747"></polygon>
            <polygon id="Fill-25" fill="#08ACA6" mask="url(#mask-6)" points="2.9957 112.9114 2.9957 134.8674 29.1737 134.8674 29.1737 110.4554 17.4867 100.2214"></polygon>
            <path d="M1.3609,109.3206 C1.5919,109.5846 1.9939,109.6116 2.2579,109.3806 L16.0849,97.2716 L29.9109,109.3806 C30.1749,109.6116 30.5769,109.5846 30.8079,109.3206 L32.0119,107.9456 C32.2429,107.6826 32.2159,107.2806 31.9519,107.0496 L16.5679,93.5766 C16.2909,93.3346 15.8779,93.3346 15.6009,93.5766 L0.2169,107.0496 C-0.0471,107.2806 -0.0741,107.6826 0.1569,107.9456 L1.3609,109.3206 Z" id="Fill-26" fill="#D30B50" mask="url(#mask-6)"></path>
            <polygon id="Fill-27" fill="#106FAE" mask="url(#mask-6)" points="12.178 134.867 19.99 134.867 19.99 121.081 12.178 121.081"></polygon>
            <path d="M16.0845,122.9593 C15.0255,122.9593 14.1675,123.8173 14.1675,124.8763 C14.1675,125.9343 15.0255,126.7923 16.0845,126.7923 C17.1435,126.7923 18.0015,125.9343 18.0015,124.8763 C18.0015,123.8173 17.1435,122.9593 16.0845,122.9593" id="Fill-28" fill="#F2F0C8" mask="url(#mask-6)"></path>
            <path d="M54.0001,50.5135 C54.0001,50.5135 54.3601,55.1345 55.8861,62.3445 L100.7751,23.0335 L137.8681,55.5175 C138.3561,52.3545 138.5001,50.5135 138.5001,50.5135 L96.2501,12.8425 L54.0001,50.5135 Z" id="Fill-29" fill="#106FAE" mask="url(#mask-6)"></path>
            <path d="M48.7242,52.4065 C49.4712,53.2595 50.7662,53.3445 51.6192,52.5985 L96.2502,13.5135 L140.8812,52.5985 C141.7332,53.3445 143.0292,53.2595 143.7762,52.4065 L147.6612,47.9695 C148.4072,47.1175 148.3212,45.8215 147.4692,45.0745 L97.8092,1.5865 C96.9162,0.8045 95.5832,0.8045 94.6902,1.5865 L45.0312,45.0745 C44.1792,45.8215 44.0932,47.1175 44.8392,47.9695 L48.7242,52.4065 Z" id="Fill-30" fill="#D30B50" mask="url(#mask-6)"></path>
            <polygon id="Fill-31" fill="#106FAE" mask="url(#mask-6)" points="83.642 134.867 108.859 134.867 108.859 90.367 83.642 90.367"></polygon>
            <path d="M96.2501,96.4295 C92.8331,96.4295 90.0631,99.1995 90.0631,102.6165 C90.0631,106.0335 92.8331,108.8045 96.2501,108.8045 C99.6671,108.8045 102.4371,106.0335 102.4371,102.6165 C102.4371,99.1995 99.6671,96.4295 96.2501,96.4295" id="Fill-32" fill="#F2F0C8" mask="url(#mask-6)"></path>
        </g>
    </g>
</svg>