<svg id="78828f78-802a-4ae0-91a6-a226489009e4" data-name="Layer 1" xmlns="http://www.w3.org/2000/svg" xmlns:xlink="http://www.w3.org/1999/xlink" viewBox="0 0 170.1 114.67">
  <defs>
    <mask id="6d6005e4-9937-4140-be11-a3687e6dfdf0" x="10.53" y="20.92" width="106.8" height="93.76" maskUnits="userSpaceOnUse">
      <g transform="translate(0 0)">
        <g id="e5006620-04b0-48ef-9a86-403e054380fb" data-name="mask-2">
          <polygon id="0d933a93-9259-4124-b0d3-a9bd3f0ab58f" data-name="path-1" points="10.53 114.67 117.33 114.67 117.33 20.92 10.53 20.92 10.53 114.67" style="fill: #fff"/>
        </g>
      </g>
    </mask>
  </defs>
  <title>house-safe</title>
  <g id="6218b090-4edf-46d8-8502-e07378b78667" data-name="Page-1">
    <g>
      <path id="d235aeec-8b35-4794-9fe0-432734a256c7" data-name="Fill-1" d="M157.62,113.25h-5a1.16,1.16,0,0,1-1.16-1.16V79.58h7.33v32.5a1.16,1.16,0,0,1-1.16,1.16" transform="translate(0 0)" style="fill: #106fae"/>
      <path id="32546a89-f979-4b6a-ae27-7f90cba406d8" data-name="Fill-3" d="M170.1,85.54c0,6-4,10.87-8.82,10.87s-8.82-4.87-8.82-10.87,4-10.87,8.82-10.87,8.82,4.87,8.82,10.87" transform="translate(0 0)" style="fill: #ed1458"/>
      <path id="3748f5c9-6162-46c3-8d00-1f75f63f4991" data-name="Fill-5" d="M158.78,82.45c0,6-4,10.87-8.82,10.87s-8.82-4.87-8.82-10.87,4-10.87,8.82-10.87,8.82,4.87,8.82,10.87" transform="translate(0 0)" style="fill: #ed1458"/>
      <path id="e6cd3810-d685-4ff6-b261-96d8a9b106b8" data-name="Fill-7" d="M166.12,73.24c0,6.41-4.22,11.6-9.42,11.6s-9.42-5.19-9.42-11.6,4.22-11.6,9.42-11.6,9.42,5.19,9.42,11.6" transform="translate(0 0)" style="fill: #ed1458"/>
      <path id="2730f7a7-24cf-484a-8429-f9402464caf7" data-name="Fill-9" d="M157.5,70.25A1.55,1.55,0,1,1,156,68.69a1.55,1.55,0,0,1,1.55,1.55" transform="translate(0 0)" style="fill: #630f33"/>
      <path id="2b1dc526-764d-4cdd-a357-620ea7eba18e" data-name="Fill-11" d="M148.47,76a1.55,1.55,0,1,1,1,1.93,1.55,1.55,0,0,1-1-1.93" transform="translate(0 0)" style="fill: #630f33"/>
      <path id="a3745b5c-be51-462e-89e8-37368dd00475" data-name="Fill-13" d="M159.79,81.18a1.55,1.55,0,1,1,1,1.93,1.55,1.55,0,0,1-1-1.93" transform="translate(0 0)" style="fill: #630f33"/>
      <path id="d6d98818-9d2d-4878-b202-f5742426aefb" data-name="Fill-15" d="M155.18,84.53a1.55,1.55,0,1,1,.57-2.12,1.55,1.55,0,0,1-.57,2.12" transform="translate(0 0)" style="fill: #630f33"/>
      <path id="09335847-6224-43e6-9956-e828592f82aa" data-name="Fill-17" d="M148.06,87.74a1.55,1.55,0,1,1,.57-2.12,1.55,1.55,0,0,1-.57,2.12" transform="translate(0 0)" style="fill: #630f33"/>
      <path id="902f964c-e060-4a31-a786-0c2788766b9a" data-name="Fill-19" d="M161.11,93.12a1.55,1.55,0,1,1,.57-2.12,1.55,1.55,0,0,1-.57,2.12" transform="translate(0 0)" style="fill: #630f33"/>
      <polygon id="1e0d87eb-8eb9-43bc-8b80-5d0bcbccfbf3" data-name="Fill-21" points="117.33 35.24 117.33 23.01 63.93 6.29 10.53 23.01 10.53 40.03 71.57 20.92 117.33 35.24" style="fill: #e50647"/>
      <g id="94dc91fc-3df1-4f78-8682-76e4b07e176f" data-name="Group-25">
        <g style="mask: url(#6d6005e4-9937-4140-be11-a3687e6dfdf0)">
          <polygon id="f26e4fd1-b8c3-4f53-859b-18376512e4b5" data-name="Fill-23" points="117.33 114.67 117.33 35.24 71.57 20.92 10.53 40.03 10.53 114.67 117.33 114.67" style="fill: #106fae"/>
        </g>
      </g>
      <path id="f4366f03-29e7-4d01-9622-addc7be7be90" data-name="Fill-26" d="M2.72,30.07a1.91,1.91,0,0,0,2.4,1.25L63.93,12.91l58.81,18.41a1.91,1.91,0,0,0,2.39-1.25l2.64-8.41a1.91,1.91,0,0,0-1.25-2.4L66,.32a6.91,6.91,0,0,0-4.14,0L1.34,19.26a1.91,1.91,0,0,0-1.25,2.4Z" transform="translate(0 0)" style="fill: #106fae"/>
      <path id="7e98794f-778f-4483-92bd-8868f5894fdf" data-name="Stroke-28" d="M82.58,67.8A18.65,18.65,0,1,1,63.93,49.15,18.65,18.65,0,0,1,82.58,67.8Z" transform="translate(0 0)" style="fill: none;stroke: #8fbbde;stroke-width: 3px"/>
      <path id="7e91b9b9-ac93-4638-822c-e4c642bbe1c7" data-name="Fill-30" d="M102.42,84.77a2.68,2.68,0,1,1-2.68-2.68,2.68,2.68,0,0,1,2.68,2.68" transform="translate(0 0)" style="fill: #e3db7c"/>
      <path id="740043b8-c7cc-4aba-8bdc-59099fff8af6" data-name="Fill-32" d="M107,67.8a7.27,7.27,0,1,1-7.27-7.27A7.27,7.27,0,0,1,107,67.8" transform="translate(0 0)" style="fill: #0074bb"/>
      <path id="cd749f1c-e809-4a09-a905-33cdbc3cb040" data-name="Fill-34" d="M104.49,67.8a4.75,4.75,0,1,1-4.75-4.75,4.75,4.75,0,0,1,4.75,4.75" transform="translate(0 0)" style="fill: #e3db7c"/>
      <polygon id="b1301435-fc83-427e-b877-835e16fbee56" data-name="Fill-36" points="95 67.8 97.06 84.77 102.42 84.77 104.49 67.8 95 67.8" style="fill: #e3db7c"/>
      <path id="5bc34bd5-f517-4ecb-921f-ab131db30f4e" data-name="Fill-38" d="M71.2,67.8a7.27,7.27,0,1,1-7.27-7.27A7.27,7.27,0,0,1,71.2,67.8" transform="translate(0 0)" style="fill: #8fbbde"/>
      <path id="b7a82b32-3f87-42e6-8712-db661203fa11" data-name="Stroke-40" d="M63.93,56.48V53.32" transform="translate(0 0)" style="fill: none;stroke: #8fbbde;stroke-width: 3px"/>
      <path id="47d12ee9-4a17-4c49-a2d3-36de57ecfbb4" data-name="Stroke-42" d="M67.8,57.16l1.08-3" transform="translate(0 0)" style="fill: none;stroke: #8fbbde;stroke-width: 3px"/>
      <path id="766f06ff-4e43-4acf-8116-3a957afcd75e" data-name="Stroke-44" d="M71.2,59.13l2-2.42" transform="translate(0 0)" style="fill: none;stroke: #8fbbde;stroke-width: 3px"/>
      <path id="24d90ecc-114f-462e-a709-500d6b3b23b8" data-name="Stroke-46" d="M73.73,62.14l2.74-1.58" transform="translate(0 0)" style="fill: none;stroke: #8fbbde;stroke-width: 3px"/>
      <path id="cfd97216-9033-460e-95bd-e9c23c2055d8" data-name="Stroke-48" d="M75.07,65.83l3.11-.55" transform="translate(0 0)" style="fill: none;stroke: #8fbbde;stroke-width: 3px"/>
      <path id="c01e1a9c-5dbf-4d50-98b9-9d1bf72e57a1" data-name="Stroke-50" d="M75.07,69.76l3.11.55" transform="translate(0 0)" style="fill: none;stroke: #8fbbde;stroke-width: 3px"/>
      <path id="c7c8c999-87fe-4cce-b362-1c7284e41f3e" data-name="Stroke-52" d="M73.73,73.45,76.47,75" transform="translate(0 0)" style="fill: none;stroke: #8fbbde;stroke-width: 3px"/>
      <path id="1edfe0ac-a25c-4431-b741-bd0abc44ae4f" data-name="Stroke-54" d="M71.2,76.47l2,2.42" transform="translate(0 0)" style="fill: none;stroke: #8fbbde;stroke-width: 3px"/>
      <path id="2bf26655-4875-4686-b336-449a476a7f89" data-name="Stroke-56" d="M67.8,78.43l1.08,3" transform="translate(0 0)" style="fill: none;stroke: #8fbbde;stroke-width: 3px"/>
      <path id="f15c58f2-2e4f-4a8b-8f94-820a0f9e6a2b" data-name="Stroke-58" d="M63.93,79.11v3.16" transform="translate(0 0)" style="fill: none;stroke: #8fbbde;stroke-width: 3px"/>
      <path id="6ebdd31d-7df1-4712-af47-ba80c0a5cf36" data-name="Stroke-60" d="M60.06,78.43,59,81.4" transform="translate(0 0)" style="fill: none;stroke: #8fbbde;stroke-width: 3px"/>
      <path id="8fac1859-774d-47ef-9197-e27e99232d5d" data-name="Stroke-62" d="M56.66,76.47l-2,2.42" transform="translate(0 0)" style="fill: none;stroke: #8fbbde;stroke-width: 3px"/>
      <path id="47fff55d-a894-4c16-b7cc-d530b6f50ed5" data-name="Stroke-64" d="M54.13,73.45,51.39,75" transform="translate(0 0)" style="fill: none;stroke: #8fbbde;stroke-width: 3px"/>
      <path id="6c481b7a-29e6-43a4-93b2-a966380eea75" data-name="Stroke-66" d="M52.79,69.76l-3.11.55" transform="translate(0 0)" style="fill: none;stroke: #8fbbde;stroke-width: 3px"/>
      <path id="c72334ce-a4c7-4618-a723-b9bc9d452f1b" data-name="Stroke-68" d="M52.79,65.83l-3.11-.55" transform="translate(0 0)" style="fill: none;stroke: #8fbbde;stroke-width: 3px"/>
      <path id="10934889-3120-4b97-8757-90af42eea4f9" data-name="Stroke-70" d="M54.13,62.14l-2.74-1.58" transform="translate(0 0)" style="fill: none;stroke: #8fbbde;stroke-width: 3px"/>
      <path id="62bd1ccf-5021-4632-a967-03102d551c61" data-name="Stroke-72" d="M56.66,59.13l-2-2.42" transform="translate(0 0)" style="fill: none;stroke: #8fbbde;stroke-width: 3px"/>
      <path id="03dc4221-eb3e-405f-8e03-ae08499355f2" data-name="Stroke-74" d="M60.06,57.16l-1.08-3" transform="translate(0 0)" style="fill: none;stroke: #8fbbde;stroke-width: 3px"/>
    </g>
  </g>
</svg>
