<svg id="Layer_1" data-name="Layer 1" xmlns="http://www.w3.org/2000/svg" viewBox="0 0 306.46 173.46">
  <title>maze</title>
  <g id="Page-1">
    <g>
      <path id="Stroke-1" d="M134,170.73H6.92a4.2,4.2,0,0,1-4.19-4.19V6.92A4.2,4.2,0,0,1,6.92,2.73H299.54a4.2,4.2,0,0,1,4.19,4.19V166.54a4.2,4.2,0,0,1-4.19,4.19H149.73" transform="translate(0 0)" style="fill: none;stroke: #0067a6;stroke-linecap: round;stroke-width: 5.459000110626221px"/>
      <polyline id="Stroke-3" points="149.73 170.73 149.73 152.73 22.73 152.73 22.73 130.73" style="fill: none;stroke: #0067a6;stroke-linecap: round;stroke-width: 5.459000110626221px"/>
      <polyline id="Stroke-5" points="2.73 111.73 45.23 111.73 45.23 133.73 79.23 133.73" style="fill: none;stroke: #0067a6;stroke-linecap: round;stroke-width: 5.459000110626221px"/>
      <polyline id="Stroke-7" points="95.73 152.73 95.73 109.23 61.73 109.23 61.73 25.23 97.73 25.23" style="fill: none;stroke: #0067a6;stroke-linecap: round;stroke-width: 5.459000110626221px"/>
      <polyline id="Stroke-9" points="60.73 50.23 22.73 50.23 22.73 68.23 44.73 68.23 44.73 89.22 22.73 89.22" style="fill: none;stroke: #0067a6;stroke-linecap: round;stroke-width: 5.459000110626221px"/>
      <polyline id="Stroke-11" points="44.73 2.73 44.73 30.23 22.73 30.23 22.73 19.23" style="fill: none;stroke: #0067a6;stroke-linecap: round;stroke-width: 5.459000110626221px"/>
      <polyline id="Stroke-13" points="120.73 17.9 120.73 50.23 79.73 50.23 79.73 69.72 111.73 69.72 111.73 86.73 79.73 86.73" style="fill: none;stroke: #0067a6;stroke-linecap: round;stroke-width: 5.459000110626221px"/>
      <polyline id="Stroke-15" points="303.73 76.23 272.23 76.23 272.23 50.23 221.23 50.23 221.23 76.23 192.23 76.23 192.23 111.73 267.48 111.73 267.48 140.73 251.73 140.73 251.73 124.73 232.98 124.73 232.98 140.73 181.23 140.73 181.23 116.98 160.22 116.98" style="fill: none;stroke: #0067a6;stroke-linecap: round;stroke-width: 5.459000110626221px"/>
      <polyline id="Stroke-17" points="202.48 93.48 238.48 93.48 238.48 68.73 255.4 68.73 255.4 94.56 287.06 94.56 287.06 155.9 161.4 155.9 161.4 132.23 130.23 132.23 111.73 132.23 111.73 86.73" style="fill: none;stroke: #0067a6;stroke-linecap: round;stroke-width: 5.459000110626221px"/>
      <path id="Stroke-19" d="M141.73,132.23v-17.5" transform="translate(0 0)" style="fill: none;stroke: #0067a6;stroke-linecap: round;stroke-width: 5.459000110626221px"/>
      <polyline id="Stroke-21" points="288.06 59.34 288.06 17.9 139.24 17.9 139.24 34.23 275.06 34.23" style="fill: none;stroke: #0067a6;stroke-linecap: round;stroke-width: 5.459000110626221px"/>
      <path id="Stroke-23" d="M208.06,34.23V55.9" transform="translate(0 0)" style="fill: none;stroke: #0067a6;stroke-linecap: round;stroke-width: 5.459000110626221px"/>
      <path id="Stroke-25" d="M192.23,76.23v-42" transform="translate(0 0)" style="fill: none;stroke: #0067a6;stroke-linecap: round;stroke-width: 5.459000110626221px"/>
      <path id="Stroke-27" d="M149.73,34.23h-29" transform="translate(0 0)" style="fill: none;stroke: #0067a6;stroke-linecap: round;stroke-width: 5.459000110626221px"/>
      <path id="Fill-29" d="M169.58,89.76a21.68,21.68,0,1,1-11.12-28.57,21.68,21.68,0,0,1,11.12,28.57" transform="translate(0 0)" style="fill: #f2f0c8"/>
      <path id="Stroke-31" d="M169.58,89.76a21.68,21.68,0,1,1-11.12-28.57A21.68,21.68,0,0,1,169.58,89.76Z" transform="translate(0 0)" style="fill: none;stroke: #e3db7c;stroke-width: 7.2270002365112305px"/>
      <path id="Fill-33" d="M155.22,88a4.12,4.12,0,0,1,0,.59,1.53,1.53,0,0,1-.11.39.51.51,0,0,1-.16.21.33.33,0,0,1-.2.06h-10a.33.33,0,0,1-.2-.06.53.53,0,0,1-.16-.21,1.49,1.49,0,0,1-.1-.39,4,4,0,0,1,0-.59,4.66,4.66,0,0,1,0-.6,1.34,1.34,0,0,1,.1-.39.49.49,0,0,1,.16-.21.36.36,0,0,1,.21-.06h1.32V82.26h-1.32a.36.36,0,0,1-.2-.06.47.47,0,0,1-.16-.2,1.41,1.41,0,0,1-.1-.38,3.93,3.93,0,0,1,0-.6,4.39,4.39,0,0,1,0-.59,1.24,1.24,0,0,1,.1-.38.48.48,0,0,1,.16-.21.36.36,0,0,1,.21-.06h1.32V78.64a9,9,0,0,1,.34-2.62,4.67,4.67,0,0,1,1-1.81,3.81,3.81,0,0,1,1.61-1,6.76,6.76,0,0,1,2.2-.33,6.64,6.64,0,0,1,1.05.08,5.94,5.94,0,0,1,.93.22,4.53,4.53,0,0,1,.77.34,2.25,2.25,0,0,1,.5.35,2.07,2.07,0,0,1,.22.27.85.85,0,0,1,.1.26,2.64,2.64,0,0,1,.06.38c0,.15,0,.33,0,.55a4.56,4.56,0,0,1,0,.58,1.45,1.45,0,0,1-.09.38.49.49,0,0,1-.15.21.31.31,0,0,1-.19.06.65.65,0,0,1-.39-.18,5.93,5.93,0,0,0-.55-.38,4.82,4.82,0,0,0-.78-.38,3,3,0,0,0-1.07-.17,2.46,2.46,0,0,0-1.06.21,1.78,1.78,0,0,0-.71.6,2.65,2.65,0,0,0-.4,1,6.34,6.34,0,0,0-.12,1.32v1.27h3.35a.36.36,0,0,1,.21.06.46.46,0,0,1,.15.21,1.66,1.66,0,0,1,.1.38,4,4,0,0,1,0,.59,4.06,4.06,0,0,1,0,.6A1.49,1.49,0,0,1,153,82a.47.47,0,0,1-.16.2.36.36,0,0,1-.2.06h-3.35v4.43h5.43a.37.37,0,0,1,.21.06.46.46,0,0,1,.15.21,1.76,1.76,0,0,1,.1.39,4.22,4.22,0,0,1,0,.6" transform="translate(0 0)" style="fill: #edc913"/>
    </g>
  </g>
</svg>
