<?xml version="1.0" encoding="UTF-8"?>
<svg width="307px" height="174px" viewBox="0 0 307 174" version="1.1" xmlns="http://www.w3.org/2000/svg" xmlns:xlink="http://www.w3.org/1999/xlink">
    <!-- Generator: Sketch 43.2 (39069) - http://www.bohemiancoding.com/sketch -->
    <title>Page 1</title>
    <desc>Created with Sketch.</desc>
    <defs></defs>
    <g id="Page-1" stroke="none" stroke-width="1" fill="none" fill-rule="evenodd">
        <g transform="translate(2.000000, 2.000000)">
            <path d="M132.0382,168.7294 L4.9182,168.7294 C2.6142,168.7294 0.7292,166.8444 0.7292,164.5414 L0.7292,4.9174 C0.7292,2.6144 2.6142,0.7294 4.9182,0.7294 L297.5412,0.7294 C299.8452,0.7294 301.7292,2.6144 301.7292,4.9174 L301.7292,164.5414 C301.7292,166.8444 299.8452,168.7294 297.5412,168.7294 L147.7292,168.7294" id="Stroke-1" stroke="#0067A6" stroke-width="5.459" stroke-linecap="round"></path>
            <polyline id="Stroke-3" stroke="#0067A6" stroke-width="5.459" stroke-linecap="round" points="147.7296 168.7294 147.7296 150.7294 20.7296 150.7294 20.7296 128.7294"></polyline>
            <polyline id="Stroke-5" stroke="#0067A6" stroke-width="5.459" stroke-linecap="round" points="0.7296 109.7294 43.2296 109.7294 43.2296 131.7294 77.2296 131.7294"></polyline>
            <polyline id="Stroke-7" stroke="#0067A6" stroke-width="5.459" stroke-linecap="round" points="93.7296 150.7294 93.7296 107.2294 59.7296 107.2294 59.7296 23.2294 95.7296 23.2294"></polyline>
            <polyline id="Stroke-9" stroke="#0067A6" stroke-width="5.459" stroke-linecap="round" points="58.7296 48.2294 20.7296 48.2294 20.7296 66.2294 42.7296 66.2294 42.7296 87.2154 20.7296 87.2154"></polyline>
            <polyline id="Stroke-11" stroke="#0067A6" stroke-width="5.459" stroke-linecap="round" points="42.7296 0.7294 42.7296 28.2294 20.7296 28.2294 20.7296 17.2294"></polyline>
            <polyline id="Stroke-13" stroke="#0067A6" stroke-width="5.459" stroke-linecap="round" points="118.7296 15.8964 118.7296 48.2294 77.7296 48.2294 77.7296 67.7224 109.7296 67.7224 109.7296 84.7294 77.7296 84.7294"></polyline>
            <polyline id="Stroke-15" stroke="#0067A6" stroke-width="5.459" stroke-linecap="round" points="301.7296 74.2294 270.2296 74.2294 270.2296 48.2294 219.2296 48.2294 219.2296 74.2294 190.2296 74.2294 190.2296 109.7294 265.4796 109.7294 265.4796 138.7294 249.7296 138.7294 249.7296 122.7294 230.9796 122.7294 230.9796 138.7294 179.2296 138.7294 179.2296 114.9794 158.2196 114.9794"></polyline>
            <polyline id="Stroke-17" stroke="#0067A6" stroke-width="5.459" stroke-linecap="round" points="200.4796 91.4794 236.4796 91.4794 236.4796 66.7294 253.3966 66.7294 253.3966 92.5624 285.0626 92.5624 285.0626 153.8964 159.3966 153.8964 159.3966 130.2294 128.2296 130.2294 109.7296 130.2294 109.7296 84.7294"></polyline>
            <path d="M139.7296,130.2294 L139.7296,112.7294" id="Stroke-19" stroke="#0067A6" stroke-width="5.459" stroke-linecap="round"></path>
            <polyline id="Stroke-21" stroke="#0067A6" stroke-width="5.459" stroke-linecap="round" points="286.0627 57.3427 286.0627 15.8967 137.2397 15.8967 137.2397 32.2297 273.0627 32.2297"></polyline>
            <path d="M206.0626,32.2294 L206.0626,53.8964" id="Stroke-23" stroke="#0067A6" stroke-width="5.459" stroke-linecap="round"></path>
            <path d="M190.2296,74.2294 L190.2296,32.2294" id="Stroke-25" stroke="#0067A6" stroke-width="5.459" stroke-linecap="round"></path>
            <path d="M147.7296,32.2294 L118.7296,32.2294" id="Stroke-27" stroke="#0067A6" stroke-width="5.459" stroke-linecap="round"></path>
            <path d="M167.5763,87.7567 C162.7573,98.7177 149.9633,103.6957 139.0023,98.8767 C128.0413,94.0567 123.0623,81.2637 127.8833,70.3017 C132.7023,59.3407 145.4963,54.3617 156.4573,59.1827 C167.4183,64.0027 172.3963,76.7957 167.5763,87.7567" id="Fill-29" fill="#F2F0C8"></path>
            <path d="M167.5763,87.7567 C162.7573,98.7177 149.9633,103.6957 139.0023,98.8767 C128.0413,94.0567 123.0623,81.2637 127.8833,70.3017 C132.7023,59.3407 145.4963,54.3617 156.4573,59.1827 C167.4183,64.0027 172.3963,76.7957 167.5763,87.7567 Z" id="Stroke-31" stroke="#E3DB7C" stroke-width="7.227"></path>
            <path d="M153.2199,85.9579 C153.2199,86.1899 153.2069,86.3879 153.1829,86.5499 C153.1579,86.7109 153.1219,86.8419 153.0769,86.9409 C153.0319,87.0409 152.9799,87.1109 152.9209,87.1529 C152.8639,87.1949 152.7969,87.2159 152.7219,87.2159 L142.7379,87.2159 C142.6619,87.2159 142.5959,87.1949 142.5379,87.1529 C142.4799,87.1109 142.4279,87.0409 142.3819,86.9409 C142.3369,86.8419 142.3009,86.7109 142.2769,86.5499 C142.2519,86.3879 142.2399,86.1899 142.2399,85.9579 C142.2399,85.7179 142.2489,85.5159 142.2709,85.3539 C142.2909,85.1919 142.3239,85.0619 142.3699,84.9619 C142.4149,84.8619 142.4699,84.7919 142.5319,84.7499 C142.5939,84.7089 142.6619,84.6879 142.7379,84.6879 L144.0569,84.6879 L144.0569,80.2559 L142.7379,80.2559 C142.6619,80.2559 142.5959,80.2369 142.5379,80.1999 C142.4799,80.1619 142.4279,80.0969 142.3819,80.0009 C142.3369,79.9049 142.3009,79.7779 142.2769,79.6209 C142.2519,79.4639 142.2399,79.2649 142.2399,79.0229 C142.2399,78.7909 142.2489,78.5959 142.2709,78.4379 C142.2909,78.2799 142.3239,78.1539 142.3699,78.0589 C142.4149,77.9629 142.4699,77.8949 142.5319,77.8539 C142.5939,77.8119 142.6619,77.7909 142.7379,77.7909 L144.0569,77.7909 L144.0569,76.6449 C144.0569,75.6329 144.1689,74.7589 144.3929,74.0239 C144.6169,73.2899 144.9449,72.6869 145.3759,72.2129 C145.8079,71.7399 146.3429,71.3939 146.9829,71.1739 C147.6209,70.9539 148.3569,70.8439 149.1859,70.8439 C149.5509,70.8439 149.9029,70.8709 150.2389,70.9249 C150.5739,70.9789 150.8829,71.0539 151.1659,71.1479 C151.4479,71.2439 151.7029,71.3559 151.9319,71.4849 C152.1589,71.6129 152.3249,71.7319 152.4299,71.8399 C152.5329,71.9479 152.6079,72.0369 152.6539,72.1069 C152.6989,72.1779 152.7349,72.2659 152.7589,72.3689 C152.7839,72.4729 152.8029,72.5999 152.8159,72.7489 C152.8279,72.8979 152.8339,73.0809 152.8339,73.2969 C152.8339,73.5289 152.8239,73.7239 152.8029,73.8819 C152.7829,74.0389 152.7509,74.1659 152.7099,74.2619 C152.6679,74.3559 152.6179,74.4259 152.5599,74.4669 C152.5019,74.5089 152.4399,74.5289 152.3729,74.5289 C152.2569,74.5289 152.1259,74.4709 151.9819,74.3539 C151.8359,74.2379 151.6539,74.1119 151.4339,73.9749 C151.2129,73.8379 150.9539,73.7119 150.6559,73.5949 C150.3569,73.4789 149.9989,73.4209 149.5849,73.4209 C149.1689,73.4209 148.8169,73.4889 148.5269,73.6259 C148.2359,73.7639 147.9989,73.9629 147.8169,74.2239 C147.6339,74.4849 147.5009,74.8099 147.4179,75.1949 C147.3349,75.5809 147.2939,76.0219 147.2939,76.5199 L147.2939,77.7909 L150.6429,77.7909 C150.7179,77.7909 150.7859,77.8119 150.8489,77.8539 C150.9099,77.8949 150.9619,77.9629 151.0039,78.0589 C151.0449,78.1539 151.0779,78.2799 151.1039,78.4379 C151.1279,78.5959 151.1409,78.7909 151.1409,79.0229 C151.1409,79.2649 151.1279,79.4639 151.1039,79.6209 C151.0779,79.7779 151.0429,79.9049 150.9979,80.0009 C150.9519,80.0969 150.9009,80.1619 150.8419,80.1999 C150.7839,80.2369 150.7179,80.2559 150.6429,80.2559 L147.2939,80.2559 L147.2939,84.6879 L152.7219,84.6879 C152.7969,84.6879 152.8659,84.7089 152.9279,84.7499 C152.9899,84.7919 153.0409,84.8619 153.0829,84.9619 C153.1239,85.0619 153.1579,85.1919 153.1829,85.3539 C153.2069,85.5159 153.2199,85.7179 153.2199,85.9579" id="Fill-33" fill="#EDC913"></path>
        </g>
    </g>
</svg>