<?xml version="1.0" encoding="UTF-8"?>
<svg width="275px" height="230px" viewBox="0 0 275 230" version="1.1" xmlns="http://www.w3.org/2000/svg" xmlns:xlink="http://www.w3.org/1999/xlink">
    <!-- Generator: Sketch 43.2 (39069) - http://www.bohemiancoding.com/sketch -->
    <title>Group</title>
    <desc>Created with Sketch.</desc>
    <defs>
        <polygon id="path-1" points="199.49 0.5104 199.49 200 0.0005 200 0.0005 0.5104 199.49 0.5104"></polygon>
        <polygon id="path-3" points="0 0.5155 0 13.1715 46.9998 13.1715 46.9998 0.5155 1.35525272e-20 0.5155"></polygon>
        <polygon id="path-5" points="0 7.0155 0 0.0155 46.9998 0.0155 46.9998 7.0155 5.55138617e-16 7.0155"></polygon>
    </defs>
    <g id="Page-1" stroke="none" stroke-width="1" fill="none" fill-rule="evenodd">
        <g id="Group">
            <g id="Page-1" transform="translate(75.000000, 0.000000)">
                <g id="Group-3" transform="translate(0.000000, 29.852000)">
                    <mask id="mask-2" fill="white">
                        <use xlink:href="#path-1"></use>
                    </mask>
                    <g id="Clip-2"></g>
                    <path d="M199.4905,100.2554 C199.4905,155.3424 154.8325,200.0004 99.7455,200.0004 C44.6575,200.0004 0.0005,155.3424 0.0005,100.2554 C0.0005,45.1674 44.6575,0.5104 99.7455,0.5104 C154.8325,0.5104 199.4905,45.1674 199.4905,100.2554" id="Fill-1" fill="#6DAADD" mask="url(#mask-2)"></path>
                </g>
                <path d="M128.7971,163.0009 C128.7971,164.1719 128.7351,165.1669 128.6091,165.9819 C128.4831,166.7979 128.3051,167.4579 128.0751,167.9599 C127.8451,168.4629 127.5831,168.8179 127.2901,169.0259 C126.9971,169.2369 126.6621,169.3409 126.2861,169.3409 L75.9411,169.3409 C75.5641,169.3409 75.2291,169.2369 74.9361,169.0259 C74.6441,168.8179 74.3811,168.4629 74.1521,167.9599 C73.9211,167.4579 73.7431,166.7979 73.6181,165.9819 C73.4921,165.1669 73.4301,164.1719 73.4301,163.0009 C73.4301,161.7879 73.4821,160.7719 73.5871,159.9559 C73.6911,159.1409 73.8591,158.4799 74.0881,157.9789 C74.3181,157.4769 74.5911,157.1209 74.9051,156.9119 C75.2191,156.7019 75.5641,156.5979 75.9411,156.5979 L82.5951,156.5979 L82.5951,134.2499 L75.9411,134.2499 C75.5641,134.2499 75.2291,134.1559 74.9361,133.9669 C74.6441,133.7789 74.3811,133.4449 74.1521,132.9629 C73.9211,132.4819 73.7431,131.8439 73.6181,131.0479 C73.4921,130.2539 73.4301,129.2489 73.4301,128.0349 C73.4301,126.8639 73.4821,125.8809 73.5871,125.0849 C73.6911,124.2899 73.8591,123.6509 74.0881,123.1709 C74.3181,122.6889 74.5911,122.3449 74.9051,122.1339 C75.2191,121.9259 75.5641,121.8199 75.9411,121.8199 L82.5951,121.8199 L82.5951,116.0449 C82.5951,110.9389 83.1601,106.5339 84.2901,102.8309 C85.4201,99.1269 87.0721,96.0829 89.2491,93.6979 C91.4241,91.3129 94.1241,89.5639 97.3471,88.4559 C100.5681,87.3479 104.2741,86.7919 108.4571,86.7919 C110.2991,86.7919 112.0681,86.9289 113.7631,87.2009 C115.4571,87.4729 117.0161,87.8499 118.4401,88.3299 C119.8611,88.8119 121.1491,89.3769 122.3001,90.0249 C123.4511,90.6739 124.2871,91.2719 124.8111,91.8139 C125.3341,92.3589 125.7101,92.8099 125.9421,93.1629 C126.1701,93.5209 126.3491,93.9599 126.4751,94.4819 C126.6001,95.0059 126.6941,95.6439 126.7571,96.3969 C126.8191,97.1489 126.8521,98.0709 126.8521,99.1589 C126.8521,100.3309 126.7981,101.3139 126.6941,102.1089 C126.5891,102.9049 126.4321,103.5429 126.2241,104.0229 C126.0131,104.5059 125.7631,104.8509 125.4701,105.0599 C125.1771,105.2699 124.8621,105.3739 124.5281,105.3739 C123.9421,105.3739 123.2821,105.0809 122.5511,104.4939 C121.8181,103.9079 120.8971,103.2709 119.7881,102.5799 C118.6801,101.8899 117.3721,101.2519 115.8661,100.6649 C114.3591,100.0799 112.5591,99.7869 110.4671,99.7869 C108.3731,99.7869 106.5951,100.1319 105.1311,100.8219 C103.6661,101.5129 102.4741,102.5179 101.5531,103.8359 C100.6321,105.1539 99.9611,106.7859 99.5441,108.7319 C99.1251,110.6779 98.9161,112.9059 98.9161,115.4169 L98.9161,121.8199 L115.8021,121.8199 C116.1791,121.8199 116.5251,121.9259 116.8391,122.1339 C117.1521,122.3449 117.4131,122.6889 117.6221,123.1709 C117.8321,123.6509 118.0001,124.2899 118.1251,125.0849 C118.2501,125.8809 118.3141,126.8639 118.3141,128.0349 C118.3141,129.2489 118.2501,130.2539 118.1251,131.0479 C118.0001,131.8439 117.8211,132.4819 117.5921,132.9629 C117.3611,133.4449 117.1001,133.7789 116.8071,133.9669 C116.5141,134.1559 116.1791,134.2499 115.8021,134.2499 L98.9161,134.2499 L98.9161,156.5979 L126.2861,156.5979 C126.6621,156.5979 127.0081,156.7019 127.3221,156.9119 C127.6351,157.1209 127.8971,157.4769 128.1071,157.9789 C128.3161,158.4799 128.4831,159.1409 128.6091,159.9559 C128.7351,160.7719 128.7971,161.7879 128.7971,163.0009" id="Fill-4" fill="#0067A6"></path>
                <path d="M72.1213,42.5927 L58.7143,11.8887 C57.0453,8.0687 60.4583,3.9067 64.5033,4.9147 C68.7033,5.9617 73.7573,6.3047 79.0303,4.6087 C92.5133,0.2727 103.2833,-2.7483 115.5593,3.7937 C120.2503,6.2947 128.1063,4.8807 134.6533,2.9067 C138.8473,1.6427 142.5653,5.9147 140.7263,9.8907 L126.5503,40.5487 L72.1213,42.5927 Z" id="Fill-6" fill="#6DAADD"></path>
                <path d="M63.7483,35.0253 C63.7483,35.0253 99.5173,51.1253 135.7413,35.0253" id="Stroke-8" stroke="#0067A6" stroke-width="18.348" stroke-linecap="round"></path>
            </g>
            <g id="Page-1" transform="translate(0.390625, 193.000000)">
                <path d="M2.4998,23.6615 L2.4998,32.8175 C2.4998,34.7515 13.0208,36.3175 25.9998,36.3175 C38.9788,36.3175 49.4998,34.7515 49.4998,32.8175 L49.4998,23.6615 L2.4998,23.6615 Z" id="Fill-1" fill="#E3DB7C"></path>
                <path d="M49.4998,23.6615 C49.4998,25.5945 38.9788,27.1615 25.9998,27.1615 C13.0208,27.1615 2.4998,25.5945 2.4998,23.6615 C2.4998,21.7285 13.0208,20.1615 25.9998,20.1615 C38.9788,20.1615 49.4998,21.7285 49.4998,23.6615" id="Fill-3" fill="#F2F0C8"></path>
                <g id="Group-7" transform="translate(0.000000, 13.317800)">
                    <mask id="mask-4" fill="white">
                        <use xlink:href="#path-3"></use>
                    </mask>
                    <g id="Clip-6"></g>
                    <path d="M-0.0002,0.5155 L-0.0002,9.6715 C-0.0002,11.6055 10.5208,13.1715 23.4998,13.1715 C36.4788,13.1715 46.9998,11.6055 46.9998,9.6715 L46.9998,0.5155 L-0.0002,0.5155 Z" id="Fill-5" fill="#E3DB7C" mask="url(#mask-4)"></path>
                </g>
                <g id="Group-10" transform="translate(0.000000, 10.317800)">
                    <mask id="mask-6" fill="white">
                        <use xlink:href="#path-5"></use>
                    </mask>
                    <g id="Clip-9"></g>
                    <path d="M46.9998,3.5155 C46.9998,5.4485 36.4788,7.0155 23.4998,7.0155 C10.5208,7.0155 -0.0002,5.4485 -0.0002,3.5155 C-0.0002,1.5825 10.5208,0.0155 23.4998,0.0155 C36.4788,0.0155 46.9998,1.5825 46.9998,3.5155" id="Fill-8" fill="#F2F0C8" mask="url(#mask-6)"></path>
                </g>
                <path d="M6.6668,3.5003 L6.6668,12.6563 C6.6668,14.5893 17.1878,16.1563 30.1668,16.1563 C43.1458,16.1563 53.6668,14.5893 53.6668,12.6563 L53.6668,3.5003 L6.6668,3.5003 Z" id="Fill-11" fill="#E3DB7C"></path>
                <path d="M53.6668,3.5003 C53.6668,5.4333 43.1458,7.0003 30.1668,7.0003 C17.1878,7.0003 6.6668,5.4333 6.6668,3.5003 C6.6668,1.5663 17.1878,0.0003 30.1668,0.0003 C43.1458,0.0003 53.6668,1.5663 53.6668,3.5003" id="Fill-13" fill="#F2F0C8"></path>
            </g>
        </g>
    </g>
</svg>