<svg id="Layer_1" data-name="Layer 1" xmlns="http://www.w3.org/2000/svg" viewBox="0 0 544.78 256.98">
  <title>money-cal</title>
  <g id="Page-1">
    <g id="money-cal">
      <path id="Fill-1" d="M199.49,143.67A99.74,99.74,0,1,1,99.75,43.92a99.75,99.75,0,0,1,99.74,99.74" transform="translate(0 0)" style="fill: #f2f0c8"/>
      <path id="Fill-3" d="M128.8,176.56a20,20,0,0,1-.19,3,7.63,7.63,0,0,1-.53,2,2.6,2.6,0,0,1-.79,1.07,1.67,1.67,0,0,1-1,.32H75.94a1.67,1.67,0,0,1-1-.32,2.6,2.6,0,0,1-.78-1.07,7.56,7.56,0,0,1-.53-2,20,20,0,0,1-.19-3,24.53,24.53,0,0,1,.16-3,7,7,0,0,1,.5-2,2.48,2.48,0,0,1,.82-1.07,1.82,1.82,0,0,1,1-.31H82.6V147.81H75.94a1.81,1.81,0,0,1-1-.28,2.36,2.36,0,0,1-.78-1,7,7,0,0,1-.53-1.92,19.82,19.82,0,0,1-.19-3,23.13,23.13,0,0,1,.16-2.95,6.47,6.47,0,0,1,.5-1.91,2.51,2.51,0,0,1,.82-1,1.84,1.84,0,0,1,1-.31H82.6v-5.78a45.55,45.55,0,0,1,1.69-13.21,23.47,23.47,0,0,1,5-9.13,19.2,19.2,0,0,1,8.1-5.24,34.11,34.11,0,0,1,11.11-1.66,33.46,33.46,0,0,1,5.31.41,29.08,29.08,0,0,1,4.68,1.13,22.76,22.76,0,0,1,3.86,1.7,11.28,11.28,0,0,1,2.51,1.79,10.18,10.18,0,0,1,1.13,1.35,4.34,4.34,0,0,1,.53,1.32,13.11,13.11,0,0,1,.28,1.92q.09,1.13.09,2.76a23.27,23.27,0,0,1-.16,3,7.33,7.33,0,0,1-.47,1.91,2.43,2.43,0,0,1-.75,1,1.59,1.59,0,0,1-.94.31,3.31,3.31,0,0,1-2-.88,29.29,29.29,0,0,0-2.76-1.91,23.75,23.75,0,0,0-3.92-1.91,14.92,14.92,0,0,0-5.4-.88,12.45,12.45,0,0,0-5.34,1,9,9,0,0,0-3.58,3,13.34,13.34,0,0,0-2,4.9,32,32,0,0,0-.63,6.69v6.4H115.8a1.84,1.84,0,0,1,1,.31,2.31,2.31,0,0,1,.78,1,8,8,0,0,1,.5,1.91,19.44,19.44,0,0,1,.19,2.95,19.93,19.93,0,0,1-.19,3,7.09,7.09,0,0,1-.53,1.92,2.37,2.37,0,0,1-.79,1,1.81,1.81,0,0,1-1,.28H98.92v22.35h27.37a1.83,1.83,0,0,1,1,.31,2.31,2.31,0,0,1,.79,1.07,8.73,8.73,0,0,1,.5,2,20.49,20.49,0,0,1,.19,3" transform="translate(0 0)" style="fill: #edc913"/>
      <path id="Fill-5" d="M72.12,56.15,58.71,25.45a5.06,5.06,0,0,1,5.79-7A26.3,26.3,0,0,0,79,18.17c13.48-4.34,24.25-7.36,36.53-.82,4.69,2.5,12.55,1.09,19.09-.89a5.07,5.07,0,0,1,6.07,7L126.55,54.11Z" transform="translate(0 0)" style="fill: #f2f0c8"/>
      <path id="Stroke-7" d="M63.75,48.59s35.77,16.1,72,0" transform="translate(0 0)" style="fill: none;stroke: #0067a6;stroke-linecap: round;stroke-width: 18.347999572753906px"/>
      <path id="Fill-9" d="M500.49,221.45h-194A3.49,3.49,0,0,1,303,218V24a3.49,3.49,0,0,1,3.48-3.48h194A3.49,3.49,0,0,1,504,24V218a3.49,3.49,0,0,1-3.48,3.48" transform="translate(0 0)" style="fill: #6daadd"/>
      <path id="Fill-11" d="M352.58,38.33A8.57,8.57,0,1,1,344,29.75a8.57,8.57,0,0,1,8.57,8.57" transform="translate(0 0)" style="fill: #0067a6"/>
      <path id="Fill-13" d="M344.71,41.74h-1.4a5.08,5.08,0,0,1-5.07-5.07V5.07A5.08,5.08,0,0,1,343.31,0h1.4a5.08,5.08,0,0,1,5.07,5.07V36.67a5.08,5.08,0,0,1-5.07,5.07" transform="translate(0 0)" style="fill: #edc913"/>
      <path id="Fill-15" d="M412.07,38.33a8.57,8.57,0,1,1-8.57-8.57,8.57,8.57,0,0,1,8.57,8.57" transform="translate(0 0)" style="fill: #0067a6"/>
      <path id="Fill-17" d="M404.2,41.74h-1.4a5.08,5.08,0,0,1-5.07-5.07V5.07A5.08,5.08,0,0,1,402.79,0h1.4a5.08,5.08,0,0,1,5.07,5.07V36.67a5.08,5.08,0,0,1-5.07,5.07" transform="translate(0 0)" style="fill: #edc913"/>
      <path id="Fill-19" d="M471.55,38.33A8.57,8.57,0,1,1,463,29.75a8.57,8.57,0,0,1,8.57,8.57" transform="translate(0 0)" style="fill: #0067a6"/>
      <path id="Fill-21" d="M463.68,41.74h-1.4a5.08,5.08,0,0,1-5.07-5.07V5.07A5.08,5.08,0,0,1,462.28,0h1.4a5.08,5.08,0,0,1,5.07,5.07V36.67a5.08,5.08,0,0,1-5.07,5.07" transform="translate(0 0)" style="fill: #edc913"/>
      <path id="Stroke-23" d="M324,80.44h158.9" transform="translate(0 0)" style="fill: none;stroke: #0067a6;stroke-linecap: round;stroke-width: 5.459000110626221px"/>
      <path id="Stroke-25" d="M324,101.09h158.9" transform="translate(0 0)" style="fill: none;stroke: #0067a6;stroke-linecap: round;stroke-width: 5.459000110626221px"/>
      <path id="Stroke-27" d="M324,121.73h158.9" transform="translate(0 0)" style="fill: none;stroke: #0067a6;stroke-linecap: round;stroke-width: 5.459000110626221px"/>
      <path id="Stroke-29" d="M324,142.37h158.9" transform="translate(0 0)" style="fill: none;stroke: #0067a6;stroke-linecap: round;stroke-width: 5.459000110626221px"/>
      <path id="Stroke-31" d="M324,163h158.9" transform="translate(0 0)" style="fill: none;stroke: #0067a6;stroke-linecap: round;stroke-width: 5.459000110626221px"/>
      <path id="Stroke-33" d="M324,183.66h158.9" transform="translate(0 0)" style="fill: none;stroke: #0067a6;stroke-linecap: round;stroke-width: 5.459000110626221px"/>
      <path id="Stroke-35" d="M344.44,60.33V203.77" transform="translate(0 0)" style="fill: none;stroke: #0067a6;stroke-linecap: round;stroke-width: 5.459000110626221px"/>
      <path id="Stroke-37" d="M383.81,60.33V203.77" transform="translate(0 0)" style="fill: none;stroke: #0067a6;stroke-linecap: round;stroke-width: 5.459000110626221px"/>
      <path id="Stroke-39" d="M423.18,60.33V203.77" transform="translate(0 0)" style="fill: none;stroke: #0067a6;stroke-linecap: round;stroke-width: 5.459000110626221px"/>
      <path id="Stroke-41" d="M462.55,60.33V203.77" transform="translate(0 0)" style="fill: none;stroke: #0067a6;stroke-linecap: round;stroke-width: 5.459000110626221px"/>
      <path id="Fill-43" d="M532.33,219.14a49.5,49.5,0,1,1-25.39-65.23,49.5,49.5,0,0,1,25.39,65.23" transform="translate(0 0)" style="fill: #f2f0c8"/>
      <path id="Stroke-45" d="M532.33,219.14a49.5,49.5,0,1,1-25.39-65.23A49.5,49.5,0,0,1,532.33,219.14Z" transform="translate(0 0)" style="fill: none;stroke: #e3db7c;stroke-width: 16.499000549316406px"/>
      <path id="Fill-47" d="M499.56,215a8.92,8.92,0,0,1-.09,1.35,3.46,3.46,0,0,1-.24.9,1.19,1.19,0,0,1-.36.48.76.76,0,0,1-.45.14h-22.8a.76.76,0,0,1-.45-.14,1.17,1.17,0,0,1-.36-.48,3.42,3.42,0,0,1-.24-.9,9.07,9.07,0,0,1-.09-1.35,11,11,0,0,1,.07-1.38,3.13,3.13,0,0,1,.23-.9,1.12,1.12,0,0,1,.37-.48.82.82,0,0,1,.47-.14h3V202h-3a.81.81,0,0,1-.45-.13,1,1,0,0,1-.36-.45,3.16,3.16,0,0,1-.24-.87,9,9,0,0,1-.09-1.36,10.39,10.39,0,0,1,.07-1.34,2.93,2.93,0,0,1,.23-.87,1.12,1.12,0,0,1,.37-.47.82.82,0,0,1,.47-.14h3v-2.62a20.62,20.62,0,0,1,.77-6,10.6,10.6,0,0,1,2.25-4.13,8.69,8.69,0,0,1,3.67-2.37,15.46,15.46,0,0,1,5-.75,15.16,15.16,0,0,1,2.4.18,13.28,13.28,0,0,1,2.12.51,10.25,10.25,0,0,1,1.75.77,5.06,5.06,0,0,1,1.14.81,4.53,4.53,0,0,1,.51.61,1.9,1.9,0,0,1,.24.6,5.77,5.77,0,0,1,.13.87q0,.51,0,1.25a10.59,10.59,0,0,1-.07,1.34,3.36,3.36,0,0,1-.21.87,1.09,1.09,0,0,1-.34.47.72.72,0,0,1-.43.14,1.5,1.5,0,0,1-.9-.4,13.2,13.2,0,0,0-1.25-.87,10.73,10.73,0,0,0-1.78-.87,6.78,6.78,0,0,0-2.45-.4,5.63,5.63,0,0,0-2.42.47,4,4,0,0,0-1.62,1.36,6,6,0,0,0-.91,2.22,14.44,14.44,0,0,0-.28,3v2.9h7.64a.82.82,0,0,1,.47.14,1,1,0,0,1,.35.47,3.66,3.66,0,0,1,.23.87,8.76,8.76,0,0,1,.09,1.34,9,9,0,0,1-.09,1.36,3.2,3.2,0,0,1-.24.87,1.06,1.06,0,0,1-.35.45.82.82,0,0,1-.46.13H486v10.12h12.39a.83.83,0,0,1,.47.14,1.05,1.05,0,0,1,.36.48,4,4,0,0,1,.23.9,9.12,9.12,0,0,1,.09,1.38" transform="translate(0 0)" style="fill: #edc913"/>
    </g>
  </g>
</svg>
