<svg id="Layer_1" data-name="Layer 1" xmlns="http://www.w3.org/2000/svg" xmlns:xlink="http://www.w3.org/1999/xlink" viewBox="0 0 274.1 229.85">
  <defs>
    <mask id="mask" x="74.61" y="30.36" width="199.49" height="199.49" maskUnits="userSpaceOnUse">
      <g transform="translate(-0.39 0)">
        <g id="mask-2">
          <polygon id="path-1" points="274.49 30.36 274.49 229.85 75 229.85 75 30.36 274.49 30.36" style="fill: #fff"/>
        </g>
      </g>
    </mask>
    <mask id="mask-2-2" x="0" y="206.83" width="47" height="12.66" maskUnits="userSpaceOnUse">
      <g transform="translate(-0.39 0)">
        <g id="mask-4">
          <polygon id="path-3" points="0.39 206.83 0.39 219.49 47.39 219.49 47.39 206.83 0.39 206.83" style="fill: #fff"/>
        </g>
      </g>
    </mask>
    <mask id="mask-3" x="0" y="203.33" width="47" height="7" maskUnits="userSpaceOnUse">
      <g transform="translate(-0.39 0)">
        <g id="mask-6">
          <polygon id="path-5" points="0.39 210.33 0.39 203.33 47.39 203.33 47.39 210.33 0.39 210.33" style="fill: #fff"/>
        </g>
      </g>
    </mask>
  </defs>
  <title>money-bag</title>
  <g id="Page-1">
    <g id="Group">
      <g id="Page-1-2" data-name="Page-1">
        <g id="Group-3">
          <g style="mask: url(#mask)">
            <path id="Fill-1" d="M274.49,130.11a99.74,99.74,0,1,1-99.74-99.75,99.75,99.75,0,0,1,99.74,99.75" transform="translate(-0.39 0)" style="fill: #6daadd"/>
          </g>
        </g>
        <path id="Fill-4" d="M203.8,163a20,20,0,0,1-.19,3,7.63,7.63,0,0,1-.53,2,2.6,2.6,0,0,1-.79,1.07,1.67,1.67,0,0,1-1,.32H150.94a1.67,1.67,0,0,1-1-.32,2.6,2.6,0,0,1-.78-1.07,7.56,7.56,0,0,1-.53-2,20,20,0,0,1-.19-3,24.53,24.53,0,0,1,.16-3,7,7,0,0,1,.5-2,2.48,2.48,0,0,1,.82-1.07,1.82,1.82,0,0,1,1-.31h6.65V134.25h-6.65a1.81,1.81,0,0,1-1-.28,2.36,2.36,0,0,1-.78-1,7,7,0,0,1-.53-1.92,19.82,19.82,0,0,1-.19-3,23.13,23.13,0,0,1,.16-2.95,6.47,6.47,0,0,1,.5-1.91,2.51,2.51,0,0,1,.82-1,1.84,1.84,0,0,1,1-.31h6.65V116a45.55,45.55,0,0,1,1.69-13.21,23.47,23.47,0,0,1,5-9.13,19.2,19.2,0,0,1,8.1-5.24,34.11,34.11,0,0,1,11.11-1.66,33.46,33.46,0,0,1,5.31.41,29.08,29.08,0,0,1,4.68,1.13A22.76,22.76,0,0,1,197.3,90a11.28,11.28,0,0,1,2.51,1.79,10.18,10.18,0,0,1,1.13,1.35,4.34,4.34,0,0,1,.53,1.32,13.11,13.11,0,0,1,.28,1.91q.09,1.13.09,2.76a23.27,23.27,0,0,1-.16,3,7.33,7.33,0,0,1-.47,1.91,2.43,2.43,0,0,1-.75,1,1.59,1.59,0,0,1-.94.31,3.31,3.31,0,0,1-2-.88,29.29,29.29,0,0,0-2.76-1.91,23.75,23.75,0,0,0-3.92-1.92,14.92,14.92,0,0,0-5.4-.88,12.45,12.45,0,0,0-5.34,1,9,9,0,0,0-3.58,3,13.34,13.34,0,0,0-2,4.9,32,32,0,0,0-.63,6.68v6.4H190.8a1.84,1.84,0,0,1,1,.31,2.31,2.31,0,0,1,.78,1,8,8,0,0,1,.5,1.91,19.44,19.44,0,0,1,.19,2.95,19.93,19.93,0,0,1-.19,3,7.09,7.09,0,0,1-.53,1.92,2.37,2.37,0,0,1-.79,1,1.81,1.81,0,0,1-1,.28H173.92V156.6h27.37a1.83,1.83,0,0,1,1,.31,2.31,2.31,0,0,1,.79,1.07,8.73,8.73,0,0,1,.5,2,20.49,20.49,0,0,1,.19,3" transform="translate(-0.39 0)" style="fill: #0067a6"/>
        <path id="Fill-6" d="M147.12,42.59l-13.41-30.7a5.06,5.06,0,0,1,5.79-7A26.3,26.3,0,0,0,154,4.61c13.48-4.34,24.25-7.36,36.53-.81,4.69,2.5,12.55,1.09,19.09-.89a5.07,5.07,0,0,1,6.07,7L201.55,40.55Z" transform="translate(-0.39 0)" style="fill: #6daadd"/>
        <path id="Stroke-8" d="M138.75,35s35.77,16.1,72,0" transform="translate(-0.39 0)" style="fill: none;stroke: #0067a6;stroke-linecap: round;stroke-width: 18.347999572753906px"/>
      </g>
      <g id="Page-1-3" data-name="Page-1">
        <path id="Fill-1-2" data-name="Fill-1" d="M2.89,216.66v9.16c0,1.93,10.52,3.5,23.5,3.5s23.5-1.57,23.5-3.5v-9.16Z" transform="translate(-0.39 0)" style="fill: #e3db7c"/>
        <path id="Fill-3" d="M49.89,216.66c0,1.93-10.52,3.5-23.5,3.5s-23.5-1.57-23.5-3.5,10.52-3.5,23.5-3.5,23.5,1.57,23.5,3.5" transform="translate(-0.39 0)" style="fill: #f2f0c8"/>
        <g id="Group-7">
          <g style="mask: url(#mask-2-2)">
            <path id="Fill-5" d="M.39,206.83V216c0,1.93,10.52,3.5,23.5,3.5s23.5-1.57,23.5-3.5v-9.16Z" transform="translate(-0.39 0)" style="fill: #e3db7c"/>
          </g>
        </g>
        <g id="Group-10">
          <g style="mask: url(#mask-3)">
            <path id="Fill-8" d="M47.39,206.83c0,1.93-10.52,3.5-23.5,3.5s-23.5-1.57-23.5-3.5,10.52-3.5,23.5-3.5,23.5,1.57,23.5,3.5" transform="translate(-0.39 0)" style="fill: #f2f0c8"/>
          </g>
        </g>
        <path id="Fill-11" d="M7.06,196.5v9.16c0,1.93,10.52,3.5,23.5,3.5s23.5-1.57,23.5-3.5V196.5Z" transform="translate(-0.39 0)" style="fill: #e3db7c"/>
        <path id="Fill-13" d="M54.06,196.5c0,1.93-10.52,3.5-23.5,3.5s-23.5-1.57-23.5-3.5,10.52-3.5,23.5-3.5,23.5,1.57,23.5,3.5" transform="translate(-0.39 0)" style="fill: #f2f0c8"/>
      </g>
    </g>
  </g>
</svg>
