<svg id="Layer_1" data-name="Layer 1" xmlns="http://www.w3.org/2000/svg" xmlns:xlink="http://www.w3.org/1999/xlink" viewBox="0 0 143.45 161.05">
  <defs>
    <mask id="mask" x="0" y="0" width="143.45" height="143.45" maskUnits="userSpaceOnUse">
      <g transform="translate(0 0)">
        <g id="mask-2">
          <polygon id="path-1" points="0 0 143.45 0 143.45 143.46 0 143.46 0 0" style="fill: #fff"/>
        </g>
      </g>
    </mask>
  </defs>
  <title>pin</title>
  <g id="Page-1">
    <g>
      <g id="Group-3">
        <g style="mask: url(#mask)">
          <path id="Fill-1" d="M143.45,71.73A71.73,71.73,0,1,1,71.73,0a71.73,71.73,0,0,1,71.73,71.73" transform="translate(0 0)" style="fill: #ed1458"/>
        </g>
      </g>
      <polygon id="Fill-4" points="71.73 14.6 29.48 51.6 29.48 71.73 76.25 30.77 113.98 63.8 113.98 51.6 71.73 14.6" style="fill: #ed1458"/>
      <polygon id="Fill-6" points="29.48 71.73 29.48 104.6 113.98 104.6 113.98 63.8 76.25 30.77 29.48 71.73" style="fill: #fff"/>
      <path id="Fill-8" d="M24.2,60.14a2.05,2.05,0,0,0,2.9.19L71.73,21.24l44.63,39.09a2.05,2.05,0,0,0,2.89-.19l3.89-4.44a2.05,2.05,0,0,0-.19-2.9L73.29,9.32a2.36,2.36,0,0,0-3.12,0L20.51,52.81a2.05,2.05,0,0,0-.19,2.9Z" transform="translate(0 0)" style="fill: #fff"/>
      <polygon id="Fill-10" points="71.73 161.05 83.47 140.72 59.99 140.72 71.73 161.05" style="fill: #ed1458"/>
    </g>
  </g>
</svg>
