<svg id="Layer_1" data-name="Layer 1" xmlns="http://www.w3.org/2000/svg" viewBox="0 0 34.12 28.12">
  <title>share-twitter</title>
  <g id="Page-1">
    <g id="share-twitter">
      <path id="Shape" d="M11.49,28.55A17.7,17.7,0,0,1,.81,25.32a.78.78,0,0,1-.24-.93.77.77,0,0,1,.84-.46,12.14,12.14,0,0,0,1.89.14,10.24,10.24,0,0,0,5.91-1.64,6.92,6.92,0,0,1-4.92-4.86.78.78,0,0,1,.17-.76.77.77,0,0,1,.28-.2,7.08,7.08,0,0,1-2.74-6,.78.78,0,0,1,.43-.68.76.76,0,0,1,.71,0A7.34,7.34,0,0,1,3,2.17a.77.77,0,0,1,.6-.38.76.76,0,0,1,.66.27c.05.07,5.51,6.47,12.23,6.64a7.63,7.63,0,0,1,0-.88A7.35,7.35,0,0,1,23.72.44a7.21,7.21,0,0,1,5,2A6.71,6.71,0,0,0,32.4,1.15a.76.76,0,0,1,.78-.07.78.78,0,0,1,.44.65,3.7,3.7,0,0,1-1,2.4,2.82,2.82,0,0,0,.77-.37.76.76,0,0,1,.9,0,.78.78,0,0,1,.31.85c-.07.26-.52,1.28-3.35,3.9,0,2.49-.55,16.15-15.62,19.71A20.65,20.65,0,0,1,11.49,28.55Zm-7.17-3A17.9,17.9,0,0,0,11.49,27a19.59,19.59,0,0,0,3.68-.32C30.41,23.08,29.59,8.35,29.58,8.21a.78.78,0,0,1,.25-.63c.69-.64,1.24-1.17,1.67-1.61-.68.12-1.23.17-1.35.18a.77.77,0,0,1-.78-.5.78.78,0,0,1,.25-.9,11.3,11.3,0,0,0,1.3-1.17,8,8,0,0,1-2.47.4h-.12a.77.77,0,0,1-.54-.23A5.69,5.69,0,0,0,23.67,2a5.8,5.8,0,0,0-5.76,5.83,5.93,5.93,0,0,0,.18,1.45.79.79,0,0,1-.12.65.77.77,0,0,1-.58.32C11,10.61,5.75,5.93,3.81,3.94c-1.45,3.83,1.88,6.75,2,6.89a.78.78,0,0,1,.24.81.77.77,0,0,1-.63.56,3.75,3.75,0,0,1-1.86-.26A5.72,5.72,0,0,0,7.84,16.5.78.78,0,0,1,8,18a4.13,4.13,0,0,1-1.81.3,5.56,5.56,0,0,0,4.69,2.89.77.77,0,0,1,.71.46.79.79,0,0,1-.13.84A10.31,10.31,0,0,1,4.31,25.6Z" transform="translate(-0.51 -0.44)" style="fill: #e0004d"/>
    </g>
  </g>
</svg>
