<svg id="Layer_1" data-name="Layer 1" xmlns="http://www.w3.org/2000/svg" xmlns:xlink="http://www.w3.org/1999/xlink" viewBox="0 0 70.67 70.67">
  <defs>
    <mask id="mask" x="0" y="0" width="70.67" height="70.67" maskUnits="userSpaceOnUse">
      <g transform="translate(0 0)">
        <g id="mask-2">
          <polygon id="path-1" points="70.67 70.67 0 70.67 0 0 70.67 0 70.67 70.67" style="fill: #fff"/>
        </g>
      </g>
    </mask>
  </defs>
  <title>smile-red</title>
  <g id="Page-1">
    <g style="mask: url(#mask)">
      <path id="Fill-1" d="M58.9,41.23a24.57,24.57,0,0,1-47.14,0A4,4,0,0,1,19.44,39a16.57,16.57,0,0,0,31.79,0,4,4,0,0,1,7.67,2.27M25.42,21.82a3.95,3.95,0,1,1-3.95,3.95,3.95,3.95,0,0,1,3.95-3.95m19.83,0a3.95,3.95,0,1,1-4,3.95,4,4,0,0,1,4-3.95M35.33,0A35.33,35.33,0,1,0,70.67,35.33,35.33,35.33,0,0,0,35.33,0" transform="translate(0 0)" style="fill: #e0004d"/>
    </g>
  </g>
</svg>
