<svg id="Layer_1" data-name="Layer 1" xmlns="http://www.w3.org/2000/svg" xmlns:xlink="http://www.w3.org/1999/xlink" viewBox="0 0 70.67 70.67">
  <defs>
    <mask id="mask" x="0" y="0" width="70.67" height="70.67" maskUnits="userSpaceOnUse">
      <g transform="translate(0 0)">
        <g id="mask-2">
          <polygon id="path-1" points="35.33 0 0 0 0 70.67 35.33 70.67 70.67 70.67 70.67 0 35.33 0" style="fill: #fff"/>
        </g>
      </g>
    </mask>
  </defs>
  <title>stack-red</title>
  <g id="Page-1">
    <g>
      <g id="Group-3">
        <g style="mask: url(#mask)">
          <path id="Fill-1" d="M70.67,35.33A35.33,35.33,0,1,1,35.33,0,35.33,35.33,0,0,1,70.67,35.33" transform="translate(0 0)" style="fill: #e0004d"/>
        </g>
      </g>
      <path id="Fill-4" d="M14.78,41.45v7.73c0,1.63,8.89,3,19.85,3s19.85-1.32,19.85-3V41.45Z" transform="translate(0 0)" style="fill: #fbd3d0"/>
      <path id="Fill-6" d="M54.48,41.45c0,1.63-8.89,3-19.85,3s-19.85-1.32-19.85-3,8.89-3,19.85-3,19.85,1.32,19.85,3" transform="translate(0 0)" style="fill: #fff"/>
      <path id="Fill-8" d="M12.67,33.15v7.73c0,1.63,8.89,3,19.85,3s19.85-1.32,19.85-3V33.15Z" transform="translate(0 0)" style="fill: #fbd3d0"/>
      <path id="Fill-10" d="M52.37,33.15c0,1.63-8.89,3-19.85,3s-19.85-1.32-19.85-3,8.89-3,19.85-3,19.85,1.32,19.85,3" transform="translate(0 0)" style="fill: #fff"/>
      <path id="Fill-12" d="M18.3,24.42v7.73c0,1.63,8.89,3,19.85,3S58,33.79,58,32.15V24.42Z" transform="translate(0 0)" style="fill: #fbd3d0"/>
      <path id="Fill-14" d="M58,24.42c0,1.63-8.89,3-19.85,3s-19.85-1.32-19.85-3,8.89-3,19.85-3S58,22.79,58,24.42" transform="translate(0 0)" style="fill: #fff"/>
    </g>
  </g>
</svg>
