<?xml version="1.0" encoding="UTF-8"?>
<svg width="71px" height="71px" viewBox="0 0 71 71" version="1.1" xmlns="http://www.w3.org/2000/svg" xmlns:xlink="http://www.w3.org/1999/xlink">
    <!-- Generator: Sketch 43.2 (39069) - http://www.bohemiancoding.com/sketch -->
    <title>Page 1</title>
    <desc>Created with Sketch.</desc>
    <defs>
        <polygon id="path-1" points="35.33335 0.333 0 0.333 0 71 35.33335 71 70.6667 71 70.6667 0.333 35.33335 0.333"></polygon>
    </defs>
    <g id="Page-1" stroke="none" stroke-width="1" fill="none" fill-rule="evenodd">
        <g transform="translate(0.000000, -1.000000)">
            <g id="Group-3" transform="translate(0.000000, 0.666700)">
                <mask id="mask-2" fill="white">
                    <use xlink:href="#path-1"></use>
                </mask>
                <g id="Clip-2"></g>
                <path d="M70.6667,35.667 C70.6667,55.181 54.8477,71 35.3337,71 C15.8187,71 -0.0003,55.181 -0.0003,35.667 C-0.0003,16.152 15.8187,0.333 35.3337,0.333 C54.8477,0.333 70.6667,16.152 70.6667,35.667" id="Fill-1" fill="#E0004D" mask="url(#mask-2)"></path>
            </g>
            <path d="M14.778,42.4509 L14.778,50.1849 C14.778,51.8179 23.666,53.1409 34.63,53.1409 C45.592,53.1409 54.48,51.8179 54.48,50.1849 L54.48,42.4509 L14.778,42.4509 Z" id="Fill-4" fill="#FBD3D0"></path>
            <path d="M54.4801,42.4509 C54.4801,44.0839 45.5921,45.4069 34.6291,45.4069 C23.6661,45.4069 14.7781,44.0839 14.7781,42.4509 C14.7781,40.8179 23.6661,39.4939 34.6291,39.4939 C45.5921,39.4939 54.4801,40.8179 54.4801,42.4509" id="Fill-6" fill="#FFFFFF"></path>
            <path d="M12.6667,34.1481 L12.6667,41.8831 C12.6667,43.5161 21.5547,44.8391 32.5177,44.8391 C43.4807,44.8391 52.3687,43.5161 52.3687,41.8831 L52.3687,34.1481 L12.6667,34.1481 Z" id="Fill-8" fill="#FBD3D0"></path>
            <path d="M52.3688,34.1481 C52.3688,35.7811 43.4808,37.1051 32.5168,37.1051 C21.5548,37.1051 12.6668,35.7811 12.6668,34.1481 C12.6668,32.5151 21.5548,31.1921 32.5168,31.1921 C43.4808,31.1921 52.3688,32.5151 52.3688,34.1481" id="Fill-10" fill="#FFFFFF"></path>
            <path d="M18.2985,25.4196 L18.2985,33.1536 C18.2985,34.7866 27.1855,36.1106 38.1495,36.1106 C49.1115,36.1106 57.9995,34.7866 57.9995,33.1536 L57.9995,25.4196 L18.2985,25.4196 Z" id="Fill-12" fill="#FBD3D0"></path>
            <path d="M57.9997,25.4196 C57.9997,27.0526 49.1117,28.3766 38.1487,28.3766 C27.1857,28.3766 18.2987,27.0526 18.2987,25.4196 C18.2987,23.7866 27.1857,22.4636 38.1487,22.4636 C49.1117,22.4636 57.9997,23.7866 57.9997,25.4196" id="Fill-14" fill="#FFFFFF"></path>
        </g>
    </g>
</svg>