<svg id="Layer_1" data-name="Layer 1" xmlns="http://www.w3.org/2000/svg" viewBox="0 0 152 158.99">
  <title>tap</title>
  <g id="Page-1">
    <g>
      <path id="Fill-1" d="M76,64A12,12,0,0,1,64,52V12a12,12,0,0,1,24,0V52A12,12,0,0,1,76,64" transform="translate(0 0)" style="fill: #651c32"/>
      <path id="Fill-3" d="M112.42,24H39.58a12,12,0,1,1,0-24h72.83a12,12,0,0,1,0,24" transform="translate(0 0)" style="fill: #d10b51"/>
      <path id="Fill-5" d="M152,159H122V79.28A12.29,12.29,0,0,0,109.71,67H42.29A12.29,12.29,0,0,0,30,79.28V90.36A5.62,5.62,0,0,1,24.38,96H5.63A5.62,5.62,0,0,1,0,90.36V79.28A42.29,42.29,0,0,1,42.29,37h67.42A42.29,42.29,0,0,1,152,79.28Z" transform="translate(0 0)" style="fill: #00aba5"/>
      <path id="Fill-7" d="M25.66,101,24,95l-1.66,6a63.93,63.93,0,0,1-3.76,10.47A6,6,0,1,0,30,114a6,6,0,0,0-.42-2.2A107.61,107.61,0,0,1,25.66,101" transform="translate(0 0)" style="fill: #0e6fae"/>
    </g>
  </g>
</svg>
