<svg id="Layer_1" data-name="Layer 1" xmlns="http://www.w3.org/2000/svg" xmlns:xlink="http://www.w3.org/1999/xlink" viewBox="0 0 70.67 70.67">
  <defs>
    <mask id="mask" x="0" y="0" width="70.67" height="70.67" maskUnits="userSpaceOnUse">
      <g transform="translate(0 0)">
        <g id="mask-2">
          <polygon id="path-1" points="0 35.33 0 70.67 70.67 70.67 70.67 35.33 70.67 0 0 0 0 35.33" style="fill: #fff"/>
        </g>
      </g>
    </mask>
  </defs>
  <title>tick-red</title>
  <g id="Page-1">
    <g style="mask: url(#mask)">
      <path id="Fill-1" d="M53.94,27.61,30.66,50.89a4,4,0,0,1-5.66,0l-8.28-8.28A4,4,0,0,1,22.38,37l5.45,5.45L48.28,22a4,4,0,0,1,5.66,5.66M35.33,0A35.33,35.33,0,1,0,70.67,35.33,35.33,35.33,0,0,0,35.33,0" transform="translate(0 0)" style="fill: #e0004d"/>
    </g>
  </g>
</svg>
