<svg xmlns="http://www.w3.org/2000/svg" viewBox="0 0 377 32.29"><defs><style>.cls-1{fill:#ba0c2f}.cls-2{fill:#8e9089}</style></defs><title>logo</title><g id="Layer_2" data-name="Layer 2"><g id="Layer_1-2" data-name="Layer 1"><path class="cls-1" d="M15.23 18.54c0-2.75-1.44-3.63-3.73-3.63a5.53 5.53 0 0 0-4.33 2.19v14.53A7.17 7.17 0 0 1 0 24.45V7.73A7.17 7.17 0 0 1 7.17.56v11.32A10.17 10.17 0 0 1 15 8.57c5.12 0 7.45 2.89 7.45 7v16h-7.22zm9.97 1.81c0-6.35 4.61-11.78 12.25-11.78S49.74 14 49.74 20.35s-4.56 11.83-12.3 11.83S25.2 26.69 25.2 20.35zm17.19 0c0-3-1.77-5.45-4.94-5.45s-4.84 2.47-4.84 5.45 1.72 5.5 4.84 5.5 4.93-2.47 4.93-5.5zm38.56-2.42a2.71 2.71 0 0 0-3-3 5.2 5.2 0 0 0-4.05 2.19v14.51h-7.16v-13.7c0-1.72-.79-3-3-3a5.26 5.26 0 0 0-4 2.19v14.51h-7.16V9.13h7.17v2.75a10 10 0 0 1 7.41-3.31c3.21 0 5.45 1.35 6.38 4a9.68 9.68 0 0 1 7.78-4c4.15 0 6.75 2.14 6.75 6.75v16.3h-7.12zm21.94-9.36c6.66 0 11.5 4.89 11.5 12.53v1.54h-16c.42 2.1 2.38 4 5.73 4a8.9 8.9 0 0 0 5.5-1.91l3 4.47c-2.24 2-6 3-9.41 3-6.94 0-12.3-4.52-12.3-11.83a11.61 11.61 0 0 1 11.98-11.8zM98.28 18h9.27a4.32 4.32 0 0 0-4.66-3.87A4.44 4.44 0 0 0 98.28 18z"/><path class="cls-2" d="M117.09 2.7A2.73 2.73 0 0 1 119.8 0a2.7 2.7 0 0 1 2.7 2.7 2.66 2.66 0 0 1-2.7 2.65 2.69 2.69 0 0 1-2.71-2.65zm.65 6.43h4.19v18.3a4.19 4.19 0 0 1-4.19 4.19zm25.11 8.1c0-3.73-1.91-4.94-4.8-4.94a8 8 0 0 0-6.19 3.26v16.08h-4.19V9.13h4.19v3.17a10.73 10.73 0 0 1 8-3.73c4.75 0 7.22 2.51 7.22 7.27v15.79h-4.19zm6.61-8.1h4.47l7 17.65 7-17.65h4.52l-9.27 22.5h-4.52zm35.4-.56c6.75 0 10.95 5.26 10.95 12.16v1H178a7.38 7.38 0 0 0 7.64 7 9.56 9.56 0 0 0 6.66-2.65l2 2.75a12.66 12.66 0 0 1-9 3.35c-6.71 0-11.64-4.75-11.64-11.83-.07-6.52 4.63-11.78 11.2-11.78zM178 18.72h13.74a6.66 6.66 0 0 0-6.88-6.72c-4.52 0-6.66 3.65-6.86 6.72zm22.19 6.9a10.9 10.9 0 0 0 7.55 3.21c3.17 0 4.84-1.31 4.84-3.21 0-2.24-2.56-3-5.45-3.63-3.82-.88-8.29-1.91-8.29-6.75 0-3.59 3.07-6.66 8.57-6.66a12 12 0 0 1 8.59 3.2l-1.86 2.93a8.77 8.77 0 0 0-6.69-2.71c-2.84 0-4.61 1.12-4.61 2.93s2.42 2.61 5.22 3.26c3.91.88 8.57 2 8.57 7.13 0 3.87-3.17 6.89-9.08 6.89a12.8 12.8 0 0 1-9.36-3.49zm21.65 1.02V12.81h-3.73V9.13h3.73V3H226v6.13h4.56v3.68H226v12.9c0 1.58.75 2.75 2.19 2.75a3.22 3.22 0 0 0 2.28-.89l1.07 3.17a6 6 0 0 1-4.38 1.44c-3.5 0-5.32-2-5.32-5.54zm11.09-6.29c0-6.47 4.38-11.78 11.36-11.78s11.36 5.31 11.36 11.78-4.33 11.83-11.36 11.83-11.36-5.31-11.36-11.83zm18.35 0c0-4.24-2.47-8.06-7-8.06s-7 3.82-7 8.06 2.52 8.1 7 8.1 7-3.81 7-8.1zM260 9.13h4.19v3.45a9.56 9.56 0 0 1 7.36-4v4.24a6.61 6.61 0 0 0-1.44-.14 8 8 0 0 0-5.88 3.32v15.63H260z"/><path class="cls-1" d="M278.08 21.76a5.26 5.26 0 1 1-5.26 5.24 5.33 5.33 0 0 1 5.26-5.24zm12.43-7.46h-3.73V9.13h3.73V7.92c0-4.89 3.17-7.82 7.59-7.82a9.56 9.56 0 0 1 4.28.93l-1.21 4.19a3.63 3.63 0 0 0-1.91-.47c-1.68 0-2.8 1.12-2.8 3.26v1.12H301v5.17h-4.56v17.33h-6zm28.18 14.48a10.53 10.53 0 0 1-7.92 3.4c-4.94 0-7.27-2.7-7.27-7.08v-16h5.92v13.68c0 3.12 1.63 4.15 4.15 4.15a6.62 6.62 0 0 0 5.12-2.56V9.13h5.92v22.5h-5.92zM344.72 18c0-3.12-1.63-4.19-4.15-4.19a6.41 6.41 0 0 0-5.12 2.65v15.17h-5.92V9.13h5.92v2.93a10.3 10.3 0 0 1 7.87-3.49c4.94 0 7.31 2.79 7.31 7.17v15.89h-5.92zM371 28.78a8.82 8.82 0 0 1-6.94 3.4c-5.68 0-10-4.28-10-11.78s4.24-11.83 10-11.83A8.67 8.67 0 0 1 371 12V.56h6v31.07h-6zm0-12.39a6.51 6.51 0 0 0-5.12-2.56c-3.35 0-5.68 2.65-5.68 6.57s2.33 6.52 5.68 6.52a6.5 6.5 0 0 0 5.12-2.56z"/></g></g></svg>