<?xml version="1.0" encoding="UTF-8"?><!DOCTYPE svg PUBLIC "-//W3C//DTD SVG 1.1//EN" "http://www.w3.org/Graphics/SVG/1.1/DTD/svg11.dtd"><svg xmlns="http://www.w3.org/2000/svg" xmlns:xlink="http://www.w3.org/1999/xlink"><defs>
        <polygon id="path-1" points="75.0970976 0.836 0.625414939 0.836 0.625414939 102.630756 75.0970976 102.630756 75.0970976 0.836"/>
    
    <style>
      .cls-1 {
        fill: #ed1558;
      }
    </style>
  
        <polygon id="path-1" points="0 134 103.838 134 103.838 0.133 0 0.133"/>
    
        <polygon id="path-1" points="0 134 103.838 134 103.838 0.133 0 0.133"/>
        <polygon id="path-3" points="19.66665 0.583 39.333 0.583 39.333 39.917 0.0003 39.917 0.0003 0.583 19.66665 0.583"/>
        <polygon id="path-5" points="19.66665 0.583 39.333 0.583 39.333 39.917 0.0003 39.917 0.0003 0.583 19.66665 0.583"/>
        <polygon id="path-7" points="13.9606327 0.413850293 27.9210524 0.413850293 27.9210524 28.3356126 0.000212958984 28.3356126 0.000212958984 0.413850293 13.9606327 0.413850293"/>
        <polygon id="path-9" points="19.66665 0.583 39.333 0.583 39.333 39.917 0.0003 39.917 0.0003 0.583 19.66665 0.583"/>
        <polygon id="path-11" points="5.54840462e-17 22.078 5.54840462e-17 0.338 17.6498 0.338 17.6498 22.078 0 22.078"/>
        <polygon id="path-13" points="0.1503 0.397 18.9833 0.397 18.9833 23.5941 0.1503 23.5941 0.1503 0.397"/>
        <polygon id="path-15" points="0 0.5155 0 13.1715 46.9998 13.1715 46.9998 0.5155 1.35525272e-20 0.5155"/>
        <polygon id="path-17" points="0 7.0155 0 0.0155 46.9998 0.0155 46.9998 7.0155 5.55138617e-16 7.0155"/>
        <polygon id="path-19" points="0 149 83.629 149 83.629 0.511 0 0.511"/>
        <polygon id="path-21" points="0 134 103.838 134 103.838 0.133 0 0.133"/>
    
        <polygon id="path-1" points="0.5284 94 107.3324 94 107.3324 0.2442 0.5284 0.2442"/>
    
        <polygon id="path-1" points="54.0001 134 193.169 134 193.169 0.133 0 0.133 0 134 54.0001 134 138.5001 134.0001 138.5001 11.9751 54.0001 11.9751"/>
        <polygon id="path-3" points="0.9957 35 27.1737 35 27.1737 0.3544 0.9957 0.3544"/>
        <polygon id="path-5" points="0 134.867 193.169 134.867 193.169 1 0 1"/>
    
        <polygon id="path-1" points="0.0001 0.949 143.454 0.949 143.454 144.4036 0.0001 144.4036 0.0001 0.949"/>
    
        <polygon id="path-1" points="70.6666 70.6666 0.0006 70.6666 0.0006 0.0008 70.6666 0.0008 70.6666 70.6666"/>
    
        <polygon id="path-1" points="35.33335 0.333 0 0.333 0 71 35.33335 71 70.6667 71 70.6667 0.333 35.33335 0.333"/>
    
        <polygon id="path-1" points="0 35.33365 0 70.6666 70.667 70.6666 70.667 35.33365 70.667 0.0007 0 0.0007 0 35.33365"/>
    </defs><symbol id="balloons" viewBox="0 0 179 190">
    <!-- Generator: Sketch 43.2 (39069) - http://www.bohemiancoding.com/sketch -->
    <title>Page 1</title>
    <desc>Created with Sketch.</desc>
    
    <g id="Page-1" stroke="none" stroke-width="1" fill="none" fill-rule="evenodd">
        <g transform="translate(0.000000, -1.000000)">
            <path d="M116.7157,187.664 C116.7157,187.164 122.8407,174.039 126.2157,152.164" id="Stroke-1" stroke="#0074BB" stroke-width="5" stroke-linecap="round"/>
            <path d="M90.3407,99.414 C90.4657,99.789 86.3407,157.789 95.0907,184.289" id="Stroke-3" stroke="#0074BB" stroke-width="5" stroke-linecap="round"/>
            <path d="M49.3954,144.7714 C49.3954,144.7714 53.9514,164.9144 61.6254,182.9144" id="Stroke-5" stroke="#0074BB" stroke-width="5" stroke-linecap="round"/>
            <g id="Group-9" transform="translate(61.000000, 0.164000)">
                <mask id="mask-2" fill="white">
                    <use xlink:href="#path-1"/>
                </mask>
                <g id="Clip-8"/>
                <path d="M34.1327,97.6162 C35.8317,94.1832 39.1127,91.5332 43.2487,90.4772 C58.4657,86.5932 71.3167,71.5332 74.4097,51.9162 C78.3227,27.0942 65.1327,4.3912 44.9477,1.2082 C24.7617,-1.9738 5.2267,15.5692 1.3127,40.3912 C-1.7803,60.0082 5.8147,78.2912 19.0977,86.6692 C22.7077,88.9462 25.0137,92.4782 25.5747,96.2672 L25.8497,96.5262 C24.2297,96.8262 23.1037,97.5162 22.9537,98.4702 C22.6957,100.1062 25.3957,101.8922 28.9837,102.4582 C32.5727,103.0232 35.6907,102.1552 35.9487,100.5192 C36.0987,99.5652 35.2397,98.5622 33.7917,97.7782 L34.1327,97.6162 Z" id="Fill-7" fill="#F6DE81" mask="url(#mask-2)"/>
            </g>
            <path d="M131.1322,152.0722 C133.2452,148.8782 136.8302,146.6552 141.0652,146.1222 C156.6472,144.1612 171.2722,130.8172 176.7812,111.7372 C183.7522,87.5942 173.4882,63.4272 153.8562,57.7592 C134.2232,52.0902 112.6572,67.0662 105.6862,91.2092 C100.1762,110.2892 105.4382,129.3752 117.5752,139.3402 C120.8742,142.0482 122.7232,145.8402 122.8082,149.6692 L123.0492,149.9612 C121.4042,150.0562 120.2012,150.6012 119.9332,151.5292 C119.4742,153.1212 121.9302,155.2282 125.4212,156.2362 C128.9112,157.2442 132.1132,156.7702 132.5722,155.1782 C132.8402,154.2512 132.1132,153.1492 130.7732,152.1902 L131.1322,152.0722 Z" id="Fill-10" fill="#EECA13"/>
            <path d="M52.4579,138.4013 C52.8089,134.5883 54.9159,130.9333 58.3949,128.4613 C71.1959,119.3633 77.7709,100.6883 73.5999,81.2723 C68.3219,56.7033 47.8479,40.2653 27.8699,44.5573 C7.8909,48.8483 -4.0271,72.2443 1.2499,96.8123 C5.4209,116.2293 19.0829,130.5563 34.4919,133.5953 C38.6789,134.4223 42.1009,136.8873 43.9869,140.2203 L44.3369,140.3643 C42.9339,141.2263 42.1319,142.2753 42.3339,143.2193 C42.6819,144.8393 45.8439,145.5343 49.3949,144.7713 C52.9469,144.0073 55.5439,142.0763 55.1959,140.4573 C54.9939,139.5123 53.8319,138.8853 52.1979,138.6753 L52.4579,138.4013 Z" id="Fill-12" fill="#EECA13"/>
            <path d="M166.1674,101.9208 C162.5514,114.7878 149.1894,122.2878 136.3224,118.6728 C123.4544,115.0568 115.9544,101.6938 119.5704,88.8268 C123.1864,75.9598 136.5484,68.4598 149.4164,72.0758 C162.2834,75.6918 169.7834,89.0538 166.1674,101.9208" id="Fill-14" fill="#F6DE81"/>
            <path d="M166.1674,101.9208 C162.5514,114.7878 149.1894,122.2878 136.3224,118.6728 C123.4544,115.0568 115.9544,101.6938 119.5704,88.8268 C123.1864,75.9598 136.5484,68.4598 149.4164,72.0758 C162.2834,75.6918 169.7834,89.0538 166.1674,101.9208 Z" id="Stroke-16" stroke="#FAF3D2" stroke-width="5" stroke-linecap="round"/>
            <path d="M149.6483,104.2128 C149.6443,104.5068 149.6253,104.7558 149.5913,104.9598 C149.5573,105.1648 149.5103,105.3288 149.4503,105.4538 C149.3913,105.5798 149.3243,105.6678 149.2503,105.7198 C149.1763,105.7718 149.0923,105.7958 148.9973,105.7948 L136.3713,105.6288 C136.2763,105.6278 136.1923,105.6008 136.1203,105.5468 C136.0473,105.4928 135.9823,105.4028 135.9263,105.2758 C135.8703,105.1498 135.8283,104.9838 135.7993,104.7788 C135.7703,104.5738 135.7583,104.3238 135.7623,104.0298 C135.7663,103.7268 135.7823,103.4718 135.8113,103.2678 C135.8403,103.0638 135.8843,102.8988 135.9433,102.7738 C136.0033,102.6488 136.0723,102.5598 136.1513,102.5088 C136.2313,102.4568 136.3183,102.4318 136.4133,102.4328 L138.0813,102.4548 L138.1553,96.8508 L136.4863,96.8278 C136.3923,96.8268 136.3083,96.8018 136.2353,96.7538 C136.1623,96.7058 136.0983,96.6208 136.0423,96.4998 C135.9853,96.3778 135.9433,96.2178 135.9143,96.0178 C135.8853,95.8168 135.8733,95.5658 135.8773,95.2608 C135.8803,94.9668 135.8973,94.7208 135.9263,94.5218 C135.9553,94.3228 135.9993,94.1628 136.0583,94.0438 C136.1173,93.9228 136.1873,93.8378 136.2663,93.7858 C136.3463,93.7348 136.4333,93.7098 136.5273,93.7108 L138.1963,93.7328 L138.2153,92.2838 C138.2323,91.0038 138.3883,89.9008 138.6843,88.9758 C138.9793,88.0508 139.4043,87.2928 139.9583,86.7008 C140.5113,86.1098 141.1943,85.6808 142.0063,85.4138 C142.8173,85.1458 143.7483,85.0188 144.7983,85.0328 C145.2603,85.0388 145.7033,85.0788 146.1273,85.1528 C146.5513,85.2268 146.9413,85.3258 147.2963,85.4518 C147.6513,85.5768 147.9723,85.7228 148.2593,85.8888 C148.5453,86.0558 148.7533,86.2078 148.8833,86.3458 C149.0123,86.4838 149.1053,86.5988 149.1623,86.6888 C149.2183,86.7778 149.2613,86.8888 149.2913,87.0208 C149.3213,87.1518 149.3423,87.3128 149.3563,87.5018 C149.3693,87.6908 149.3743,87.9218 149.3703,88.1948 C149.3663,88.4888 149.3503,88.7348 149.3213,88.9348 C149.2923,89.1338 149.2513,89.2928 149.1973,89.4128 C149.1433,89.5328 149.0793,89.6188 149.0043,89.6708 C148.9303,89.7218 148.8513,89.7468 148.7673,89.7458 C148.6203,89.7438 148.4563,89.6688 148.2743,89.5188 C148.0923,89.3698 147.8633,89.2068 147.5873,89.0298 C147.3123,88.8528 146.9863,88.6888 146.6103,88.5368 C146.2343,88.3848 145.7843,88.3048 145.2593,88.2978 C144.7343,88.2918 144.2873,88.3718 143.9173,88.5408 C143.5473,88.7088 143.2453,88.9568 143.0103,89.2848 C142.7743,89.6118 142.6013,90.0198 142.4903,90.5058 C142.3783,90.9928 142.3193,91.5508 142.3113,92.1808 L142.2903,93.7868 L146.5243,93.8418 C146.6193,93.8428 146.7053,93.8708 146.7833,93.9238 C146.8613,93.9778 146.9263,94.0658 146.9773,94.1868 C147.0273,94.3078 147.0673,94.4688 147.0963,94.6688 C147.1253,94.8678 147.1383,95.1148 147.1343,95.4088 C147.1303,95.7138 147.1113,95.9648 147.0773,96.1638 C147.0433,96.3628 146.9963,96.5228 146.9373,96.6428 C146.8773,96.7628 146.8113,96.8458 146.7363,96.8918 C146.6623,96.9388 146.5783,96.9608 146.4833,96.9598 L142.2493,96.9038 L142.1753,102.5088 L149.0393,102.5988 C149.1343,102.6008 149.2203,102.6278 149.2983,102.6808 C149.3763,102.7338 149.4403,102.8248 149.4913,102.9508 C149.5423,103.0778 149.5823,103.2438 149.6103,103.4488 C149.6393,103.6538 149.6523,103.9088 149.6483,104.2128" id="Fill-18" fill="#B6A30D"/>
            <path d="M121.35,48.2269 C116.412,60.6469 102.34,66.7119 89.92,61.7739 C77.5,56.8359 71.434,42.7649 76.373,30.3449 C81.311,17.9239 95.382,11.8589 107.803,16.7969 C120.223,21.7349 126.288,35.8069 121.35,48.2269" id="Fill-20" fill="#F6DE81"/>
            <path d="M121.35,48.2269 C116.412,60.6469 102.34,66.7119 89.92,61.7739 C77.5,56.8359 71.434,42.7649 76.373,30.3449 C81.311,17.9239 95.382,11.8589 107.803,16.7969 C120.223,21.7349 126.288,35.8069 121.35,48.2269 Z" id="Stroke-22" stroke="#FAF3D2" stroke-width="5" stroke-linecap="round"/>
            <path d="M104.682,48.7836 C104.647,49.0756 104.602,49.3216 104.547,49.5206 C104.492,49.7206 104.428,49.8796 104.356,49.9976 C104.284,50.1166 104.208,50.1966 104.129,50.2406 C104.05,50.2836 103.964,50.3006 103.87,50.2886 L91.329,48.8066 C91.235,48.7956 91.155,48.7606 91.088,48.6996 C91.021,48.6386 90.967,48.5426 90.924,48.4106 C90.882,48.2786 90.857,48.1096 90.849,47.9026 C90.842,47.6956 90.856,47.4456 90.89,47.1536 C90.926,46.8516 90.969,46.6006 91.019,46.4006 C91.069,46.2006 91.13,46.0406 91.202,45.9226 C91.274,45.8046 91.352,45.7236 91.437,45.6806 C91.521,45.6376 91.61,45.6216 91.704,45.6326 L93.362,45.8286 L94.019,40.2626 L92.362,40.0666 C92.268,40.0546 92.187,40.0216 92.12,39.9666 C92.053,39.9106 91.997,39.8196 91.954,39.6926 C91.911,39.5666 91.886,39.4026 91.878,39.2006 C91.87,38.9986 91.884,38.7466 91.919,38.4446 C91.954,38.1526 91.996,37.9086 92.045,37.7136 C92.095,37.5186 92.155,37.3656 92.227,37.2516 C92.298,37.1386 92.376,37.0606 92.461,37.0176 C92.545,36.9746 92.634,36.9586 92.728,36.9706 L94.385,37.1656 L94.556,35.7276 C94.705,34.4556 94.976,33.3746 95.367,32.4856 C95.757,31.5966 96.258,30.8866 96.87,30.3566 C97.483,29.8266 98.207,29.4706 99.042,29.2896 C99.877,29.1076 100.816,29.0786 101.859,29.2016 C102.317,29.2566 102.754,29.3426 103.168,29.4596 C103.582,29.5776 103.959,29.7176 104.3,29.8786 C104.64,30.0406 104.944,30.2196 105.211,30.4146 C105.479,30.6106 105.67,30.7836 105.784,30.9346 C105.898,31.0856 105.979,31.2086 106.026,31.3036 C106.073,31.3996 106.104,31.5136 106.12,31.6476 C106.136,31.7816 106.14,31.9436 106.134,32.1336 C106.127,32.3226 106.108,32.5526 106.076,32.8236 C106.042,33.1156 106,33.3596 105.95,33.5546 C105.901,33.7486 105.843,33.9036 105.777,34.0166 C105.71,34.1306 105.638,34.2096 105.558,34.2526 C105.479,34.2966 105.398,34.3136 105.315,34.3036 C105.169,34.2856 105.013,34.1936 104.848,34.0266 C104.683,33.8586 104.472,33.6726 104.216,33.4686 C103.96,33.2636 103.654,33.0656 103.295,32.8756 C102.937,32.6856 102.498,32.5596 101.976,32.4976 C101.455,32.4366 101.002,32.4706 100.617,32.5986 C100.232,32.7276 99.905,32.9426 99.637,33.2436 C99.369,33.5456 99.154,33.9316 98.993,34.4046 C98.831,34.8766 98.713,35.4266 98.64,36.0516 L98.451,37.6466 L102.657,38.1436 C102.751,38.1546 102.834,38.1906 102.906,38.2516 C102.978,38.3136 103.033,38.4076 103.071,38.5336 C103.109,38.6586 103.132,38.8236 103.14,39.0246 C103.147,39.2266 103.134,39.4736 103.099,39.7656 C103.064,40.0676 103.019,40.3156 102.964,40.5106 C102.91,40.7046 102.846,40.8586 102.775,40.9716 C102.703,41.0846 102.628,41.1606 102.55,41.1986 C102.471,41.2366 102.385,41.2506 102.291,41.2396 L98.085,40.7426 L97.427,46.3086 L104.245,47.1146 C104.339,47.1256 104.422,47.1616 104.494,47.2236 C104.566,47.2846 104.62,47.3816 104.658,47.5126 C104.695,47.6436 104.717,47.8126 104.724,48.0196 C104.732,48.2266 104.718,48.4816 104.682,48.7836" id="Fill-24" fill="#B6A30D"/>
            <path d="M61.6254,84.914 C61.6254,98.28 50.7904,109.115 37.4244,109.115 C24.0594,109.115 13.2234,98.28 13.2234,84.914 C13.2234,71.548 24.0594,60.713 37.4244,60.713 C50.7904,60.713 61.6254,71.548 61.6254,84.914" id="Fill-26" fill="#F6DE81"/>
            <path d="M61.6254,84.914 C61.6254,98.28 50.7904,109.115 37.4244,109.115 C24.0594,109.115 13.2234,98.28 13.2234,84.914 C13.2234,71.548 24.0594,60.713 37.4244,60.713 C50.7904,60.713 61.6254,71.548 61.6254,84.914 Z" id="Stroke-28" stroke="#FAF3D2" stroke-width="5" stroke-linecap="round"/>
            <path d="M46.3422,91.5897 C46.4182,91.8737 46.4672,92.1187 46.4892,92.3237 C46.5112,92.5297 46.5112,92.7017 46.4882,92.8387 C46.4652,92.9747 46.4242,93.0777 46.3672,93.1477 C46.3092,93.2167 46.2352,93.2637 46.1442,93.2887 L33.9432,96.5447 C33.8512,96.5687 33.7632,96.5657 33.6792,96.5327 C33.5942,96.5017 33.5082,96.4327 33.4202,96.3257 C33.3322,96.2187 33.2462,96.0697 33.1632,95.8807 C33.0792,95.6917 33.0002,95.4537 32.9242,95.1707 C32.8462,94.8767 32.7932,94.6267 32.7652,94.4227 C32.7382,94.2177 32.7362,94.0477 32.7592,93.9107 C32.7822,93.7747 32.8252,93.6707 32.8882,93.5997 C32.9502,93.5277 33.0282,93.4807 33.1182,93.4567 L34.7312,93.0257 L33.2862,87.6107 L31.6732,88.0407 C31.5822,88.0647 31.4952,88.0637 31.4112,88.0367 C31.3282,88.0097 31.2432,87.9457 31.1562,87.8447 C31.0702,87.7427 30.9852,87.5997 30.9042,87.4147 C30.8212,87.2307 30.7412,86.9907 30.6632,86.6967 C30.5872,86.4127 30.5362,86.1717 30.5102,85.9717 C30.4842,85.7727 30.4832,85.6067 30.5082,85.4757 C30.5322,85.3437 30.5762,85.2427 30.6392,85.1717 C30.7012,85.1007 30.7782,85.0527 30.8692,85.0277 L32.4822,84.5977 L32.1092,83.1987 C31.7782,81.9617 31.6302,80.8577 31.6652,79.8867 C31.6992,78.9157 31.9032,78.0707 32.2762,77.3527 C32.6492,76.6327 33.1902,76.0357 33.8992,75.5577 C34.6082,75.0807 35.4702,74.7067 36.4842,74.4367 C36.9302,74.3177 37.3682,74.2357 37.7962,74.1927 C38.2242,74.1487 38.6272,74.1387 39.0032,74.1637 C39.3792,74.1887 39.7272,74.2417 40.0482,74.3247 C40.3682,74.4077 40.6102,74.4977 40.7722,74.5957 C40.9342,74.6937 41.0542,74.7787 41.1332,74.8497 C41.2122,74.9217 41.2832,75.0157 41.3482,75.1347 C41.4122,75.2537 41.4762,75.4027 41.5402,75.5807 C41.6042,75.7587 41.6712,75.9807 41.7412,76.2437 C41.8172,76.5277 41.8682,76.7697 41.8942,76.9687 C41.9202,77.1687 41.9242,77.3337 41.9042,77.4637 C41.8842,77.5937 41.8462,77.6937 41.7882,77.7627 C41.7312,77.8327 41.6622,77.8787 41.5802,77.9007 C41.4392,77.9377 41.2602,77.9097 41.0452,77.8147 C40.8292,77.7207 40.5652,77.6257 40.2512,77.5297 C39.9382,77.4337 39.5802,77.3637 39.1762,77.3187 C38.7742,77.2747 38.3192,77.3197 37.8112,77.4557 C37.3042,77.5907 36.8962,77.7897 36.5852,78.0517 C36.2752,78.3137 36.0512,78.6337 35.9132,79.0137 C35.7752,79.3927 35.7182,79.8317 35.7432,80.3297 C35.7672,80.8287 35.8612,81.3817 36.0232,81.9907 L36.4372,83.5427 L40.5302,82.4497 C40.6212,82.4257 40.7112,82.4287 40.8012,82.4597 C40.8902,82.4897 40.9762,82.5567 41.0582,82.6597 C41.1402,82.7627 41.2222,82.9067 41.3032,83.0907 C41.3852,83.2757 41.4642,83.5097 41.5402,83.7937 C41.6182,84.0887 41.6682,84.3357 41.6892,84.5367 C41.7102,84.7367 41.7092,84.9027 41.6842,85.0347 C41.6592,85.1667 41.6172,85.2647 41.5592,85.3287 C41.5002,85.3937 41.4252,85.4377 41.3342,85.4627 L37.2412,86.5547 L38.6872,91.9707 L45.3202,90.1997 C45.4112,90.1757 45.5012,90.1787 45.5912,90.2097 C45.6802,90.2397 45.7672,90.3087 45.8502,90.4177 C45.9332,90.5257 46.0162,90.6737 46.0992,90.8637 C46.1832,91.0537 46.2632,91.2957 46.3422,91.5897" id="Fill-30" fill="#B6A30D"/>
            <path d="M86.5849,94.4838 L96.3239,96.2638" id="Stroke-32" stroke="#0074BB" stroke-width="5" stroke-linecap="round"/>
            <path d="M122.5863,147.9755 L132.3253,150.7555" id="Stroke-34" stroke="#0074BB" stroke-width="5" stroke-linecap="round"/>
            <path d="M42.9872,138.2206 L52.7292,136.4586" id="Stroke-36" stroke="#0074BB" stroke-width="5" stroke-linecap="round"/>
        </g>
    </g>
</symbol><symbol id="chevron" viewBox="0 0 10.35 17.08">
  
  <title>chevron</title>
  <g id="Layer_2" data-name="Layer 2">
    <g id="Layer_2-2" data-name="Layer 2">
      <path class="cls-1" d="M.11,1.29,1.29.11a.38.38,0,0,1,.53,0l8.41,8.16a.38.38,0,0,1,0,.54L1.82,17a.38.38,0,0,1-.53,0L.11,15.8a.38.38,0,0,1,0-.54L6.76,8.81a.38.38,0,0,0,0-.54L.12,1.83A.38.38,0,0,1,.11,1.29Z"/>
    </g>
  </g>
</symbol><symbol id="hero-house-1" viewBox="0 0 105 135">
    <!-- Generator: Sketch 43.2 (39069) - http://www.bohemiancoding.com/sketch -->
    <title>Page 1</title>
    <desc>Created with Sketch.</desc>
    
    <g id="Page-1" stroke="none" stroke-width="1" fill="none" fill-rule="evenodd">
        <g transform="translate(0.738281, -0.843750)">
            <polygon id="Fill-1" fill="#106FAE" points="51.9189 6.867 9.6689 43.867 9.6689 63.996 56.4439 23.034 94.1689 56.071 94.1689 43.867"/>
            <polygon id="Fill-2" fill="#08ACA6" points="9.6687 63.9956 9.6687 134.8666 94.1687 134.8666 94.1687 56.0716 56.4437 23.0336"/>
            <g id="Group-17" transform="translate(0.000000, 0.867000)">
                <path d="M4.393,51.5396 C5.14,52.3926 6.435,52.4776 7.288,51.7316 L51.919,12.6466 L96.55,51.7316 C97.402,52.4776 98.698,52.3926 99.445,51.5396 L103.33,47.1026 C104.076,46.2506 103.99,44.9546 103.138,44.2076 L53.478,0.7196 C52.586,-0.0624 51.252,-0.0624 50.359,0.7196 L0.7,44.2076 C-0.152,44.9546 -0.238,46.2506 0.508,47.1026 L4.393,51.5396 Z" id="Fill-3" fill="#D30B50"/>
                <mask id="mask-2" fill="white">
                    <use xlink:href="#path-1"/>
                </mask>
                <g id="Clip-6"/>
                <polygon id="Fill-5" fill="#106FAE" mask="url(#mask-2)" points="39.311 134 64.528 134 64.528 89.5 39.311 89.5"/>
                <path d="M51.9189,95.5625 C48.5019,95.5625 45.7319,98.3335 45.7319,101.7495 C45.7319,105.1665 48.5019,107.9375 51.9189,107.9375 C55.3359,107.9375 58.1059,105.1665 58.1059,101.7495 C58.1059,98.3335 55.3359,95.5625 51.9189,95.5625" id="Fill-7" fill="#FFFFFF" mask="url(#mask-2)"/>
                <path d="M33.2524,67.7134 C29.8354,67.7134 27.0654,70.4834 27.0654,73.9014 C27.0654,77.3184 29.8354,80.0884 33.2524,80.0884 C36.6694,80.0884 39.4394,77.3184 39.4394,73.9014 C39.4394,70.4834 36.6694,67.7134 33.2524,67.7134 Z" id="Stroke-8" stroke="#106FAE" stroke-width="3" mask="url(#mask-2)"/>
                <path d="M70.5854,67.7134 C67.1684,67.7134 64.3984,70.4834 64.3984,73.9014 C64.3984,77.3184 67.1684,80.0884 70.5854,80.0884 C74.0024,80.0884 76.7724,77.3184 76.7724,73.9014 C76.7724,70.4834 74.0024,67.7134 70.5854,67.7134 Z" id="Stroke-9" stroke="#106FAE" stroke-width="3" mask="url(#mask-2)"/>
                <path d="M51.9189,44.8647 C48.5019,44.8647 45.7319,47.6347 45.7319,51.0517 C45.7319,54.4687 48.5019,57.2397 51.9189,57.2397 C55.3359,57.2397 58.1059,54.4687 58.1059,51.0517 C58.1059,47.6347 55.3359,44.8647 51.9189,44.8647 Z" id="Stroke-10" stroke="#106FAE" stroke-width="3" mask="url(#mask-2)"/>
                <path d="M51.9189,44.8647 L51.9189,57.2397" id="Stroke-11" stroke="#106FAE" stroke-width="3" mask="url(#mask-2)"/>
                <path d="M58.1064,51.0522 L45.7314,51.0522" id="Stroke-12" stroke="#106FAE" stroke-width="3" mask="url(#mask-2)"/>
                <path d="M33.2524,67.7134 L33.2524,80.0884" id="Stroke-13" stroke="#106FAE" stroke-width="3" mask="url(#mask-2)"/>
                <path d="M39.4399,73.9014 L27.0649,73.9014" id="Stroke-14" stroke="#106FAE" stroke-width="3" mask="url(#mask-2)"/>
                <path d="M70.5854,67.7134 L70.5854,80.0884" id="Stroke-15" stroke="#106FAE" stroke-width="3" mask="url(#mask-2)"/>
                <path d="M76.7729,73.9014 L64.3979,73.9014" id="Stroke-16" stroke="#106FAE" stroke-width="3" mask="url(#mask-2)"/>
            </g>
        </g>
    </g>
</symbol><symbol id="hero-houses" viewBox="0 0 991 150">
    <!-- Generator: Sketch 43.2 (39069) - http://www.bohemiancoding.com/sketch -->
    <title>Group</title>
    <desc>Created with Sketch.</desc>
    
    <g id="Page-1" stroke="none" stroke-width="1" fill="none" fill-rule="evenodd">
        <g id="Group" transform="translate(0.000000, -1.000000)">
            <g id="Page-1" transform="translate(0.738281, 15.156250)">
                <polygon id="Fill-1" fill="#106FAE" points="51.9189 6.867 9.6689 43.867 9.6689 63.996 56.4439 23.034 94.1689 56.071 94.1689 43.867"/>
                <polygon id="Fill-2" fill="#08ACA6" points="9.6687 63.9956 9.6687 134.8666 94.1687 134.8666 94.1687 56.0716 56.4437 23.0336"/>
                <g id="Group-17" transform="translate(0.000000, 0.867000)">
                    <path d="M4.393,51.5396 C5.14,52.3926 6.435,52.4776 7.288,51.7316 L51.919,12.6466 L96.55,51.7316 C97.402,52.4776 98.698,52.3926 99.445,51.5396 L103.33,47.1026 C104.076,46.2506 103.99,44.9546 103.138,44.2076 L53.478,0.7196 C52.586,-0.0624 51.252,-0.0624 50.359,0.7196 L0.7,44.2076 C-0.152,44.9546 -0.238,46.2506 0.508,47.1026 L4.393,51.5396 Z" id="Fill-3" fill="#D30B50"/>
                    <mask id="mask-2" fill="white">
                        <use xlink:href="#path-1"/>
                    </mask>
                    <g id="Clip-6"/>
                    <polygon id="Fill-5" fill="#106FAE" mask="url(#mask-2)" points="39.311 134 64.528 134 64.528 89.5 39.311 89.5"/>
                    <path d="M51.9189,95.5625 C48.5019,95.5625 45.7319,98.3335 45.7319,101.7495 C45.7319,105.1665 48.5019,107.9375 51.9189,107.9375 C55.3359,107.9375 58.1059,105.1665 58.1059,101.7495 C58.1059,98.3335 55.3359,95.5625 51.9189,95.5625" id="Fill-7" fill="#FFFFFF" mask="url(#mask-2)"/>
                    <path d="M33.2524,67.7134 C29.8354,67.7134 27.0654,70.4834 27.0654,73.9014 C27.0654,77.3184 29.8354,80.0884 33.2524,80.0884 C36.6694,80.0884 39.4394,77.3184 39.4394,73.9014 C39.4394,70.4834 36.6694,67.7134 33.2524,67.7134 Z" id="Stroke-8" stroke="#106FAE" stroke-width="3" mask="url(#mask-2)"/>
                    <path d="M70.5854,67.7134 C67.1684,67.7134 64.3984,70.4834 64.3984,73.9014 C64.3984,77.3184 67.1684,80.0884 70.5854,80.0884 C74.0024,80.0884 76.7724,77.3184 76.7724,73.9014 C76.7724,70.4834 74.0024,67.7134 70.5854,67.7134 Z" id="Stroke-9" stroke="#106FAE" stroke-width="3" mask="url(#mask-2)"/>
                    <path d="M51.9189,44.8647 C48.5019,44.8647 45.7319,47.6347 45.7319,51.0517 C45.7319,54.4687 48.5019,57.2397 51.9189,57.2397 C55.3359,57.2397 58.1059,54.4687 58.1059,51.0517 C58.1059,47.6347 55.3359,44.8647 51.9189,44.8647 Z" id="Stroke-10" stroke="#106FAE" stroke-width="3" mask="url(#mask-2)"/>
                    <path d="M51.9189,44.8647 L51.9189,57.2397" id="Stroke-11" stroke="#106FAE" stroke-width="3" mask="url(#mask-2)"/>
                    <path d="M58.1064,51.0522 L45.7314,51.0522" id="Stroke-12" stroke="#106FAE" stroke-width="3" mask="url(#mask-2)"/>
                    <path d="M33.2524,67.7134 L33.2524,80.0884" id="Stroke-13" stroke="#106FAE" stroke-width="3" mask="url(#mask-2)"/>
                    <path d="M39.4399,73.9014 L27.0649,73.9014" id="Stroke-14" stroke="#106FAE" stroke-width="3" mask="url(#mask-2)"/>
                    <path d="M70.5854,67.7134 L70.5854,80.0884" id="Stroke-15" stroke="#106FAE" stroke-width="3" mask="url(#mask-2)"/>
                    <path d="M76.7729,73.9014 L64.3979,73.9014" id="Stroke-16" stroke="#106FAE" stroke-width="3" mask="url(#mask-2)"/>
                </g>
            </g>
            <g id="Page-1" transform="translate(188.664062, 84.156250)">
                <path d="M22.0887,65.4167 L17.2447,65.4167 C16.5577,65.4167 15.9997,64.8587 15.9997,64.1717 L15.9997,31.7497 L23.3337,31.7497 L23.3337,64.1717 C23.3337,64.8587 22.7757,65.4167 22.0887,65.4167" id="Fill-1" fill="#E3DB7C"/>
                <g id="Group-5" transform="translate(0.000000, 0.416700)">
                    <mask id="mask-4" fill="white">
                        <use xlink:href="#path-3"/>
                    </mask>
                    <g id="Clip-4"/>
                    <path d="M39.3333,20.25 C39.3333,31.111 30.5283,39.917 19.6663,39.917 C8.8053,39.917 0.0003,31.111 0.0003,20.25 C0.0003,9.388 8.8053,0.583 19.6663,0.583 C30.5283,0.583 39.3333,9.388 39.3333,20.25" id="Fill-3" fill="#106FAE" mask="url(#mask-4)"/>
                </g>
                <path d="M9.4168,16.5871 C9.4168,17.5531 8.6328,18.3371 7.6668,18.3371 C6.6998,18.3371 5.9168,17.5531 5.9168,16.5871 C5.9168,15.6201 6.6998,14.8371 7.6668,14.8371 C8.6328,14.8371 9.4168,15.6201 9.4168,16.5871" id="Fill-6" fill="#E3DB7C"/>
                <path d="M15.0833,7.8332 C15.0833,8.8002 14.2993,9.5832 13.3333,9.5832 C12.3673,9.5832 11.5833,8.8002 11.5833,7.8332 C11.5833,6.8672 12.3673,6.0832 13.3333,6.0832 C14.2993,6.0832 15.0833,6.8672 15.0833,7.8332" id="Fill-8" fill="#E3DB7C"/>
                <path d="M25.0833,23.7546 C25.0833,24.7216 24.2993,25.5046 23.3333,25.5046 C22.3673,25.5046 21.5833,24.7216 21.5833,23.7546 C21.5833,22.7876 22.3673,22.0046 23.3333,22.0046 C24.2993,22.0046 25.0833,22.7876 25.0833,23.7546" id="Fill-10" fill="#E3DB7C"/>
                <path d="M26.8333,8.3894 C26.8333,9.3564 26.0493,10.1394 25.0833,10.1394 C24.1173,10.1394 23.3333,9.3564 23.3333,8.3894 C23.3333,7.4234 24.1173,6.6394 25.0833,6.6394 C26.0493,6.6394 26.8333,7.4234 26.8333,8.3894" id="Fill-12" fill="#E3DB7C"/>
                <path d="M32.3656,18.1394 C32.3656,18.9964 31.6706,19.6924 30.8126,19.6924 C29.9556,19.6924 29.2606,18.9964 29.2606,18.1394 C29.2606,17.2824 29.9556,16.5874 30.8126,16.5874 C31.6706,16.5874 32.3656,17.2824 32.3656,18.1394" id="Fill-14" fill="#E3DB7C"/>
                <path d="M30.8128,32.2497 C30.8128,33.1067 30.1178,33.8027 29.2598,33.8027 C28.4028,33.8027 27.7078,33.1067 27.7078,32.2497 C27.7078,31.3927 28.4028,30.6967 29.2598,30.6967 C30.1178,30.6967 30.8128,31.3927 30.8128,32.2497" id="Fill-16" fill="#E3DB7C"/>
                <path d="M14.0833,23.9694 C14.0833,24.9364 13.2993,25.7194 12.3333,25.7194 C11.3673,25.7194 10.5833,24.9364 10.5833,23.9694 C10.5833,23.0024 11.3673,22.2194 12.3333,22.2194 C13.2993,22.2194 14.0833,23.0024 14.0833,23.9694" id="Fill-18" fill="#E3DB7C"/>
                <path d="M15.6361,33.8024 C15.6361,34.6594 14.9411,35.3544 14.0831,35.3544 C13.2261,35.3544 12.5311,34.6594 12.5311,33.8024 C12.5311,32.9454 13.2261,32.2494 14.0831,32.2494 C14.9411,32.2494 15.6361,32.9454 15.6361,33.8024" id="Fill-20" fill="#E3DB7C"/>
            </g>
            <g id="Page-1" transform="translate(909.343750, 84.156250)">
                <path d="M22.0887,65.4167 L17.2447,65.4167 C16.5577,65.4167 15.9997,64.8587 15.9997,64.1717 L15.9997,31.7497 L23.3337,31.7497 L23.3337,64.1717 C23.3337,64.8587 22.7757,65.4167 22.0887,65.4167" id="Fill-1" fill="#E3DB7C"/>
                <g id="Group-5" transform="translate(0.000000, 0.416700)">
                    <mask id="mask-6" fill="white">
                        <use xlink:href="#path-5"/>
                    </mask>
                    <g id="Clip-4"/>
                    <path d="M39.3333,20.25 C39.3333,31.111 30.5283,39.917 19.6663,39.917 C8.8053,39.917 0.0003,31.111 0.0003,20.25 C0.0003,9.388 8.8053,0.583 19.6663,0.583 C30.5283,0.583 39.3333,9.388 39.3333,20.25" id="Fill-3" fill="#106FAE" mask="url(#mask-6)"/>
                </g>
                <path d="M9.4168,16.5871 C9.4168,17.5531 8.6328,18.3371 7.6668,18.3371 C6.6998,18.3371 5.9168,17.5531 5.9168,16.5871 C5.9168,15.6201 6.6998,14.8371 7.6668,14.8371 C8.6328,14.8371 9.4168,15.6201 9.4168,16.5871" id="Fill-6" fill="#E3DB7C"/>
                <path d="M15.0833,7.8332 C15.0833,8.8002 14.2993,9.5832 13.3333,9.5832 C12.3673,9.5832 11.5833,8.8002 11.5833,7.8332 C11.5833,6.8672 12.3673,6.0832 13.3333,6.0832 C14.2993,6.0832 15.0833,6.8672 15.0833,7.8332" id="Fill-8" fill="#E3DB7C"/>
                <path d="M25.0833,23.7546 C25.0833,24.7216 24.2993,25.5046 23.3333,25.5046 C22.3673,25.5046 21.5833,24.7216 21.5833,23.7546 C21.5833,22.7876 22.3673,22.0046 23.3333,22.0046 C24.2993,22.0046 25.0833,22.7876 25.0833,23.7546" id="Fill-10" fill="#E3DB7C"/>
                <path d="M26.8333,8.3894 C26.8333,9.3564 26.0493,10.1394 25.0833,10.1394 C24.1173,10.1394 23.3333,9.3564 23.3333,8.3894 C23.3333,7.4234 24.1173,6.6394 25.0833,6.6394 C26.0493,6.6394 26.8333,7.4234 26.8333,8.3894" id="Fill-12" fill="#E3DB7C"/>
                <path d="M32.3656,18.1394 C32.3656,18.9964 31.6706,19.6924 30.8126,19.6924 C29.9556,19.6924 29.2606,18.9964 29.2606,18.1394 C29.2606,17.2824 29.9556,16.5874 30.8126,16.5874 C31.6706,16.5874 32.3656,17.2824 32.3656,18.1394" id="Fill-14" fill="#E3DB7C"/>
                <path d="M30.8128,32.2497 C30.8128,33.1067 30.1178,33.8027 29.2598,33.8027 C28.4028,33.8027 27.7078,33.1067 27.7078,32.2497 C27.7078,31.3927 28.4028,30.6967 29.2598,30.6967 C30.1178,30.6967 30.8128,31.3927 30.8128,32.2497" id="Fill-16" fill="#E3DB7C"/>
                <path d="M14.0833,23.9694 C14.0833,24.9364 13.2993,25.7194 12.3333,25.7194 C11.3673,25.7194 10.5833,24.9364 10.5833,23.9694 C10.5833,23.0024 11.3673,22.2194 12.3333,22.2194 C13.2993,22.2194 14.0833,23.0024 14.0833,23.9694" id="Fill-18" fill="#E3DB7C"/>
                <path d="M15.6361,33.8024 C15.6361,34.6594 14.9411,35.3544 14.0831,35.3544 C13.2261,35.3544 12.5311,34.6594 12.5311,33.8024 C12.5311,32.9454 13.2261,32.2494 14.0831,32.2494 C14.9411,32.2494 15.6361,32.9454 15.6361,33.8024" id="Fill-20" fill="#E3DB7C"/>
            </g>
            <g id="Page-1" transform="translate(962.558594, 103.156250)">
                <path d="M15.6799571,46.4369133 L12.2413793,46.4369133 C11.7537033,46.4369133 11.3575995,46.0408096 11.3575995,45.5531335 L11.3575995,22.5379462 L16.5637368,22.5379462 L16.5637368,45.5531335 C16.5637368,46.0408096 16.1676331,46.4369133 15.6799571,46.4369133" id="Fill-1" fill="#E3DB7C"/>
                <g id="Group-5" transform="translate(0.000000, 0.295800)">
                    <mask id="mask-8" fill="white">
                        <use xlink:href="#path-7"/>
                    </mask>
                    <g id="Clip-4"/>
                    <path d="M27.9212654,14.3747314 C27.9212654,22.0845565 21.6709192,28.3356126 13.9603842,28.3356126 C6.25055915,28.3356126 0.000212958984,22.0845565 0.000212958984,14.3747314 C0.000212958984,6.66419648 6.25055915,0.413850293 13.9603842,0.413850293 C21.6709192,0.413850293 27.9212654,6.66419648 27.9212654,14.3747314" id="Fill-3" fill="#106FAE" mask="url(#mask-8)"/>
                </g>
                <path d="M6.68464055,11.7745732 C6.68464055,12.4603012 6.12810773,13.016834 5.4423798,13.016834 C4.75594201,13.016834 4.20011906,12.4603012 4.20011906,11.7745732 C4.20011906,11.0881354 4.75594201,10.5323125 5.4423798,10.5323125 C6.12810773,10.5323125 6.68464055,11.0881354 6.68464055,11.7745732" id="Fill-6" fill="#E3DB7C"/>
                <path d="M10.7070808,5.56050105 C10.7070808,6.24693885 10.150548,6.8027618 9.46482009,6.8027618 C8.77909216,6.8027618 8.22255935,6.24693885 8.22255935,5.56050105 C8.22255935,4.87477312 8.77909216,4.31824031 9.46482009,4.31824031 C10.150548,4.31824031 10.7070808,4.87477312 10.7070808,5.56050105" id="Fill-8" fill="#E3DB7C"/>
                <path d="M17.8057136,16.8625183 C17.8057136,17.5489561 17.2491808,18.104779 16.5634529,18.104779 C15.877725,18.104779 15.3211922,17.5489561 15.3211922,16.8625183 C15.3211922,16.1760805 15.877725,15.6202576 16.5634529,15.6202576 C17.2491808,15.6202576 17.8057136,16.1760805 17.8057136,16.8625183" id="Fill-10" fill="#E3DB7C"/>
                <path d="M19.0479744,5.95532701 C19.0479744,6.6417648 18.4914416,7.19758775 17.8057136,7.19758775 C17.1199857,7.19758775 16.5634529,6.6417648 16.5634529,5.95532701 C16.5634529,5.26959908 17.1199857,4.71306627 17.8057136,4.71306627 C18.4914416,4.71306627 19.0479744,5.26959908 19.0479744,5.95532701" id="Fill-12" fill="#E3DB7C"/>
                <path d="M22.975151,12.876494 C22.975151,13.4848468 22.481796,13.9789117 21.8727333,13.9789117 C21.2643805,13.9789117 20.7710255,13.4848468 20.7710255,12.876494 C20.7710255,12.2681412 21.2643805,11.7747862 21.8727333,11.7747862 C22.481796,11.7747862 22.975151,12.2681412 22.975151,12.876494" id="Fill-14" fill="#E3DB7C"/>
                <path d="M21.8728753,22.8928779 C21.8728753,23.5012307 21.3795203,23.9952955 20.7704576,23.9952955 C20.1621048,23.9952955 19.6687498,23.5012307 19.6687498,22.8928779 C19.6687498,22.284525 20.1621048,21.7904602 20.7704576,21.7904602 C21.3795203,21.7904602 21.8728753,22.284525 21.8728753,22.8928779" id="Fill-16" fill="#E3DB7C"/>
                <path d="M9.99721755,17.0149969 C9.99721755,17.7014347 9.44068474,18.2572577 8.75495681,18.2572577 C8.06922888,18.2572577 7.51269606,17.7014347 7.51269606,17.0149969 C7.51269606,16.3285591 8.06922888,15.7727362 8.75495681,15.7727362 C9.44068474,15.7727362 9.99721755,16.3285591 9.99721755,17.0149969" id="Fill-18" fill="#E3DB7C"/>
                <path d="M11.0994933,23.9950826 C11.0994933,24.6034354 10.6061383,25.0967904 9.99707558,25.0967904 C9.38872274,25.0967904 8.89536776,24.6034354 8.89536776,23.9950826 C8.89536776,23.3867297 9.38872274,22.8926649 9.99707558,22.8926649 C10.6061383,22.8926649 11.0994933,23.3867297 11.0994933,23.9950826" id="Fill-20" fill="#E3DB7C"/>
            </g>
            <g id="Page-1" transform="translate(188.664062, 84.156250)">
                <path d="M22.0887,65.4167 L17.2447,65.4167 C16.5577,65.4167 15.9997,64.8587 15.9997,64.1717 L15.9997,31.7497 L23.3337,31.7497 L23.3337,64.1717 C23.3337,64.8587 22.7757,65.4167 22.0887,65.4167" id="Fill-1" fill="#E3DB7C"/>
                <g id="Group-5" transform="translate(0.000000, 0.416700)">
                    <mask id="mask-10" fill="white">
                        <use xlink:href="#path-9"/>
                    </mask>
                    <g id="Clip-4"/>
                    <path d="M39.3333,20.25 C39.3333,31.111 30.5283,39.917 19.6663,39.917 C8.8053,39.917 0.0003,31.111 0.0003,20.25 C0.0003,9.388 8.8053,0.583 19.6663,0.583 C30.5283,0.583 39.3333,9.388 39.3333,20.25" id="Fill-3" fill="#106FAE" mask="url(#mask-10)"/>
                </g>
                <path d="M9.4168,16.5871 C9.4168,17.5531 8.6328,18.3371 7.6668,18.3371 C6.6998,18.3371 5.9168,17.5531 5.9168,16.5871 C5.9168,15.6201 6.6998,14.8371 7.6668,14.8371 C8.6328,14.8371 9.4168,15.6201 9.4168,16.5871" id="Fill-6" fill="#E3DB7C"/>
                <path d="M15.0833,7.8332 C15.0833,8.8002 14.2993,9.5832 13.3333,9.5832 C12.3673,9.5832 11.5833,8.8002 11.5833,7.8332 C11.5833,6.8672 12.3673,6.0832 13.3333,6.0832 C14.2993,6.0832 15.0833,6.8672 15.0833,7.8332" id="Fill-8" fill="#E3DB7C"/>
                <path d="M25.0833,23.7546 C25.0833,24.7216 24.2993,25.5046 23.3333,25.5046 C22.3673,25.5046 21.5833,24.7216 21.5833,23.7546 C21.5833,22.7876 22.3673,22.0046 23.3333,22.0046 C24.2993,22.0046 25.0833,22.7876 25.0833,23.7546" id="Fill-10" fill="#E3DB7C"/>
                <path d="M26.8333,8.3894 C26.8333,9.3564 26.0493,10.1394 25.0833,10.1394 C24.1173,10.1394 23.3333,9.3564 23.3333,8.3894 C23.3333,7.4234 24.1173,6.6394 25.0833,6.6394 C26.0493,6.6394 26.8333,7.4234 26.8333,8.3894" id="Fill-12" fill="#E3DB7C"/>
                <path d="M32.3656,18.1394 C32.3656,18.9964 31.6706,19.6924 30.8126,19.6924 C29.9556,19.6924 29.2606,18.9964 29.2606,18.1394 C29.2606,17.2824 29.9556,16.5874 30.8126,16.5874 C31.6706,16.5874 32.3656,17.2824 32.3656,18.1394" id="Fill-14" fill="#E3DB7C"/>
                <path d="M30.8128,32.2497 C30.8128,33.1067 30.1178,33.8027 29.2598,33.8027 C28.4028,33.8027 27.7078,33.1067 27.7078,32.2497 C27.7078,31.3927 28.4028,30.6967 29.2598,30.6967 C30.1178,30.6967 30.8128,31.3927 30.8128,32.2497" id="Fill-16" fill="#E3DB7C"/>
                <path d="M14.0833,23.9694 C14.0833,24.9364 13.2993,25.7194 12.3333,25.7194 C11.3673,25.7194 10.5833,24.9364 10.5833,23.9694 C10.5833,23.0024 11.3673,22.2194 12.3333,22.2194 C13.2993,22.2194 14.0833,23.0024 14.0833,23.9694" id="Fill-18" fill="#E3DB7C"/>
                <path d="M15.6361,33.8024 C15.6361,34.6594 14.9411,35.3544 14.0831,35.3544 C13.2261,35.3544 12.5311,34.6594 12.5311,33.8024 C12.5311,32.9454 13.2261,32.2494 14.0831,32.2494 C14.9411,32.2494 15.6361,32.9454 15.6361,33.8024" id="Fill-20" fill="#E3DB7C"/>
            </g>
            <g id="Page-1" transform="translate(322.019531, 97.156250)">
                <path d="M16.4887,52.6034 L11.4777,52.6034 C10.8367,52.6034 10.3167,52.0834 10.3167,51.4424 L10.3167,18.9364 L17.6497,18.9364 L17.6497,51.4424 C17.6497,52.0834 17.1297,52.6034 16.4887,52.6034" id="Fill-1" fill="#106FAE"/>
                <path d="M28.9667,24.9003 C28.9667,30.9033 25.0157,35.7703 20.1417,35.7703 C15.2677,35.7703 11.3167,30.9033 11.3167,24.9003 C11.3167,18.8973 15.2677,14.0303 20.1417,14.0303 C25.0157,14.0303 28.9667,18.8973 28.9667,24.9003" id="Fill-3" fill="#ED1458"/>
                <g id="Group-7" transform="translate(0.000000, 10.603400)">
                    <mask id="mask-12" fill="white">
                        <use xlink:href="#path-11"/>
                    </mask>
                    <g id="Clip-6"/>
                    <path d="M17.6498,11.208 C17.6498,17.211 13.6988,22.078 8.8248,22.078 C3.9508,22.078 -0.0002,17.211 -0.0002,11.208 C-0.0002,5.205 3.9508,0.338 8.8248,0.338 C13.6988,0.338 17.6498,5.205 17.6498,11.208" id="Fill-5" fill="#ED1458" mask="url(#mask-12)"/>
                </g>
                <g id="Group-10" transform="translate(6.000000, 0.603400)">
                    <mask id="mask-14" fill="white">
                        <use xlink:href="#path-13"/>
                    </mask>
                    <g id="Clip-9"/>
                    <path d="M18.9833,11.9951 C18.9833,18.4001 14.7673,23.5941 9.5663,23.5941 C4.3663,23.5941 0.1503,18.4001 0.1503,11.9951 C0.1503,5.5901 4.3663,0.3961 9.5663,0.3961 C14.7673,0.3961 18.9833,5.5901 18.9833,11.9951" id="Fill-8" fill="#ED1458" mask="url(#mask-14)"/>
                </g>
                <path d="M16.369,9.6034 C16.369,10.4604 15.674,11.1564 14.817,11.1564 C13.959,11.1564 13.264,10.4604 13.264,9.6034 C13.264,8.7464 13.959,8.0504 14.817,8.0504 C15.674,8.0504 16.369,8.7464 16.369,9.6034" id="Fill-11" fill="#630F33"/>
                <path d="M7.3383,15.3339 C7.5853,14.5129 8.4513,14.0469 9.2723,14.2939 C10.0933,14.5409 10.5583,15.4059 10.3123,16.2279 C10.0653,17.0489 9.1993,17.5149 8.3783,17.2679 C7.5573,17.0209 7.0913,16.1539 7.3383,15.3339" id="Fill-13" fill="#630F33"/>
                <path d="M18.6547,20.5419 C18.9017,19.7209 19.7677,19.2549 20.5887,19.5019 C21.4097,19.7489 21.8757,20.6149 21.6287,21.4359 C21.3817,22.2569 20.5157,22.7229 19.6947,22.4759 C18.8737,22.2289 18.4077,21.3629 18.6547,20.5419" id="Fill-15" fill="#630F33"/>
                <path d="M14.0404,23.8866 C13.2974,24.3156 12.3484,24.0606 11.9194,23.3186 C11.4904,22.5746 11.7454,21.6256 12.4874,21.1976 C13.2304,20.7686 14.1804,21.0236 14.6084,21.7656 C15.0374,22.5076 14.7834,23.4576 14.0404,23.8866" id="Fill-17" fill="#630F33"/>
                <path d="M19.9789,32.4725 C19.2369,32.9015 18.2869,32.6475 17.8579,31.9045 C17.4299,31.1615 17.6839,30.2125 18.4269,29.7845 C19.1689,29.3555 20.1189,29.6095 20.5469,30.3525 C20.9759,31.0945 20.7219,32.0435 19.9789,32.4725" id="Fill-19" fill="#630F33"/>
            </g>
            <g id="Page-1" transform="translate(413.675781, 113.156250)">
                <path d="M2.4998,23.6615 L2.4998,32.8175 C2.4998,34.7515 13.0208,36.3175 25.9998,36.3175 C38.9788,36.3175 49.4998,34.7515 49.4998,32.8175 L49.4998,23.6615 L2.4998,23.6615 Z" id="Fill-1" fill="#E3DB7C"/>
                <path d="M49.4998,23.6615 C49.4998,25.5945 38.9788,27.1615 25.9998,27.1615 C13.0208,27.1615 2.4998,25.5945 2.4998,23.6615 C2.4998,21.7285 13.0208,20.1615 25.9998,20.1615 C38.9788,20.1615 49.4998,21.7285 49.4998,23.6615" id="Fill-3" fill="#F2F0C8"/>
                <g id="Group-7" transform="translate(0.000000, 13.317800)">
                    <mask id="mask-16" fill="white">
                        <use xlink:href="#path-15"/>
                    </mask>
                    <g id="Clip-6"/>
                    <path d="M-0.0002,0.5155 L-0.0002,9.6715 C-0.0002,11.6055 10.5208,13.1715 23.4998,13.1715 C36.4788,13.1715 46.9998,11.6055 46.9998,9.6715 L46.9998,0.5155 L-0.0002,0.5155 Z" id="Fill-5" fill="#E3DB7C" mask="url(#mask-16)"/>
                </g>
                <g id="Group-10" transform="translate(0.000000, 10.317800)">
                    <mask id="mask-18" fill="white">
                        <use xlink:href="#path-17"/>
                    </mask>
                    <g id="Clip-9"/>
                    <path d="M46.9998,3.5155 C46.9998,5.4485 36.4788,7.0155 23.4998,7.0155 C10.5208,7.0155 -0.0002,5.4485 -0.0002,3.5155 C-0.0002,1.5825 10.5208,0.0155 23.4998,0.0155 C36.4788,0.0155 46.9998,1.5825 46.9998,3.5155" id="Fill-8" fill="#F2F0C8" mask="url(#mask-18)"/>
                </g>
                <path d="M6.6668,3.5003 L6.6668,12.6563 C6.6668,14.5893 17.1878,16.1563 30.1668,16.1563 C43.1458,16.1563 53.6668,14.5893 53.6668,12.6563 L53.6668,3.5003 L6.6668,3.5003 Z" id="Fill-11" fill="#E3DB7C"/>
                <path d="M53.6668,3.5003 C53.6668,5.4333 43.1458,7.0003 30.1668,7.0003 C17.1878,7.0003 6.6668,5.4333 6.6668,3.5003 C6.6668,1.5663 17.1878,0.0003 30.1668,0.0003 C43.1458,0.0003 53.6668,1.5663 53.6668,3.5003" id="Fill-13" fill="#F2F0C8"/>
            </g>
            <g id="Page-1" transform="translate(507.000000, 98.156250)">
                <polygon id="Fill-1" fill="#0074BB" points="92.83 28.8825 92.83 19.2015 50.58 5.9775 8.33 19.2015 8.33 32.6665 56.625 17.5505"/>
                <polygon id="Fill-2" fill="#82B5E1" points="8.3304 32.667 8.3304 51.727 92.8294 51.727 92.8294 28.882 56.6254 17.551"/>
                <g id="Group-16" transform="translate(0.000000, 0.727200)">
                    <g id="Group-5" fill="#E3DB7C">
                        <path d="M2.1533,24.0625 C2.4033,24.8595 3.2513,25.3035 4.0483,25.0545 L50.5803,10.4895 L97.1113,25.0545 C97.9083,25.3035 98.7573,24.8595 99.0063,24.0625 L101.0903,17.4065 C101.3403,16.6095 100.8963,15.7605 100.0993,15.5115 L52.2163,0.5225 C51.1513,0.1895 50.0093,0.1895 48.9443,0.5225 L1.0603,15.5115 C0.2633,15.7605 -0.1797,16.6095 0.0693,17.4065 L2.1533,24.0625 Z" id="Fill-3"/>
                    </g>
                    <path d="M43.5317,51 L57.6287,51 L57.6287,33.172 C57.6287,29.279 54.4727,26.124 50.5797,26.124 C46.6877,26.124 43.5317,29.279 43.5317,33.172 L43.5317,51 Z" id="Fill-6" fill="#106FAE"/>
                    <path d="M50.58,29.5127 C48.669,29.5127 47.121,31.0617 47.121,32.9717 C47.121,34.8817 48.669,36.4307 50.58,36.4307 C52.49,36.4307 54.039,34.8817 54.039,32.9717 C54.039,31.0617 52.49,29.5127 50.58,29.5127" id="Fill-8" fill="#F2F0C8"/>
                    <path d="M29.0751,29.5127 C27.1651,29.5127 25.6161,31.0617 25.6161,32.9717 C25.6161,34.8817 27.1651,36.4307 29.0751,36.4307 C30.9861,36.4307 32.5341,34.8817 32.5341,32.9717 C32.5341,31.0617 30.9861,29.5127 29.0751,29.5127 Z" id="Stroke-10" stroke="#106FAE" stroke-width="2"/>
                    <path d="M72.0844,29.5127 C70.1744,29.5127 68.6254,31.0617 68.6254,32.9717 C68.6254,34.8817 70.1744,36.4307 72.0844,36.4307 C73.9944,36.4307 75.5434,34.8817 75.5434,32.9717 C75.5434,31.0617 73.9944,29.5127 72.0844,29.5127 Z" id="Stroke-12" stroke="#106FAE" stroke-width="2"/>
                    <path d="M83.8261,14.167 L78.7431,14.167 C78.1931,14.167 77.7431,13.717 77.7431,13.167 L77.7431,4.167 C77.7431,3.616 78.1931,3.167 78.7431,3.167 L83.8261,3.167 C84.3761,3.167 84.8261,3.616 84.8261,4.167 L84.8261,13.167 C84.8261,13.717 84.3761,14.167 83.8261,14.167" id="Fill-14" fill="#E3DB7C"/>
                </g>
            </g>
            <g id="Page-1" transform="translate(648.324219, 0.156250)">
                <polygon id="Fill-1" fill="#0074BB" points="75.4304 48.9348 75.4304 37.0858 41.8144 7.6468 8.1984 37.0858 8.1984 56.6058 46.1944 23.3318"/>
                <polygon id="Fill-2" fill="#E3DB7C" points="8.1981 56.6063 8.1981 149.4893 75.4311 149.4893 75.4311 48.9343 46.1941 23.3313"/>
                <g id="Group-22" transform="translate(0.000000, 0.489000)">
                    <g id="Group-5" fill="#01B5AA">
                        <path d="M41.8142,13.8042 L76.3452,44.0432 C77.1922,44.7862 78.4812,44.7002 79.2232,43.8532 L83.1242,39.3992 C83.8662,38.5512 83.7802,37.2622 82.9332,36.5202 L41.8142,0.5112 L0.6962,36.5202 C-0.1518,37.2622 -0.2368,38.5512 0.5052,39.3992 L4.4052,43.8522 C5.1472,44.7002 6.4362,44.7862 7.2842,44.0432 L41.8142,13.8042 Z" id="Fill-3"/>
                    </g>
                    <mask id="mask-20" fill="white">
                        <use xlink:href="#path-19"/>
                    </mask>
                    <g id="Clip-7"/>
                    <polygon id="Fill-6" fill="#ED1458" mask="url(#mask-20)" points="31.783 149 51.846 149 51.846 113.594 31.783 113.594"/>
                    <path d="M41.9548,119.3701 C39.6138,119.3701 37.7158,121.2671 37.7158,123.6091 C37.7158,125.9511 39.6138,127.8491 41.9548,127.8491 C44.2958,127.8491 46.1948,125.9511 46.1948,123.6091 C46.1948,121.2671 44.2958,119.3701 41.9548,119.3701" id="Fill-8" fill="#FFFFFF" mask="url(#mask-20)"/>
                    <path d="M44.1946,132.2295 L39.7156,132.2295 C38.6106,132.2295 37.7156,131.3335 37.7156,130.2295 L37.7156,123.7505 L46.1946,123.7505 L46.1946,130.2295 C46.1946,131.3335 45.2986,132.2295 44.1946,132.2295" id="Fill-9" fill="#FFFFFF" mask="url(#mask-20)"/>
                    <path d="M23.8401,53.4829 L19.1731,53.4829 C17.5241,53.4829 16.1731,54.8329 16.1731,56.4829 L16.1731,70.4829 C16.1731,72.1329 17.5241,73.4829 19.1731,73.4829 L23.8401,73.4829 C25.4901,73.4829 26.8401,72.1329 26.8401,70.4829 L26.8401,56.4829 C26.8401,54.8329 25.4901,53.4829 23.8401,53.4829 M23.8401,55.4829 C24.3821,55.4829 24.8401,55.9409 24.8401,56.4829 L24.8401,70.4829 C24.8401,71.0249 24.3821,71.4829 23.8401,71.4829 L19.1731,71.4829 C18.6321,71.4829 18.1731,71.0249 18.1731,70.4829 L18.1731,56.4829 C18.1731,55.9409 18.6321,55.4829 19.1731,55.4829 L23.8401,55.4829" id="Fill-10" fill="#ED1458" mask="url(#mask-20)"/>
                    <path d="M44.3274,53.4829 L39.6604,53.4829 C38.0104,53.4829 36.6604,54.8329 36.6604,56.4829 L36.6604,70.4829 C36.6604,72.1329 38.0104,73.4829 39.6604,73.4829 L44.3274,73.4829 C45.9774,73.4829 47.3274,72.1329 47.3274,70.4829 L47.3274,56.4829 C47.3274,54.8329 45.9774,53.4829 44.3274,53.4829 M44.3274,55.4829 C44.8694,55.4829 45.3274,55.9409 45.3274,56.4829 L45.3274,70.4829 C45.3274,71.0249 44.8694,71.4829 44.3274,71.4829 L39.6604,71.4829 C39.1184,71.4829 38.6604,71.0249 38.6604,70.4829 L38.6604,56.4829 C38.6604,55.9409 39.1184,55.4829 39.6604,55.4829 L44.3274,55.4829" id="Fill-11" fill="#ED1458" mask="url(#mask-20)"/>
                    <path d="M64.8142,53.4829 L60.1472,53.4829 C58.4982,53.4829 57.1472,54.8329 57.1472,56.4829 L57.1472,70.4829 C57.1472,72.1329 58.4982,73.4829 60.1472,73.4829 L64.8142,73.4829 C66.4642,73.4829 67.8142,72.1329 67.8142,70.4829 L67.8142,56.4829 C67.8142,54.8329 66.4642,53.4829 64.8142,53.4829 M64.8142,55.4829 C65.3562,55.4829 65.8142,55.9409 65.8142,56.4829 L65.8142,70.4829 C65.8142,71.0249 65.3562,71.4829 64.8142,71.4829 L60.1472,71.4829 C59.6062,71.4829 59.1472,71.0249 59.1472,70.4829 L59.1472,56.4829 C59.1472,55.9409 59.6062,55.4829 60.1472,55.4829 L64.8142,55.4829" id="Fill-12" fill="#ED1458" mask="url(#mask-20)"/>
                    <path d="M17.1736,67.3335 L25.7566,67.3335" id="Stroke-13" stroke="#ED1458" stroke-width="2" mask="url(#mask-20)"/>
                    <path d="M37.5227,67.3335 L46.1057,67.3335" id="Stroke-14" stroke="#ED1458" stroke-width="2" mask="url(#mask-20)"/>
                    <path d="M57.7727,67.3335 L66.3557,67.3335" id="Stroke-15" stroke="#ED1458" stroke-width="2" mask="url(#mask-20)"/>
                    <path d="M23.8401,84.8164 L19.1731,84.8164 C17.5241,84.8164 16.1731,86.1664 16.1731,87.8164 L16.1731,101.8164 C16.1731,103.4664 17.5241,104.8164 19.1731,104.8164 L23.8401,104.8164 C25.4901,104.8164 26.8401,103.4664 26.8401,101.8164 L26.8401,87.8164 C26.8401,86.1664 25.4901,84.8164 23.8401,84.8164 M23.8401,86.8164 C24.3821,86.8164 24.8401,87.2744 24.8401,87.8164 L24.8401,101.8164 C24.8401,102.3584 24.3821,102.8164 23.8401,102.8164 L19.1731,102.8164 C18.6321,102.8164 18.1731,102.3584 18.1731,101.8164 L18.1731,87.8164 C18.1731,87.2744 18.6321,86.8164 19.1731,86.8164 L23.8401,86.8164" id="Fill-16" fill="#ED1458" mask="url(#mask-20)"/>
                    <path d="M44.3274,84.8164 L39.6604,84.8164 C38.0104,84.8164 36.6604,86.1664 36.6604,87.8164 L36.6604,101.8164 C36.6604,103.4664 38.0104,104.8164 39.6604,104.8164 L44.3274,104.8164 C45.9774,104.8164 47.3274,103.4664 47.3274,101.8164 L47.3274,87.8164 C47.3274,86.1664 45.9774,84.8164 44.3274,84.8164 M44.3274,86.8164 C44.8694,86.8164 45.3274,87.2744 45.3274,87.8164 L45.3274,101.8164 C45.3274,102.3584 44.8694,102.8164 44.3274,102.8164 L39.6604,102.8164 C39.1184,102.8164 38.6604,102.3584 38.6604,101.8164 L38.6604,87.8164 C38.6604,87.2744 39.1184,86.8164 39.6604,86.8164 L44.3274,86.8164" id="Fill-17" fill="#ED1458" mask="url(#mask-20)"/>
                    <path d="M64.8142,84.8164 L60.1472,84.8164 C58.4982,84.8164 57.1472,86.1664 57.1472,87.8164 L57.1472,101.8164 C57.1472,103.4664 58.4982,104.8164 60.1472,104.8164 L64.8142,104.8164 C66.4642,104.8164 67.8142,103.4664 67.8142,101.8164 L67.8142,87.8164 C67.8142,86.1664 66.4642,84.8164 64.8142,84.8164 M64.8142,86.8164 C65.3562,86.8164 65.8142,87.2744 65.8142,87.8164 L65.8142,101.8164 C65.8142,102.3584 65.3562,102.8164 64.8142,102.8164 L60.1472,102.8164 C59.6062,102.8164 59.1472,102.3584 59.1472,101.8164 L59.1472,87.8164 C59.1472,87.2744 59.6062,86.8164 60.1472,86.8164 L64.8142,86.8164" id="Fill-18" fill="#ED1458" mask="url(#mask-20)"/>
                    <path d="M17.1736,98.667 L25.7566,98.667" id="Stroke-19" stroke="#ED1458" stroke-width="2" mask="url(#mask-20)"/>
                    <path d="M37.5227,98.667 L46.1057,98.667" id="Stroke-20" stroke="#ED1458" stroke-width="2" mask="url(#mask-20)"/>
                    <path d="M57.7727,98.667 L66.3557,98.667" id="Stroke-21" stroke="#ED1458" stroke-width="2" mask="url(#mask-20)"/>
                </g>
            </g>
            <g id="Page-1" transform="translate(757.089844, 15.156250)">
                <polygon id="Fill-1" fill="#106FAE" points="51.9189 6.867 9.6689 43.867 9.6689 63.996 56.4439 23.034 94.1689 56.071 94.1689 43.867"/>
                <polygon id="Fill-2" fill="#08ACA6" points="9.6687 63.9956 9.6687 134.8666 94.1687 134.8666 94.1687 56.0716 56.4437 23.0336"/>
                <g id="Group-17" transform="translate(0.000000, 0.867000)">
                    <path d="M4.393,51.5396 C5.14,52.3926 6.435,52.4776 7.288,51.7316 L51.919,12.6466 L96.55,51.7316 C97.402,52.4776 98.698,52.3926 99.445,51.5396 L103.33,47.1026 C104.076,46.2506 103.99,44.9546 103.138,44.2076 L53.478,0.7196 C52.586,-0.0624 51.252,-0.0624 50.359,0.7196 L0.7,44.2076 C-0.152,44.9546 -0.238,46.2506 0.508,47.1026 L4.393,51.5396 Z" id="Fill-3" fill="#D30B50"/>
                    <mask id="mask-22" fill="white">
                        <use xlink:href="#path-21"/>
                    </mask>
                    <g id="Clip-6"/>
                    <polygon id="Fill-5" fill="#106FAE" mask="url(#mask-22)" points="39.311 134 64.528 134 64.528 89.5 39.311 89.5"/>
                    <path d="M51.9189,95.5625 C48.5019,95.5625 45.7319,98.3335 45.7319,101.7495 C45.7319,105.1665 48.5019,107.9375 51.9189,107.9375 C55.3359,107.9375 58.1059,105.1665 58.1059,101.7495 C58.1059,98.3335 55.3359,95.5625 51.9189,95.5625" id="Fill-7" fill="#FFFFFF" mask="url(#mask-22)"/>
                    <path d="M33.2524,67.7134 C29.8354,67.7134 27.0654,70.4834 27.0654,73.9014 C27.0654,77.3184 29.8354,80.0884 33.2524,80.0884 C36.6694,80.0884 39.4394,77.3184 39.4394,73.9014 C39.4394,70.4834 36.6694,67.7134 33.2524,67.7134 Z" id="Stroke-8" stroke="#106FAE" stroke-width="3" mask="url(#mask-22)"/>
                    <path d="M70.5854,67.7134 C67.1684,67.7134 64.3984,70.4834 64.3984,73.9014 C64.3984,77.3184 67.1684,80.0884 70.5854,80.0884 C74.0024,80.0884 76.7724,77.3184 76.7724,73.9014 C76.7724,70.4834 74.0024,67.7134 70.5854,67.7134 Z" id="Stroke-9" stroke="#106FAE" stroke-width="3" mask="url(#mask-22)"/>
                    <path d="M51.9189,44.8647 C48.5019,44.8647 45.7319,47.6347 45.7319,51.0517 C45.7319,54.4687 48.5019,57.2397 51.9189,57.2397 C55.3359,57.2397 58.1059,54.4687 58.1059,51.0517 C58.1059,47.6347 55.3359,44.8647 51.9189,44.8647 Z" id="Stroke-10" stroke="#106FAE" stroke-width="3" mask="url(#mask-22)"/>
                    <path d="M51.9189,44.8647 L51.9189,57.2397" id="Stroke-11" stroke="#106FAE" stroke-width="3" mask="url(#mask-22)"/>
                    <path d="M58.1064,51.0522 L45.7314,51.0522" id="Stroke-12" stroke="#106FAE" stroke-width="3" mask="url(#mask-22)"/>
                    <path d="M33.2524,67.7134 L33.2524,80.0884" id="Stroke-13" stroke="#106FAE" stroke-width="3" mask="url(#mask-22)"/>
                    <path d="M39.4399,73.9014 L27.0649,73.9014" id="Stroke-14" stroke="#106FAE" stroke-width="3" mask="url(#mask-22)"/>
                    <path d="M70.5854,67.7134 L70.5854,80.0884" id="Stroke-15" stroke="#106FAE" stroke-width="3" mask="url(#mask-22)"/>
                    <path d="M76.7729,73.9014 L64.3979,73.9014" id="Stroke-16" stroke="#106FAE" stroke-width="3" mask="url(#mask-22)"/>
                </g>
            </g>
        </g>
    </g>
</symbol><symbol id="house-safe" viewBox="0 0 171 115">
    <!-- Generator: Sketch 43.2 (39069) - http://www.bohemiancoding.com/sketch -->
    <title>Page 1</title>
    <desc>Created with Sketch.</desc>
    
    <g id="Page-1" stroke="none" stroke-width="1" fill="none" fill-rule="evenodd">
        <g>
            <path d="M157.6234,113.2464 L152.6124,113.2464 C151.9714,113.2464 151.4514,112.7264 151.4514,112.0844 L151.4514,79.5794 L158.7844,79.5794 L158.7844,112.0844 C158.7844,112.7264 158.2654,113.2464 157.6234,113.2464" id="Fill-1" fill="#106FAE"/>
            <path d="M170.1009,85.5428 C170.1009,91.5458 166.1509,96.4128 161.2769,96.4128 C156.4029,96.4128 152.4519,91.5458 152.4519,85.5428 C152.4519,79.5398 156.4029,74.6728 161.2769,74.6728 C166.1509,74.6728 170.1009,79.5398 170.1009,85.5428" id="Fill-3" fill="#ED1458"/>
            <path d="M158.7845,82.454 C158.7845,88.457 154.8335,93.324 149.9595,93.324 C145.0865,93.324 141.1355,88.457 141.1355,82.454 C141.1355,76.451 145.0865,71.584 149.9595,71.584 C154.8335,71.584 158.7845,76.451 158.7845,82.454" id="Fill-5" fill="#ED1458"/>
            <path d="M166.1185,73.2416 C166.1185,79.6476 161.9015,84.8396 156.7015,84.8396 C151.5005,84.8396 147.2845,79.6476 147.2845,73.2416 C147.2845,66.8356 151.5005,61.6426 156.7015,61.6426 C161.9015,61.6426 166.1185,66.8356 166.1185,73.2416" id="Fill-7" fill="#ED1458"/>
            <path d="M157.5042,70.2464 C157.5042,71.1034 156.8092,71.7984 155.9512,71.7984 C155.0942,71.7984 154.3992,71.1034 154.3992,70.2464 C154.3992,69.3884 155.0942,68.6934 155.9512,68.6934 C156.8092,68.6934 157.5042,69.3884 157.5042,70.2464" id="Fill-9" fill="#630F33"/>
            <path d="M148.473,75.9764 C148.72,75.1554 149.585,74.6894 150.407,74.9364 C151.228,75.1834 151.694,76.0494 151.447,76.8704 C151.2,77.6914 150.334,78.1574 149.513,77.9104 C148.692,77.6634 148.226,76.7974 148.473,75.9764" id="Fill-11" fill="#630F33"/>
            <path d="M159.7894,81.1844 C160.0364,80.3634 160.9024,79.8974 161.7234,80.1444 C162.5444,80.3914 163.0104,81.2574 162.7634,82.0784 C162.5164,82.8994 161.6504,83.3654 160.8294,83.1184 C160.0084,82.8714 159.5424,82.0054 159.7894,81.1844" id="Fill-13" fill="#630F33"/>
            <path d="M155.1751,84.5292 C154.4331,84.9582 153.4831,84.7032 153.0541,83.9612 C152.6251,83.2182 152.8801,82.2692 153.6221,81.8402 C154.3651,81.4112 155.3151,81.6662 155.7431,82.4082 C156.1721,83.1512 155.9171,84.1002 155.1751,84.5292" id="Fill-15" fill="#630F33"/>
            <path d="M148.0609,87.7372 C147.3189,88.1662 146.3689,87.9112 145.9399,87.1692 C145.5109,86.4262 145.7659,85.4772 146.5079,85.0482 C147.2509,84.6192 148.2009,84.8742 148.6289,85.6162 C149.0579,86.3592 148.8039,87.3082 148.0609,87.7372" id="Fill-17" fill="#630F33"/>
            <path d="M161.1136,93.1156 C160.3716,93.5446 159.4226,93.2896 158.9936,92.5476 C158.5636,91.8046 158.8186,90.8556 159.5606,90.4266 C160.3036,89.9976 161.2536,90.2526 161.6816,90.9946 C162.1106,91.7376 161.8566,92.6866 161.1136,93.1156" id="Fill-19" fill="#630F33"/>
            <polygon id="Fill-21" fill="#E50647" points="117.3324 35.242 117.3324 23.006 63.9314 6.291 10.5284 23.006 10.5284 40.026 71.5714 20.919"/>
            <g id="Group-25" transform="translate(10.000000, 20.675000)">
                <mask id="mask-2" fill="white">
                    <use xlink:href="#path-1"/>
                </mask>
                <g id="Clip-24"/>
                <polygon id="Fill-23" fill="#106FAE" mask="url(#mask-2)" points="107.3324 94.0002 107.3324 14.5672 61.5714 0.2442 0.5284 19.3512 0.5284 94.0002"/>
            </g>
            <path d="M2.722,30.0697 C3.037,31.0767 4.109,31.6377 5.117,31.3227 L63.931,12.9137 L122.744,31.3227 C123.752,31.6377 124.824,31.0767 125.139,30.0697 L127.774,21.6557 C128.088,20.6487 127.528,19.5757 126.521,19.2607 L65.999,0.3167 C64.653,-0.1053 63.209,-0.1053 61.863,0.3167 L1.34,19.2607 C0.333,19.5757 -0.227,20.6487 0.088,21.6557 L2.722,30.0697 Z" id="Fill-26" fill="#106FAE"/>
            <path d="M82.5804,67.7967 C82.5804,78.0967 74.2304,86.4467 63.9314,86.4467 C53.6304,86.4467 45.2804,78.0967 45.2804,67.7967 C45.2804,57.4967 53.6304,49.1467 63.9314,49.1467 C74.2304,49.1467 82.5804,57.4967 82.5804,67.7967 Z" id="Stroke-28" stroke="#8FBBDE" stroke-width="3"/>
            <path d="M102.4203,84.7665 C102.4203,86.2455 101.2213,87.4445 99.7423,87.4445 C98.2643,87.4445 97.0653,86.2455 97.0653,84.7665 C97.0653,83.2875 98.2643,82.0885 99.7423,82.0885 C101.2213,82.0885 102.4203,83.2875 102.4203,84.7665" id="Fill-30" fill="#E3DB7C"/>
            <path d="M107.0169,67.7967 C107.0169,71.8147 103.7599,75.0707 99.7429,75.0707 C95.7249,75.0707 92.4679,71.8147 92.4679,67.7967 C92.4679,63.7797 95.7249,60.5227 99.7429,60.5227 C103.7599,60.5227 107.0169,63.7797 107.0169,67.7967" id="Fill-32" fill="#0074BB"/>
            <path d="M104.4886,67.7967 C104.4886,70.4187 102.3636,72.5437 99.7426,72.5437 C97.1216,72.5437 94.9966,70.4187 94.9966,67.7967 C94.9966,65.1757 97.1216,63.0507 99.7426,63.0507 C102.3636,63.0507 104.4886,65.1757 104.4886,67.7967" id="Fill-34" fill="#E3DB7C"/>
            <polygon id="Fill-36" fill="#E3DB7C" points="94.9964 67.7967 97.0644 84.7667 102.4204 84.7667 104.4884 67.7967"/>
            <path d="M71.2044,67.7967 C71.2044,71.8147 67.9474,75.0707 63.9314,75.0707 C59.9134,75.0707 56.6564,71.8147 56.6564,67.7967 C56.6564,63.7797 59.9134,60.5227 63.9314,60.5227 C67.9474,60.5227 71.2044,63.7797 71.2044,67.7967" id="Fill-38" fill="#8FBBDE"/>
            <path d="M63.931,56.4803 L63.931,53.3203" id="Stroke-40" stroke="#8FBBDE" stroke-width="3"/>
            <path d="M67.8011,57.1629 L68.8821,54.1939" id="Stroke-42" stroke="#8FBBDE" stroke-width="3"/>
            <path d="M71.2044,59.1283 L73.2354,56.7073" id="Stroke-44" stroke="#8FBBDE" stroke-width="3"/>
            <path d="M73.7308,62.1385 L76.4668,60.5585" id="Stroke-46" stroke="#8FBBDE" stroke-width="3"/>
            <path d="M75.0746,65.8319 L78.1866,65.2829" id="Stroke-48" stroke="#8FBBDE" stroke-width="3"/>
            <path d="M75.0746,69.7621 L78.1866,70.3101" id="Stroke-50" stroke="#8FBBDE" stroke-width="3"/>
            <path d="M73.7308,73.4549 L76.4668,75.0349" id="Stroke-52" stroke="#8FBBDE" stroke-width="3"/>
            <path d="M71.2044,76.4657 L73.2354,78.8857" id="Stroke-54" stroke="#8FBBDE" stroke-width="3"/>
            <path d="M67.8011,78.4305 L68.8821,81.3995" id="Stroke-56" stroke="#8FBBDE" stroke-width="3"/>
            <path d="M63.931,79.1131 L63.931,82.2731" id="Stroke-58" stroke="#8FBBDE" stroke-width="3"/>
            <path d="M60.0599,78.4305 L58.9799,81.3995" id="Stroke-60" stroke="#8FBBDE" stroke-width="3"/>
            <path d="M56.6566,76.4657 L54.6256,78.8857" id="Stroke-62" stroke="#8FBBDE" stroke-width="3"/>
            <path d="M54.1302,73.4549 L51.3942,75.0349" id="Stroke-64" stroke="#8FBBDE" stroke-width="3"/>
            <path d="M52.7865,69.7621 L49.6745,70.3101" id="Stroke-66" stroke="#8FBBDE" stroke-width="3"/>
            <path d="M52.7865,65.8319 L49.6745,65.2829" id="Stroke-68" stroke="#8FBBDE" stroke-width="3"/>
            <path d="M54.1302,62.1385 L51.3942,60.5585" id="Stroke-70" stroke="#8FBBDE" stroke-width="3"/>
            <path d="M56.6566,59.1283 L54.6256,56.7073" id="Stroke-72" stroke="#8FBBDE" stroke-width="3"/>
            <path d="M60.0599,57.1629 L58.9799,54.1939" id="Stroke-74" stroke="#8FBBDE" stroke-width="3"/>
        </g>
    </g>
</symbol><symbol id="houses" viewBox="0 0 194 134">
    <!-- Generator: Sketch 43.2 (39069) - http://www.bohemiancoding.com/sketch -->
    <title>Page 1</title>
    <desc>Created with Sketch.</desc>
    
    <g id="Page-1" stroke="none" stroke-width="1" fill="none" fill-rule="evenodd">
        <g transform="translate(0.000000, -1.000000)">
            <g id="Group-3" transform="translate(0.000000, 0.867000)">
                <mask id="mask-2" fill="white">
                    <use xlink:href="#path-1"/>
                </mask>
                <g id="Clip-2"/>
                <path d="M96.2501,11.9751 L54.0001,49.6461 C54.0001,49.6461 55.2501,65.7251 63.0001,84.7251 C70.7501,103.7251 70.7501,134.0001 70.7501,134.0001 L96.2501,134.0001 L121.7501,134.0001 C121.7501,134.0001 121.7501,103.7251 129.5001,84.7251 C137.2501,65.7251 138.5001,49.6461 138.5001,49.6461 L96.2501,11.9751 Z" id="Fill-1" fill="#08ACA6"/>
            </g>
            <polygon id="Fill-4" fill="#106FAE" points="177.0845 95.2127 163.9955 106.6747 163.9955 112.9117 178.4865 100.2207 190.1735 110.4557 190.1735 106.6747"/>
            <g id="Group-8" transform="translate(163.000000, 99.867000)">
                <mask id="mask-4" fill="white">
                    <use xlink:href="#path-3"/>
                </mask>
                <g id="Clip-7"/>
                <polygon id="Fill-6" fill="#08ACA6" mask="url(#mask-4)" points="0.9957 13.0444 0.9957 35.0004 27.1737 35.0004 27.1737 10.5884 15.4867 0.3544"/>
            </g>
            <path d="M162.3609,109.3206 C162.5919,109.5846 162.9939,109.6116 163.2579,109.3806 L177.0849,97.2716 L190.9109,109.3806 C191.1749,109.6116 191.5769,109.5846 191.8079,109.3206 L193.0119,107.9456 C193.2429,107.6826 193.2159,107.2806 192.9519,107.0496 L177.5679,93.5766 C177.2909,93.3346 176.8779,93.3346 176.6009,93.5766 L161.2169,107.0496 C160.9529,107.2806 160.9259,107.6826 161.1569,107.9456 L162.3609,109.3206 Z" id="Fill-9" fill="#D30B50"/>
            <mask id="mask-6" fill="white">
                <use xlink:href="#path-5"/>
            </mask>
            <g id="Clip-12"/>
            <polygon id="Fill-11" fill="#106FAE" mask="url(#mask-6)" points="173.178 134.867 180.99 134.867 180.99 121.081 173.178 121.081"/>
            <path d="M177.0845,122.9593 C176.0255,122.9593 175.1675,123.8173 175.1675,124.8763 C175.1675,125.9343 176.0255,126.7923 177.0845,126.7923 C178.1435,126.7923 179.0015,125.9343 179.0015,124.8763 C179.0015,123.8173 178.1435,122.9593 177.0845,122.9593" id="Fill-13" fill="#F2F0C8" mask="url(#mask-6)"/>
            <polygon id="Fill-14" fill="#106FAE" mask="url(#mask-6)" points="144.0845 95.2127 130.9955 106.6747 130.9955 112.9117 145.4865 100.2207 157.1735 110.4557 157.1735 106.6747"/>
            <polygon id="Fill-15" fill="#08ACA6" mask="url(#mask-6)" points="130.9957 112.9114 130.9957 134.8674 157.1737 134.8674 157.1737 110.4554 145.4867 100.2214"/>
            <path d="M129.3609,109.3206 C129.5919,109.5846 129.9939,109.6116 130.2579,109.3806 L144.0849,97.2716 L157.9109,109.3806 C158.1749,109.6116 158.5769,109.5846 158.8079,109.3206 L160.0119,107.9456 C160.2429,107.6826 160.2159,107.2806 159.9519,107.0496 L144.5679,93.5766 C144.2909,93.3346 143.8779,93.3346 143.6009,93.5766 L128.2169,107.0496 C127.9529,107.2806 127.9259,107.6826 128.1569,107.9456 L129.3609,109.3206 Z" id="Fill-16" fill="#D30B50" mask="url(#mask-6)"/>
            <polygon id="Fill-17" fill="#106FAE" mask="url(#mask-6)" points="140.178 134.867 147.99 134.867 147.99 121.081 140.178 121.081"/>
            <path d="M144.0845,122.9593 C143.0255,122.9593 142.1675,123.8173 142.1675,124.8763 C142.1675,125.9343 143.0255,126.7923 144.0845,126.7923 C145.1435,126.7923 146.0015,125.9343 146.0015,124.8763 C146.0015,123.8173 145.1435,122.9593 144.0845,122.9593" id="Fill-18" fill="#F2F0C8" mask="url(#mask-6)"/>
            <polygon id="Fill-19" fill="#106FAE" mask="url(#mask-6)" points="49.0845 95.2127 35.9955 106.6747 35.9955 112.9117 50.4865 100.2207 62.1735 110.4557 62.1735 106.6747"/>
            <polygon id="Fill-20" fill="#08ACA6" mask="url(#mask-6)" points="35.9957 112.9114 35.9957 134.8674 62.1737 134.8674 62.1737 110.4554 50.4867 100.2214"/>
            <path d="M34.3609,109.3206 C34.5919,109.5846 34.9939,109.6116 35.2579,109.3806 L49.0849,97.2716 L62.9109,109.3806 C63.1749,109.6116 63.5769,109.5846 63.8079,109.3206 L65.0119,107.9456 C65.2429,107.6826 65.2159,107.2806 64.9519,107.0496 L49.5679,93.5766 C49.2909,93.3346 48.8779,93.3346 48.6009,93.5766 L33.2169,107.0496 C32.9529,107.2806 32.9259,107.6826 33.1569,107.9456 L34.3609,109.3206 Z" id="Fill-21" fill="#D30B50" mask="url(#mask-6)"/>
            <polygon id="Fill-22" fill="#106FAE" mask="url(#mask-6)" points="45.178 134.867 52.99 134.867 52.99 121.081 45.178 121.081"/>
            <path d="M49.0845,122.9593 C48.0255,122.9593 47.1675,123.8173 47.1675,124.8763 C47.1675,125.9343 48.0255,126.7923 49.0845,126.7923 C50.1435,126.7923 51.0015,125.9343 51.0015,124.8763 C51.0015,123.8173 50.1435,122.9593 49.0845,122.9593" id="Fill-23" fill="#F2F0C8" mask="url(#mask-6)"/>
            <polygon id="Fill-24" fill="#106FAE" mask="url(#mask-6)" points="16.0845 95.2127 2.9955 106.6747 2.9955 112.9117 17.4865 100.2207 29.1735 110.4557 29.1735 106.6747"/>
            <polygon id="Fill-25" fill="#08ACA6" mask="url(#mask-6)" points="2.9957 112.9114 2.9957 134.8674 29.1737 134.8674 29.1737 110.4554 17.4867 100.2214"/>
            <path d="M1.3609,109.3206 C1.5919,109.5846 1.9939,109.6116 2.2579,109.3806 L16.0849,97.2716 L29.9109,109.3806 C30.1749,109.6116 30.5769,109.5846 30.8079,109.3206 L32.0119,107.9456 C32.2429,107.6826 32.2159,107.2806 31.9519,107.0496 L16.5679,93.5766 C16.2909,93.3346 15.8779,93.3346 15.6009,93.5766 L0.2169,107.0496 C-0.0471,107.2806 -0.0741,107.6826 0.1569,107.9456 L1.3609,109.3206 Z" id="Fill-26" fill="#D30B50" mask="url(#mask-6)"/>
            <polygon id="Fill-27" fill="#106FAE" mask="url(#mask-6)" points="12.178 134.867 19.99 134.867 19.99 121.081 12.178 121.081"/>
            <path d="M16.0845,122.9593 C15.0255,122.9593 14.1675,123.8173 14.1675,124.8763 C14.1675,125.9343 15.0255,126.7923 16.0845,126.7923 C17.1435,126.7923 18.0015,125.9343 18.0015,124.8763 C18.0015,123.8173 17.1435,122.9593 16.0845,122.9593" id="Fill-28" fill="#F2F0C8" mask="url(#mask-6)"/>
            <path d="M54.0001,50.5135 C54.0001,50.5135 54.3601,55.1345 55.8861,62.3445 L100.7751,23.0335 L137.8681,55.5175 C138.3561,52.3545 138.5001,50.5135 138.5001,50.5135 L96.2501,12.8425 L54.0001,50.5135 Z" id="Fill-29" fill="#106FAE" mask="url(#mask-6)"/>
            <path d="M48.7242,52.4065 C49.4712,53.2595 50.7662,53.3445 51.6192,52.5985 L96.2502,13.5135 L140.8812,52.5985 C141.7332,53.3445 143.0292,53.2595 143.7762,52.4065 L147.6612,47.9695 C148.4072,47.1175 148.3212,45.8215 147.4692,45.0745 L97.8092,1.5865 C96.9162,0.8045 95.5832,0.8045 94.6902,1.5865 L45.0312,45.0745 C44.1792,45.8215 44.0932,47.1175 44.8392,47.9695 L48.7242,52.4065 Z" id="Fill-30" fill="#D30B50" mask="url(#mask-6)"/>
            <polygon id="Fill-31" fill="#106FAE" mask="url(#mask-6)" points="83.642 134.867 108.859 134.867 108.859 90.367 83.642 90.367"/>
            <path d="M96.2501,96.4295 C92.8331,96.4295 90.0631,99.1995 90.0631,102.6165 C90.0631,106.0335 92.8331,108.8045 96.2501,108.8045 C99.6671,108.8045 102.4371,106.0335 102.4371,102.6165 C102.4371,99.1995 99.6671,96.4295 96.2501,96.4295" id="Fill-32" fill="#F2F0C8" mask="url(#mask-6)"/>
        </g>
    </g>
</symbol><symbol id="pin" viewBox="0 0 144 161">
    <!-- Generator: Sketch 43.2 (39069) - http://www.bohemiancoding.com/sketch -->
    <title>Page 1</title>
    <desc>Created with Sketch.</desc>
    
    <g id="Page-1" stroke="none" stroke-width="1" fill="none" fill-rule="evenodd">
        <g transform="translate(0.000000, -1.000000)">
            <g id="Group-3" transform="translate(0.000000, 0.051000)">
                <mask id="mask-2" fill="white">
                    <use xlink:href="#path-1"/>
                </mask>
                <g id="Clip-2"/>
                <path d="M143.4541,72.6766 C143.4541,112.2896 111.3411,144.4036 71.7271,144.4036 C32.1131,144.4036 0.0001,112.2896 0.0001,72.6766 C0.0001,33.0626 32.1131,0.9486 71.7271,0.9486 C111.3411,0.9486 143.4541,33.0626 143.4541,72.6766" id="Fill-1" fill="#ED1458" mask="url(#mask-2)"/>
            </g>
            <polygon id="Fill-4" fill="#ED1458" points="71.7271 15.5977 29.4771 52.5977 29.4771 72.7277 76.2521 31.7647 113.9771 64.8017 113.9771 52.5977"/>
            <polygon id="Fill-6" fill="#FFFFFF" points="29.4771 72.7276 29.4771 105.5976 113.9771 105.5976 113.9771 64.8016 76.2521 31.7646"/>
            <path d="M24.2012,61.1378 C24.9482,61.9908 26.2432,62.0758 27.0962,61.3288 L71.7272,22.2438 L116.3582,61.3288 C117.2102,62.0758 118.5062,61.9908 119.2532,61.1378 L123.1382,56.7008 C123.8842,55.8488 123.7982,54.5528 122.9462,53.8058 L73.2862,10.3178 C72.3942,9.5348 71.0602,9.5348 70.1672,10.3178 L20.5082,53.8058 C19.6562,54.5528 19.5702,55.8488 20.3162,56.7008 L24.2012,61.1378 Z" id="Fill-8" fill="#FFFFFF"/>
            <polygon id="Fill-10" fill="#ED1458" points="71.7271 162.0509 83.4661 141.7179 59.9881 141.7179"/>
        </g>
    </g>
</symbol><symbol id="smile-red" viewBox="0 0 71 71">
    <!-- Generator: Sketch 43.2 (39069) - http://www.bohemiancoding.com/sketch -->
    <title>Page 1</title>
    <desc>Created with Sketch.</desc>
    
    <g id="Page-1" stroke="none" stroke-width="1" fill="none" fill-rule="evenodd">
        <g>
            <mask id="mask-2" fill="white">
                <use xlink:href="#path-1"/>
            </mask>
            <g id="Clip-2"/>
            <path d="M58.9016,41.2328 C55.8386,51.6058 46.1466,58.8498 35.3336,58.8498 C24.5186,58.8498 14.8276,51.6058 11.7656,41.2328 C11.1396,39.1138 12.3506,36.8888 14.4686,36.2638 C16.5886,35.6368 18.8126,36.8498 19.4376,38.9668 C21.5036,45.9628 28.0406,50.8498 35.3336,50.8498 C42.6266,50.8498 49.1636,45.9628 51.2296,38.9668 C51.8546,36.8488 54.0826,35.6348 56.1986,36.2638 C58.3176,36.8888 59.5276,39.1148 58.9016,41.2328 M25.4166,21.8168 C27.5976,21.8168 29.3656,23.5858 29.3656,25.7658 C29.3656,27.9478 27.5976,29.7148 25.4166,29.7148 C23.2356,29.7148 21.4666,27.9478 21.4666,25.7658 C21.4666,23.5858 23.2356,21.8168 25.4166,21.8168 M45.2506,21.8168 C47.4306,21.8168 49.1996,23.5858 49.1996,25.7658 C49.1996,27.9478 47.4306,29.7148 45.2506,29.7148 C43.0686,29.7148 41.3006,27.9478 41.3006,25.7658 C41.3006,23.5858 43.0686,21.8168 45.2506,21.8168 M35.3336,0.0008 C15.8196,0.0008 0.0006,15.8188 0.0006,35.3338 C0.0006,54.8468 15.8196,70.6668 35.3336,70.6668 C54.8476,70.6668 70.6666,54.8468 70.6666,35.3338 C70.6666,15.8188 54.8476,0.0008 35.3336,0.0008" id="Fill-1" fill="#E0004D" mask="url(#mask-2)"/>
        </g>
    </g>
</symbol><symbol id="stack-red" viewBox="0 0 71 71">
    <!-- Generator: Sketch 43.2 (39069) - http://www.bohemiancoding.com/sketch -->
    <title>Page 1</title>
    <desc>Created with Sketch.</desc>
    
    <g id="Page-1" stroke="none" stroke-width="1" fill="none" fill-rule="evenodd">
        <g transform="translate(0.000000, -1.000000)">
            <g id="Group-3" transform="translate(0.000000, 0.666700)">
                <mask id="mask-2" fill="white">
                    <use xlink:href="#path-1"/>
                </mask>
                <g id="Clip-2"/>
                <path d="M70.6667,35.667 C70.6667,55.181 54.8477,71 35.3337,71 C15.8187,71 -0.0003,55.181 -0.0003,35.667 C-0.0003,16.152 15.8187,0.333 35.3337,0.333 C54.8477,0.333 70.6667,16.152 70.6667,35.667" id="Fill-1" fill="#E0004D" mask="url(#mask-2)"/>
            </g>
            <path d="M14.778,42.4509 L14.778,50.1849 C14.778,51.8179 23.666,53.1409 34.63,53.1409 C45.592,53.1409 54.48,51.8179 54.48,50.1849 L54.48,42.4509 L14.778,42.4509 Z" id="Fill-4" fill="#FBD3D0"/>
            <path d="M54.4801,42.4509 C54.4801,44.0839 45.5921,45.4069 34.6291,45.4069 C23.6661,45.4069 14.7781,44.0839 14.7781,42.4509 C14.7781,40.8179 23.6661,39.4939 34.6291,39.4939 C45.5921,39.4939 54.4801,40.8179 54.4801,42.4509" id="Fill-6" fill="#FFFFFF"/>
            <path d="M12.6667,34.1481 L12.6667,41.8831 C12.6667,43.5161 21.5547,44.8391 32.5177,44.8391 C43.4807,44.8391 52.3687,43.5161 52.3687,41.8831 L52.3687,34.1481 L12.6667,34.1481 Z" id="Fill-8" fill="#FBD3D0"/>
            <path d="M52.3688,34.1481 C52.3688,35.7811 43.4808,37.1051 32.5168,37.1051 C21.5548,37.1051 12.6668,35.7811 12.6668,34.1481 C12.6668,32.5151 21.5548,31.1921 32.5168,31.1921 C43.4808,31.1921 52.3688,32.5151 52.3688,34.1481" id="Fill-10" fill="#FFFFFF"/>
            <path d="M18.2985,25.4196 L18.2985,33.1536 C18.2985,34.7866 27.1855,36.1106 38.1495,36.1106 C49.1115,36.1106 57.9995,34.7866 57.9995,33.1536 L57.9995,25.4196 L18.2985,25.4196 Z" id="Fill-12" fill="#FBD3D0"/>
            <path d="M57.9997,25.4196 C57.9997,27.0526 49.1117,28.3766 38.1487,28.3766 C27.1857,28.3766 18.2987,27.0526 18.2987,25.4196 C18.2987,23.7866 27.1857,22.4636 38.1487,22.4636 C49.1117,22.4636 57.9997,23.7866 57.9997,25.4196" id="Fill-14" fill="#FFFFFF"/>
        </g>
    </g>
</symbol><symbol id="tick-red" viewBox="0 0 71 71">
    <!-- Generator: Sketch 43.2 (39069) - http://www.bohemiancoding.com/sketch -->
    <title>Page 1</title>
    <desc>Created with Sketch.</desc>
    
    <g id="Page-1" stroke="none" stroke-width="1" fill="none" fill-rule="evenodd">
        <g>
            <mask id="mask-2" fill="white">
                <use xlink:href="#path-1"/>
            </mask>
            <g id="Clip-2"/>
            <path d="M53.939,27.6087 L30.661,50.8867 C29.88,51.6687 28.856,52.0587 27.833,52.0587 C26.809,52.0587 25.785,51.6687 25.004,50.8867 L16.728,42.6107 C15.166,41.0487 15.166,38.5157 16.728,36.9547 C18.289,35.3917 20.824,35.3917 22.384,36.9547 L27.833,42.4017 L48.283,21.9527 C49.843,20.3897 52.378,20.3897 53.939,21.9527 C55.501,23.5137 55.501,26.0467 53.939,27.6087 M35.334,0.0007 C15.819,0.0007 0,15.8187 0,35.3337 C0,54.8467 15.819,70.6667 35.334,70.6667 C54.847,70.6667 70.667,54.8467 70.667,35.3337 C70.667,15.8187 54.847,0.0007 35.334,0.0007" id="Fill-1" fill="#E0004D" mask="url(#mask-2)"/>
        </g>
    </g>
</symbol></svg>