<?xml version="1.0" encoding="UTF-8"?>
<svg width="35px" height="22px" viewBox="0 0 35 22" version="1.1" xmlns="http://www.w3.org/2000/svg" xmlns:xlink="http://www.w3.org/1999/xlink">
    <!-- Generator: Sketch 43.2 (39069) - http://www.bohemiancoding.com/sketch -->
    <title>Page 1</title>
    <desc>Created with Sketch.</desc>
    <defs>
        <polygon id="path-1" points="0.000244433672 0.000600283542 20.6997775 0.000600283542 20.6997775 34.2267669 0.000244433672 34.2267669"></polygon>
    </defs>
    <g id="Page-1" stroke="none" stroke-width="1" fill="none" fill-rule="evenodd">
        <g transform="translate(17.017013, 11.000000) rotate(-270.000000) translate(-17.017013, -11.000000) translate(6.517013, -6.500000)">
            <mask id="mask-2" fill="white">
                <use xlink:href="#path-1"></use>
            </mask>
            <g id="Clip-2"></g>
            <path d="M0.225106328,2.57661706 L2.5862216,0.215501792 C2.88236148,-0.0726343086 3.35058264,-0.0726343086 3.64672252,0.215501792 L20.4766721,16.5432141 C20.772812,16.8373531 20.7748129,17.3195809 20.480674,17.6197226 C20.4786731,17.6197226 20.4766721,17.6217236 20.4766721,17.6237245 L3.64672252,34.0114652 C3.35058264,34.2996013 2.88236148,34.2996013 2.5862216,34.0114652 L0.225106328,31.6103311 C-0.0730344977,31.3141912 -0.0750354428,30.8339643 0.221104438,30.5358235 C0.223105383,30.5338226 0.223105383,30.5318216 0.225106328,30.5298207 L13.5313915,17.6237245 C13.8295323,17.3275846 13.8315333,16.8473578 13.5373944,16.547216 C13.5353934,16.547216 13.5333925,16.5452151 13.5313915,16.5432141 L0.24511578,3.65712744 C-0.0590278817,3.36699039 -0.0690326074,2.88676356 0.221104438,2.58261989 C0.223105383,2.58061895 0.223105383,2.578618 0.225106328,2.57661706" id="Fill-1" fill="#868686" mask="url(#mask-2)"></path>
        </g>
    </g>
</svg>