<?xml version="1.0" encoding="UTF-8"?>
<svg width="467px" height="352px" viewBox="0 0 467 352" version="1.1" xmlns="http://www.w3.org/2000/svg" xmlns:xlink="http://www.w3.org/1999/xlink">
    <!-- Generator: Sketch 43.2 (39069) - http://www.bohemiancoding.com/sketch -->
    <title>dials</title>
    <desc>Created with Sketch.</desc>
    <defs></defs>
    <g id="Page-1" stroke="none" stroke-width="1" fill="none" fill-rule="evenodd">
        <g id="dials" transform="translate(0.000000, 8.000000)">
            <path d="M25,0 L25,336" id="Stroke-1" stroke="#0067A6" stroke-width="16" stroke-linecap="round"></path>
            <path d="M133,0 L133,336" id="Stroke-3" stroke="#0067A6" stroke-width="16" stroke-linecap="round"></path>
            <path d="M241,0 L241,336" id="Stroke-5" stroke="#0067A6" stroke-width="16" stroke-linecap="round"></path>
            <path d="M38,122.333 L12,122.333 C5.4,122.333 0,116.934 0,110.333 L0,43.667 C0,37.066 5.4,31.667 12,31.667 L38,31.667 C44.6,31.667 50,37.066 50,43.667 L50,110.333 C50,116.934 44.6,122.333 38,122.333" id="Fill-7" fill="#3EB6A8"></path>
            <path d="M40.5,60.5 L9.5,60.5 C7.85,60.5 6.5,59.15 6.5,57.5 C6.5,55.85 7.85,54.5 9.5,54.5 L40.5,54.5 C42.15,54.5 43.5,55.85 43.5,57.5 C43.5,59.15 42.15,60.5 40.5,60.5" id="Fill-9" fill="#246EB6"></path>
            <path d="M40.5,80 L9.5,80 C7.85,80 6.5,78.65 6.5,77 C6.5,75.35 7.85,74 9.5,74 L40.5,74 C42.15,74 43.5,75.35 43.5,77 C43.5,78.65 42.15,80 40.5,80" id="Fill-11" fill="#246EB6"></path>
            <path d="M40.5,99.5 L9.5,99.5 C7.85,99.5 6.5,98.15 6.5,96.5 C6.5,94.85 7.85,93.5 9.5,93.5 L40.5,93.5 C42.15,93.5 43.5,94.85 43.5,96.5 C43.5,98.15 42.15,99.5 40.5,99.5" id="Fill-13" fill="#246EB6"></path>
            <path d="M146,244.833 L120,244.833 C113.4,244.833 108,239.434 108,232.833 L108,166.167 C108,159.566 113.4,154.167 120,154.167 L146,154.167 C152.6,154.167 158,159.566 158,166.167 L158,232.833 C158,239.434 152.6,244.833 146,244.833" id="Fill-15" fill="#3EB6A8"></path>
            <path d="M148.5,183 L117.5,183 C115.85,183 114.5,181.65 114.5,180 C114.5,178.35 115.85,177 117.5,177 L148.5,177 C150.15,177 151.5,178.35 151.5,180 C151.5,181.65 150.15,183 148.5,183" id="Fill-17" fill="#246EB6"></path>
            <path d="M148.5,202.5 L117.5,202.5 C115.85,202.5 114.5,201.15 114.5,199.5 C114.5,197.85 115.85,196.5 117.5,196.5 L148.5,196.5 C150.15,196.5 151.5,197.85 151.5,199.5 C151.5,201.15 150.15,202.5 148.5,202.5" id="Fill-19" fill="#246EB6"></path>
            <path d="M148.5,222 L117.5,222 C115.85,222 114.5,220.65 114.5,219 C114.5,217.35 115.85,216 117.5,216 L148.5,216 C150.15,216 151.5,217.35 151.5,219 C151.5,220.65 150.15,222 148.5,222" id="Fill-21" fill="#246EB6"></path>
            <path d="M254,267.333 L228,267.333 C221.4,267.333 216,261.934 216,255.333 L216,188.667 C216,182.066 221.4,176.667 228,176.667 L254,176.667 C260.6,176.667 266,182.066 266,188.667 L266,255.333 C266,261.934 260.6,267.333 254,267.333" id="Fill-23" fill="#3EB6A8"></path>
            <path d="M256.5,205.5 L225.5,205.5 C223.85,205.5 222.5,204.15 222.5,202.5 C222.5,200.85 223.85,199.5 225.5,199.5 L256.5,199.5 C258.15,199.5 259.5,200.85 259.5,202.5 C259.5,204.15 258.15,205.5 256.5,205.5" id="Fill-25" fill="#246EB6"></path>
            <path d="M256.5,225 L225.5,225 C223.85,225 222.5,223.65 222.5,222 C222.5,220.35 223.85,219 225.5,219 L256.5,219 C258.15,219 259.5,220.35 259.5,222 C259.5,223.65 258.15,225 256.5,225" id="Fill-27" fill="#246EB6"></path>
            <path d="M256.5,244.5 L225.5,244.5 C223.85,244.5 222.5,243.15 222.5,241.5 C222.5,239.85 223.85,238.5 225.5,238.5 L256.5,238.5 C258.15,238.5 259.5,239.85 259.5,241.5 C259.5,243.15 258.15,244.5 256.5,244.5" id="Fill-29" fill="#246EB6"></path>
            <path d="M466.833,73.333 C466.833,110.797 436.463,141.167 399,141.167 C361.537,141.167 331.167,110.797 331.167,73.333 C331.167,35.87 361.537,5.5 399,5.5 C436.463,5.5 466.833,35.87 466.833,73.333" id="Fill-31" fill="#3EB6A8"></path>
            <path d="M446.9658,73.333 C446.9658,99.824 425.4898,121.299 398.9998,121.299 C372.5098,121.299 351.0338,99.824 351.0338,73.333 C351.0338,46.843 372.5098,25.368 398.9998,25.368 C425.4898,25.368 446.9658,46.843 446.9658,73.333" id="Fill-33" fill="#246EB6"></path>
            <path d="M440.1387,73.333 C440.1387,96.054 421.7207,114.472 398.9997,114.472 C376.2797,114.472 357.8617,96.054 357.8617,73.333 C357.8617,50.613 376.2797,32.194 398.9997,32.194 C421.7207,32.194 440.1387,50.613 440.1387,73.333" id="Fill-35" fill="#82B5E2"></path>
            <path d="M457,73.333 C457,105.366 431.032,131.333 399,131.333 C366.968,131.333 341,105.366 341,73.333 C341,41.301 366.968,15.333 399,15.333 C431.032,15.333 457,41.301 457,73.333 Z" id="Stroke-37" stroke="#0067A6" stroke-width="6" stroke-linecap="round" stroke-dasharray="0,20.241"></path>
            <path d="M396,64.5 L396,44.5 C396,42.85 397.35,41.5 399,41.5 C400.65,41.5 402,42.85 402,44.5 L402,64.5 C402,66.15 400.65,67.5 399,67.5 C397.35,67.5 396,66.15 396,64.5" id="Fill-39" fill="#246EB6"></path>
            <path d="M466.833,262.667 C466.833,300.13 436.463,330.5 399,330.5 C361.537,330.5 331.167,300.13 331.167,262.667 C331.167,225.203 361.537,194.833 399,194.833 C436.463,194.833 466.833,225.203 466.833,262.667" id="Fill-41" fill="#3EB6A8"></path>
            <path d="M446.9658,262.667 C446.9658,289.157 425.4898,310.632 398.9998,310.632 C372.5098,310.632 351.0338,289.157 351.0338,262.667 C351.0338,236.176 372.5098,214.701 398.9998,214.701 C425.4898,214.701 446.9658,236.176 446.9658,262.667" id="Fill-43" fill="#246EB6"></path>
            <path d="M358.2695,268.4473 C355.0775,245.9533 370.7245,225.1293 393.2185,221.9363 C415.7135,218.7433 436.5385,234.3903 439.7305,256.8853 C442.9225,279.3813 427.2755,300.2043 404.7815,303.3973 C382.2865,306.5903 361.4615,290.9423 358.2695,268.4473" id="Fill-45" fill="#82B5E2"></path>
            <path d="M457,262.667 C457,294.699 431.032,320.667 399,320.667 C366.968,320.667 341,294.699 341,262.667 C341,230.634 366.968,204.667 399,204.667 C431.032,204.667 457,230.634 457,262.667 Z" id="Stroke-47" stroke="#0067A6" stroke-width="6" stroke-linecap="round" stroke-dasharray="0,20.241"></path>
            <path d="M403.2119,270.9912 L406.0229,290.7922 C406.2539,292.4262 405.1079,293.9522 403.4739,294.1842 C401.8399,294.4162 400.3139,293.2692 400.0819,291.6362 L397.2719,271.8342 C397.0389,270.2002 398.1869,268.6742 399.8189,268.4422 C401.4529,268.2102 402.9799,269.3572 403.2119,270.9912" id="Fill-49" fill="#246EB6"></path>
        </g>
    </g>
</svg>