<?xml version="1.0" encoding="UTF-8"?>
<svg width="20px" height="34px" viewBox="0 0 20 34" version="1.1" xmlns="http://www.w3.org/2000/svg" xmlns:xlink="http://www.w3.org/1999/xlink">
    <!-- Generator: Sketch 43.2 (39069) - http://www.bohemiancoding.com/sketch -->
    <title>share-facebook</title>
    <desc>Created with Sketch.</desc>
    <defs></defs>
    <g id="Page-1" stroke="none" stroke-width="1" fill="none" fill-rule="evenodd">
        <g id="share-facebook" fill-rule="nonzero" fill="#E0004D">
            <path d="M12.86,33.9 L6.86,33.9 C6.4331282,33.8945268 6.08996491,33.5469069 6.09,33.12 L6.09,17 L0.77,17 C0.343128196,16.9945268 -3.50858159e-05,16.6469069 0,16.22 L0,11.72 C-3.50858159e-05,11.2930931 0.343128196,10.9454732 0.77,10.94 L5.59,10.94 C5.52092353,9.31696013 5.69279095,7.69264451 6.1,6.12 C6.9439015,2.54182579 10.1745118,0.040708106 13.85,0.12 L19.22,0.12 C19.6468718,0.125473164 19.9900351,0.473093112 19.99,0.9 L19.99,5.58 C19.9900351,6.00690689 19.6468718,6.35452684 19.22,6.36 L16.71,6.36 C14.45,6.36 13.64,7.73 13.64,9.01 L13.64,10.94 L18.92,10.94 C19.3468718,10.9454732 19.6900351,11.2930931 19.69,11.72 L19.69,16.23 C19.6900351,16.6569069 19.3468718,17.0045268 18.92,17.01 L13.63,17.01 L13.63,33.12 C13.6300351,33.5469069 13.2868718,33.8945268 12.86,33.9 L12.86,33.9 Z M7.6,32.33 L12.09,32.33 L12.09,16.22 C12.0899649,15.7930931 12.4331282,15.4454732 12.86,15.44 L18.15,15.44 L18.15,12.5 L12.87,12.5 C12.4431282,12.4945268 12.0999649,12.1469069 12.1,11.72 L12.1,9 C12.1,6.9 13.53,4.78 16.72,4.78 L18.46,4.78 L18.46,1.67 L13.86,1.67 C10.8605878,1.57380668 8.22150944,3.63624434 7.59,6.57 C7.18455263,8.25127363 7.03620211,9.98427736 7.15,11.71 C7.15340269,11.9183779 7.07432794,12.1196591 6.93,12.27 C6.78498624,12.4174064 6.58677897,12.500293 6.38,12.5 L1.55,12.5 L1.55,15.42 L6.82,15.42 C7.2468718,15.4254732 7.59003509,15.7730931 7.59,16.2 L7.6,32.33 Z" id="Shape"></path>
        </g>
    </g>
</svg>