<?xml version="1.0" encoding="UTF-8"?>
<svg width="71px" height="71px" viewBox="0 0 71 71" version="1.1" xmlns="http://www.w3.org/2000/svg" xmlns:xlink="http://www.w3.org/1999/xlink">
    <!-- Generator: Sketch 43.2 (39069) - http://www.bohemiancoding.com/sketch -->
    <title>Page 1</title>
    <desc>Created with Sketch.</desc>
    <defs>
        <polygon id="path-1" points="70.6666 70.6666 0.0006 70.6666 0.0006 0.0008 70.6666 0.0008 70.6666 70.6666"></polygon>
    </defs>
    <g id="Page-1" stroke="none" stroke-width="1" fill="none" fill-rule="evenodd">
        <g>
            <mask id="mask-2" fill="white">
                <use xlink:href="#path-1"></use>
            </mask>
            <g id="Clip-2"></g>
            <path d="M58.9016,41.2328 C55.8386,51.6058 46.1466,58.8498 35.3336,58.8498 C24.5186,58.8498 14.8276,51.6058 11.7656,41.2328 C11.1396,39.1138 12.3506,36.8888 14.4686,36.2638 C16.5886,35.6368 18.8126,36.8498 19.4376,38.9668 C21.5036,45.9628 28.0406,50.8498 35.3336,50.8498 C42.6266,50.8498 49.1636,45.9628 51.2296,38.9668 C51.8546,36.8488 54.0826,35.6348 56.1986,36.2638 C58.3176,36.8888 59.5276,39.1148 58.9016,41.2328 M25.4166,21.8168 C27.5976,21.8168 29.3656,23.5858 29.3656,25.7658 C29.3656,27.9478 27.5976,29.7148 25.4166,29.7148 C23.2356,29.7148 21.4666,27.9478 21.4666,25.7658 C21.4666,23.5858 23.2356,21.8168 25.4166,21.8168 M45.2506,21.8168 C47.4306,21.8168 49.1996,23.5858 49.1996,25.7658 C49.1996,27.9478 47.4306,29.7148 45.2506,29.7148 C43.0686,29.7148 41.3006,27.9478 41.3006,25.7658 C41.3006,23.5858 43.0686,21.8168 45.2506,21.8168 M35.3336,0.0008 C15.8196,0.0008 0.0006,15.8188 0.0006,35.3338 C0.0006,54.8468 15.8196,70.6668 35.3336,70.6668 C54.8476,70.6668 70.6666,54.8468 70.6666,35.3338 C70.6666,15.8188 54.8476,0.0008 35.3336,0.0008" id="Fill-1" fill="#E0004D" mask="url(#mask-2)"></path>
        </g>
    </g>
</svg>