<?xml version="1.0" encoding="UTF-8"?>
<svg width="152px" height="159px" viewBox="0 0 152 159" version="1.1" xmlns="http://www.w3.org/2000/svg" xmlns:xlink="http://www.w3.org/1999/xlink">
    <!-- Generator: Sketch 43.2 (39069) - http://www.bohemiancoding.com/sketch -->
    <title>Page 1</title>
    <desc>Created with Sketch.</desc>
    <defs></defs>
    <g id="Page-1" stroke="none" stroke-width="1" fill="none" fill-rule="evenodd">
        <g>
            <path d="M76,63.9797 C69.378,63.9797 64.01,58.6117 64.01,51.9897 L64.01,11.9897 C64.01,5.3687 69.378,0.0007 76,0.0007 C82.622,0.0007 87.989,5.3687 87.989,11.9897 L87.989,51.9897 C87.989,58.6117 82.622,63.9797 76,63.9797" id="Fill-1" fill="#651C32"></path>
            <path d="M112.417,23.9797 L39.584,23.9797 C32.962,23.9797 27.594,18.6117 27.594,11.9897 C27.594,5.3687 32.962,0.0007 39.584,0.0007 L112.417,0.0007 C119.039,0.0007 124.406,5.3687 124.406,11.9897 C124.406,18.6117 119.039,23.9797 112.417,23.9797" id="Fill-3" fill="#D10B51"></path>
            <path d="M152,158.99 L122,158.99 L122,79.282 C122,72.493 116.497,66.99 109.709,66.99 L42.292,66.99 C35.503,66.99 30,72.493 30,79.282 L30,90.365 C30,93.472 27.482,95.99 24.375,95.99 L5.625,95.99 C2.518,95.99 0,93.472 0,90.365 L0,79.282 C0,55.925 18.935,36.99 42.292,36.99 L109.708,36.99 C133.065,36.99 152,55.925 152,79.282 L152,158.99 Z" id="Fill-5" fill="#00ABA5"></path>
            <path d="M25.6563,100.9534 L24.0003,94.9904 L22.3433,100.9564 C21.3493,104.5334 20.1793,108.0714 18.5803,111.4214 C18.0393,112.5544 17.8443,113.8834 18.1343,115.2764 C18.6083,117.5474 20.4423,119.3844 22.7143,119.8564 C26.5893,120.6614 30.0003,117.7244 30.0003,113.9904 C30.0003,113.2124 29.8513,112.4704 29.5803,111.7884 C28.1603,108.2134 26.6863,104.6604 25.6563,100.9534" id="Fill-7" fill="#0E6FAE"></path>
        </g>
    </g>
</svg>