<svg width="35" height="22" viewBox="0 0 35 22" xmlns="http://www.w3.org/2000/svg" xmlns:xlink="http://www.w3.org/1999/xlink"><title>Page 1</title><defs><path id="a" d="M0 0h20.7v34.227H0z"/></defs><g transform="rotate(90 17.009 17.509)" fill="none" fill-rule="evenodd"><mask id="b" fill="#fff"><use xlink:href="#a"/></mask><path d="M.225 2.577L2.586.216a.759.759 0 0 1 1.06 0l16.83 16.327a.765.765 0 0 1 0 1.08L3.647 34.012a.759.759 0 0 1-1.06 0l-2.36-2.4a.759.759 0 0 1-.005-1.075l.004-.006 13.306-12.906a.763.763 0 0 0 0-1.08L.245 3.656a.76.76 0 0 1-.024-1.074l.004-.006" fill="#868686" mask="url(#b)"/></g></svg>